<?xml version="1.0" encoding="UTF-8"?>
<!-- Generator: Adobe Illustrator 24.0.3, SVG Export Plug-In . SVG Version: 6.00 Build 0)  -->
<svg version="1.1" id="Livello_1" xmlns="http://www.w3.org/2000/svg" xmlns:xlink="http://www.w3.org/1999/xlink" x="0px" y="0px" viewBox="0 0 611.7 131.2" style="enable-background:new 0 0 611.7 131.2;" xml:space="preserve">
<style type="text/css">
	.st0{fill:#FFFFFF;}
	.st1{fill:#FF5E07;}
</style>
<g>
	<path class="st0" d="M446.4,97V33.2h5.7v58.3h24.4V97H446.4z M517,97l-3-4.5c-1.2,1.6-2.8,3-4.7,3.9c-1.9,1-4,1.5-6.2,1.5h-1.4   c-7.4,0-13.4-6-13.4-13.4v0v-0.5c0-1.8,0.3-3.6,1-5.2c0.7-1.6,1.6-3.1,2.9-4.3c1.2-1.2,2.7-2.2,4.3-2.9c1.6-0.7,3.4-1.1,5.2-1h11.6   v-7c0-1-0.2-2.1-0.6-3c-0.8-1.9-2.3-3.4-4.2-4.2c-1-0.4-2-0.6-3-0.6h-3.2c-1,0-2.1,0.2-3,0.6c-0.9,0.4-1.8,1-2.5,1.7   c-1.5,1.5-2.3,3.5-2.3,5.6v1.6l-5.5-0.9v-0.5c0-1.8,0.3-3.6,1-5.2c1.3-3.2,3.9-5.8,7.1-7.1c1.6-0.7,3.4-1.1,5.2-1h3.2   c1.8,0,3.6,0.3,5.2,1c1.6,0.7,3,1.6,4.3,2.9c2.5,2.5,3.9,5.9,3.9,9.5v33H517z M513.4,75h-11.6c-1,0-2.1,0.2-3,0.6   c-0.9,0.4-1.8,1-2.5,1.7c-0.7,0.7-1.3,1.6-1.7,2.5c-0.4,1-0.6,2-0.6,3v1.9c0,1,0.2,2.1,0.6,3c0.4,0.9,1,1.8,1.7,2.5   c0.7,0.7,1.6,1.3,2.5,1.7c1,0.4,2,0.6,3,0.6h3.7c2.1,0,4.1-0.8,5.6-2.3c0.7-0.7,1.3-1.6,1.7-2.5c0.4-1,0.6-2,0.6-3V75z M563.8,89.7   c-0.7,1.6-1.6,3.1-2.9,4.3c-2.5,2.5-5.9,3.9-9.5,3.9h-3.7c-3.5,0-7-1.4-9.5-3.9c-2.5-2.5-3.9-5.9-3.9-9.5V33.2h5.5v22.1   c2.5-3,6.3-4.8,10.2-4.7h1.4c1.8,0,3.6,0.3,5.2,1c1.6,0.7,3,1.6,4.3,2.9c2.5,2.5,3.9,5.9,3.9,9.5v20.6   C564.8,86.3,564.5,88.1,563.8,89.7 M559.3,63.7c0-1-0.2-2.1-0.6-3c-0.4-0.9-1-1.8-1.7-2.5c-0.7-0.7-1.6-1.3-2.5-1.7   c-1-0.4-2-0.6-3-0.6h-3.7c-1,0-2.1,0.2-3,0.6c-0.9,0.4-1.8,1-2.5,1.7c-0.7,0.7-1.3,1.6-1.7,2.5c-0.4,1-0.6,2-0.6,3v21.2   c0,1,0.2,2.1,0.6,3c0.4,0.9,1,1.8,1.7,2.5c0.7,0.7,1.6,1.3,2.5,1.7c1,0.4,2,0.6,3,0.6h3.7c1,0,2.1-0.2,3-0.6c0.9-0.4,1.8-1,2.5-1.7   c0.7-0.7,1.3-1.6,1.7-2.5c0.4-1,0.6-2,0.6-3V63.7z M611.6,85.5c0,1.8-0.4,3.5-1.1,5.1c-0.7,1.5-1.8,2.8-3,3.9   c-1.3,1.1-2.8,2-4.4,2.5c-1.7,0.6-3.5,0.9-5.3,0.9h-3.7c-1.8,0-3.6-0.4-5.3-1.1c-1.6-0.7-3.1-1.6-4.4-2.9c-1.3-1.2-2.3-2.7-3-4.3   c-0.7-1.6-1.1-3.4-1.1-5.2v-1.8l5.5-0.9v3c0,1,0.2,2.1,0.7,3c0.4,1,1.1,1.8,1.8,2.5c0.8,0.7,1.7,1.3,2.7,1.7c1,0.4,2.1,0.6,3.2,0.6   h3.6c1.1,0,2.1-0.2,3.2-0.5c1-0.3,1.9-0.8,2.7-1.4c0.8-0.6,1.4-1.3,1.9-2.2c0.5-0.9,0.7-1.9,0.7-2.9c0.1-1.4-0.3-2.8-1.1-4   c-0.7-1.1-1.7-2-2.8-2.6c-1.3-0.7-2.6-1.3-4-1.7c-1.5-0.5-3-0.9-4.5-1.4c-1.5-0.5-3.1-1-4.5-1.6c-1.5-0.6-2.8-1.3-4-2.3   c-1.2-1-2.2-2.2-2.8-3.6c-0.8-1.7-1.1-3.6-1.1-5.4c0-1.7,0.3-3.5,1.1-5c0.7-1.5,1.7-2.8,2.9-3.9c1.2-1.1,2.7-2,4.2-2.6   c1.7-0.6,3.4-0.9,5.2-0.9h3.2c1.8,0,3.6,0.3,5.2,1c1.6,0.7,3,1.6,4.3,2.9c1.2,1.2,2.2,2.7,2.9,4.3c0.7,1.6,1.1,3.4,1,5.2v0.2   l-5.5,0.9v-1.4c0-1-0.2-2.1-0.6-3c-0.8-1.9-2.3-3.4-4.2-4.2c-1-0.4-2-0.6-3.1-0.6h-3.2c-1,0-2.1,0.2-3,0.5   c-0.9,0.3-1.8,0.8-2.5,1.4c-1.5,1.3-2.4,3.2-2.3,5.1c-0.1,1.4,0.3,2.7,1.1,3.8c0.7,1,1.7,1.9,2.8,2.5c1.3,0.7,2.6,1.3,4,1.7   l4.5,1.4c1.5,0.5,3,1,4.5,1.7c1.5,0.6,2.8,1.4,4,2.4c1.2,1,2.2,2.3,2.8,3.7C611.4,81.8,611.7,83.7,611.6,85.5"/>
	<path class="st0" d="M341.6,97.9c-2.1,0-4.2-0.4-6.2-1.1c-1.9-0.7-3.6-1.7-5.1-3c-1.4-1.3-2.6-2.8-3.4-4.5   c-0.8-1.8-1.3-3.7-1.3-5.6V65c0-1.9,0.4-3.9,1.3-5.6c0.8-1.7,2-3.3,3.4-4.5c1.5-1.3,3.2-2.3,5.1-3c2-0.7,4.1-1.1,6.2-1.1h3.7   c2.1,0,4.2,0.4,6.2,1.1c1.9,0.7,3.6,1.7,5.1,3c1.4,1.3,2.6,2.8,3.4,4.5c0.8,1.8,1.3,3.7,1.3,5.6v12h-25v6.9c0,0.6,0.1,1.3,0.4,1.9   c0.3,0.6,0.7,1.1,1.2,1.5c0.5,0.5,1.1,0.8,1.7,1c0.7,0.3,1.4,0.4,2.1,0.4h3.7c0.7,0,1.4-0.1,2.1-0.4c0.6-0.2,1.2-0.6,1.7-1   c0.5-0.4,0.9-0.9,1.1-1.5c0.3-0.6,0.4-1.2,0.4-1.9v-3.2l10.6,1.5v1.3c0,1.9-0.4,3.9-1.3,5.6c-0.8,1.7-2,3.3-3.4,4.5   c-1.5,1.3-3.2,2.3-5.1,3c-2,0.8-4.1,1.1-6.2,1.1L341.6,97.9z M350.5,68.5v-3.8c0-0.6-0.1-1.3-0.4-1.9c-0.3-0.6-0.7-1.1-1.1-1.5   c-0.5-0.5-1.1-0.8-1.7-1c-0.7-0.2-1.4-0.4-2.1-0.4h-3.7c-1.4,0-2.7,0.5-3.8,1.4c-0.5,0.4-0.9,0.9-1.2,1.5c-0.3,0.6-0.4,1.2-0.4,1.9   v3.8L350.5,68.5z M254.3,97.9c-2.1,0-4.2-0.4-6.2-1.1c-1.9-0.7-3.6-1.7-5.1-3c-1.4-1.3-2.6-2.8-3.4-4.5c-0.8-1.8-1.3-3.7-1.2-5.6   V65c0-1.9,0.4-3.9,1.2-5.6c0.8-1.7,2-3.3,3.4-4.5c1.5-1.3,3.2-2.3,5.1-3c2-0.8,4.1-1.1,6.2-1.1h3.7c2.1,0,4.2,0.4,6.2,1.1   c1.9,0.7,3.6,1.7,5.1,3c1.4,1.3,2.6,2.8,3.4,4.5c0.8,1.8,1.3,3.7,1.3,5.6v12h-25v6.9c0,0.6,0.1,1.3,0.4,1.9   c0.3,0.6,0.7,1.1,1.1,1.5c0.5,0.4,1.1,0.8,1.7,1c0.7,0.3,1.4,0.4,2.1,0.4h3.7c0.7,0,1.4-0.1,2.1-0.4c0.6-0.2,1.2-0.6,1.7-1   c0.5-0.4,0.9-0.9,1.2-1.5c0.3-0.6,0.4-1.2,0.4-1.9v-3.2l10.6,1.5v1.3c0,1.9-0.4,3.9-1.3,5.6c-0.8,1.7-2,3.3-3.4,4.5   c-1.5,1.3-3.2,2.3-5.1,3c-2,0.8-4.1,1.1-6.2,1.1L254.3,97.9z M263.3,68.5v-3.8c0-0.7-0.1-1.3-0.4-1.9c-0.3-0.6-0.7-1.1-1.1-1.5   c-1-0.9-2.4-1.4-3.8-1.4h-3.7c-0.7,0-1.4,0.1-2.1,0.4c-0.6,0.2-1.2,0.6-1.7,1c-0.5,0.4-0.9,0.9-1.1,1.5c-0.3,0.6-0.4,1.2-0.4,1.9   v3.8L263.3,68.5z M205.1,97.9c-2.4,0-4.9-0.4-7.2-1.3c-2.2-0.8-4.2-2-5.9-3.5c-1.7-1.5-3.1-3.3-4.1-5.3c-1-2-1.5-4.3-1.5-6.5v-4.3   l10.9-1.6v6c0,0.9,0.2,1.8,0.6,2.6c0.4,0.9,1,1.6,1.8,2.3c1.6,1.4,3.6,2.1,5.7,2.1h4c1,0,2.1-0.2,3-0.5c0.9-0.4,1.8-0.9,2.6-1.5   c0.8-0.6,1.4-1.4,1.8-2.3c0.4-0.8,0.6-1.7,0.6-2.6v-1.8c0.1-1.3-0.3-2.7-0.9-3.8c-0.7-1.1-1.6-2-2.7-2.7c-1.3-0.9-2.8-1.6-4.3-2.1   c-1.8-0.7-3.6-1.3-5.5-1.9c-1.9-0.6-3.9-1.4-5.8-2.2c-2-0.9-3.8-2-5.4-3.3c-1.7-1.4-3.1-3.1-4-5.1c-1.1-2.3-1.6-4.8-1.5-7.3v-1.1   c0-2.3,0.5-4.5,1.5-6.5c0.9-2,2.3-3.8,3.9-5.3c1.7-1.5,3.7-2.7,5.8-3.5c2.3-0.9,4.7-1.3,7.1-1.3h4.1c2.4,0,4.8,0.4,7.1,1.3   c2.1,0.8,4.1,2,5.8,3.6c1.6,1.5,3,3.3,3.9,5.3c1,2,1.4,4.3,1.4,6.5v3.5l-11,1.6v-5.1c0-0.9-0.2-1.9-0.6-2.7c-0.4-0.8-1-1.6-1.6-2.2   c-0.7-0.6-1.5-1.2-2.4-1.5c-0.9-0.4-1.9-0.5-3-0.5h-3.6c-1,0-2,0.2-3,0.5c-0.9,0.4-1.7,0.9-2.5,1.5c-0.7,0.6-1.3,1.4-1.7,2.2   c-0.4,0.8-0.6,1.8-0.6,2.7V51c-0.1,1.2,0.3,2.4,0.9,3.5c0.7,1,1.6,1.9,2.7,2.6c1.3,0.9,2.8,1.6,4.3,2.1l5.5,2   c2,0.7,3.9,1.5,5.7,2.3c1.9,0.9,3.8,2.1,5.4,3.4c1.7,1.4,3,3.2,4,5.2c1.1,2.3,1.6,4.8,1.5,7.3v1.8c0,2.3-0.5,4.5-1.5,6.6   c-1,2-2.4,3.8-4,5.3c-1.7,1.5-3.7,2.7-5.9,3.5c-2.3,0.9-4.7,1.3-7.2,1.3H205.1z M396.5,97.1V64.7c0-0.6-0.1-1.3-0.4-1.9   c-0.3-0.6-0.7-1.1-1.1-1.5c-0.5-0.5-1.1-0.8-1.7-1c-0.7-0.2-1.4-0.4-2.1-0.4h-3.7c-1.4,0-2.7,0.5-3.8,1.4c-0.5,0.4-0.9,0.9-1.2,1.5   c-0.3,0.6-0.4,1.2-0.4,1.9v32.4h-10.6V51.4h5.8l2,2.7c1-0.8,2-1.4,3.1-1.9c2.3-1.1,4.8-1.6,7.4-1.6h1.4c2.1,0,4.2,0.4,6.2,1.1   c1.9,0.7,3.6,1.7,5.1,3c1.4,1.3,2.6,2.8,3.4,4.5c0.8,1.8,1.3,3.7,1.3,5.6V97L396.5,97.1z M296.6,97.1l-18-45.7h10.9l10.2,26.7   l10.2-26.7h11l-17.9,45.7H296.6z"/>
	<path class="st1" d="M118.8,19.2h-15.2L111.2,6l3.5-6H0l3.4,6l12.9,22.2l11,19.1l1.2,2h23L33.7,79.9l-1.2,2l1.2,2L46.5,106   l11.1,19.2l3.5,6l3.5-6l57.7-100l3.5-6H118.8z M63.6,42.3H32.5l-9.3-16.1h68.2L50,98l-9.3-16.1L63.6,42.3z M102.5,7l-9.3,16.2H21.5   L12.1,7H102.5z M73.3,63.6l21.6-37.4h18.7l-52.5,91L51.7,101L73.3,63.6z M30.8,45.3l-11-19.1L6.9,4l12.8,22.2L30.8,45.3L30.8,45.3z   "/>
</g>
</svg>