<svg xmlns="http://www.w3.org/2000/svg" xmlns:xlink="http://www.w3.org/1999/xlink" viewBox="0 0 346.26 450"><defs><style>.cls-1,.cls-2{fill-opacity:0.4;}.cls-2{fill:#fff;}.cls-3{fill:#d5d6e0;}.cls-4{fill:#e9eaf4;}.cls-5{fill:#42c299;}.cls-6{fill:#83d7bc;}.cls-7{fill:url(#Sfumatura_senza_nome_3);}.cls-8{fill-opacity:0.05;}.cls-9{fill:#c5c7d3;}.cls-10{fill:#38226d;}.cls-11{fill:#9c73ff;}.cls-12{fill:#e4b17c;}.cls-13{fill:#ededed;}.cls-14{fill:#e5e5e5;}.cls-15{fill:#f4f4f4;}.cls-16{fill:#bfbfbf;}.cls-17{fill:#3a2c6d;}.cls-18{fill:#dceeff;}.cls-19{fill:#dbdbdb;}.cls-20{fill:#1e3779;}.cls-21{fill:#031f60;}</style><linearGradient id="Sfumatura_senza_nome_3" x1="-889.81" y1="1043.86" x2="-889.39" y2="1043.86" gradientTransform="matrix(0, -214.27, -214.27, 0, 223878.37, -190337.44)" gradientUnits="userSpaceOnUse"><stop offset="0" stop-color="#e9eaf4"/><stop offset="0.63" stop-color="#e9eaf4" stop-opacity="0"/><stop offset="1" stop-color="#e9eaf4" stop-opacity="0"/></linearGradient></defs><g id="Livello_2" data-name="Livello 2"><g id="Livello_1-2" data-name="Livello 1"><g id="Слой_1-2" data-name="Слой 1-2"><path class="cls-1" d="M205.35,357.54,163,333.08c-2-1.14-1.73-3.13.56-4.44l41.26-23.83c2.28-1.31,5.73-1.46,7.7-.32L254.86,329c2,1.14,1.73,3.13-.55,4.45l-41.26,23.82C210.77,358.54,207.32,358.68,205.35,357.54Z"/><path class="cls-2" d="M186.65,342.91h0l-107,61.78L17.89,440.34l1.37.8L81,405.49,188,343.7Z"/><path class="cls-3" d="M259.2,326.13l-2.09.64-41.6-24c-2-1.13-5.4-1-7.7.33l-41.26,23.82-.1.06-1.8-.55v3.23a2.43,2.43,0,0,0,1.29,1.67l42.37,24.46c2,1.14,5.4,1,7.71-.32l41.38-23.79a3.21,3.21,0,0,0,1.87-2.37Z"/><path class="cls-4" d="M208.4,352.93,166,328.5c-2-1.13-1.72-3.12.56-4.44l41.27-23.82c2.27-1.32,5.72-1.47,7.69-.32l42.37,24.46c2,1.14,1.73,3.13-.55,4.45L216.1,352.65C213.81,353.93,210.37,354.07,208.4,352.93Z"/><path class="cls-5" d="M229.84,324.23v-3.6L224.71,322l-11.41-6.62a3.2,3.2,0,0,0-2.92.13l-11.09,6.4L194,320.51v5a.94.94,0,0,0,.49.63l16.07,9.35a3.27,3.27,0,0,0,2.92-.12l15.64-9a1.22,1.22,0,0,0,.7-.9v-1.19Z"/><path class="cls-6" d="M210.6,330.6l-16.08-9.3c-.75-.43-.66-1.19.2-1.68l15.65-9a3.22,3.22,0,0,1,2.93-.12l16.06,9.27c.74.43.65,1.19-.21,1.69l-15.64,9A3.28,3.28,0,0,1,210.6,330.6Z"/><path class="cls-7" d="M211.93,320.54l-95.76-85.71L308,231.24Z"/><circle class="cls-4" cx="210.07" cy="136.19" r="136.19"/><path class="cls-6" d="M177,64.46l.44-1.54V59.58a7.32,7.32,0,0,1-1.87,0c-.32-.14-.1-1.06-.1-1.06L177,57.21l-3.07.65-1.1,1.72-3.44,2.13,1.54.86,1,.65,1.48.23v-1s1.72-.43,2.14.22l-.22,1.21ZM139,112a3.49,3.49,0,0,0-2.83,0,2.33,2.33,0,0,1-2.2,2.35l2.51,1.4,2.52-.94,3.28-1.09,2.82,2c2.12-2.58,0-4.07,0-4.07Zm53.44,47.87-2.44-.51-4.23-2.7H182L178.82,155h-1.28s.26-1.8-.13-1.92-3.2-1.8-3.2-1.8l-2.19.77v-1.54l-1.54-.64H169.2l.13-1.29s1.15-2.28.52-2.67-3-5.54-3-5.54l-3.44-1.92h-3.72l-3.21-3.08-3.2-2.58-1.8-3.59-1.92-1.28s-2.18,1.41-2.7,1.28-3.72-1.28-3.72-1.28l-2.69-.77-3.36,1.58v3.44l-1.29-.86V130l1.16-2.18.51-1.54-1.15-.51-1.54,1.79L131,128.74l-.77,1.67-1.8,1.67-.51,1.41-2.82-2.31a22.72,22.72,0,0,1-2.95,1.29,20,20,0,0,1-3-1.93l-1.42-2.7.78-3.58.64-3.73L116.73,119h-3.34l-2.58-.77,1.2-1.92,1.42-2.83,1.28-2s.36-.93.77-1.15c1.64-.86,0-1.67,0-1.67a20.05,20.05,0,0,0-4,0c-.54.26-1.93,1-1.93,1v3L107,113.73l-4,.86-2.69-2.7c-.39-.38-1.28-4.61-1.28-4.61l1.66-1.54.77-1.29.13-3.08,1.66-1.41.65-1.67,1.91-1.39,1.83-1.68,1.67-.51,2.31.51c.12-.86,4.36-.51,4.36-.51l1.67-.08-.13-.94c.77-.65,3.34,0,3.34,0l3.44-.29c.76.16,1.4,1.72,1.4,1.72l-1.55,1.41,1,3.07,1,1.41-.39,1.41,2.47-.36.12-2.44.13-3-.38-3.24,2.31-5,9.36-6-.12-2.18.63-3.15,1.67.58,2.95-3.5,3.85-1.28,2.31-1.56L152.29,69l4.23-1.28,4.24-2.18-1.95,2.08-.26,1.8,2.31-.52,2.06-1.15,1.79-.51,1.67-.52.51-1.15h-1.15l-1.8-.65L161.36,63a1.47,1.47,0,0,1,.38-1.17l1.16-1s.51-.62.13-.62-3.21-.62-3.21-.62l-3.08,1.24H155l2.19-1.9h2.43l2.7-.65h5.59l3.08-.64,2.2-1.18,2.69-.28.77-2.88-1.79-1.54-2.59-1.33-.51-3-1.41-3.08h-1.29L168.92,46h-2l-.52,1-.77.52-1.28.26-1.16-1.17L164.69,45l-1.79-1.67-2.19-1.15h-2.28l-1.67.51-2.3,2.69-1.8,1.54.52,1.41-.66,2.15.39.86-2.19.77-2.43.51-1-.26-.77,1,1.41,2.89-1.41,1h-1.92l-1.63-2.09-.38-1.19,1.15-.64-.86-1.54-2.69-.13-3.59-2.22H134.9L134.51,48l-1.15-.51L135,45.57l2.43-1.41,4.24-1.54,1.54-.51,3.33-.77,2.23-1.24,2-1.8h2.7l3.21-.81h2.05l.86-2.39h-4.1L154,36.28h-2.7a4.61,4.61,0,0,0-2.05-1.18v-1l1.41-1.28,1.83-1.38a10.73,10.73,0,0,0,1.54-2.69l3.72,1.28,2.81-.14,1.94-.12L165,30l1.41.52c-.39,1-1.92.26-1.92.26l-4.62.5-2.06,1.12.65-1.41-2.19.13-2.58,1.66,1.8.91h4.23l2.31.86,1.93-.77,2,.77,2.45.77-2.95.92-2.59,1.22L160.3,38l-2.05.77.86,1.8,5.39-.13,3.4,2.09h2.82l.13-1.15.64-1.15,1.29-.26-1-1.41-.38-1.07h1.53l1.29.94c1,.77,3.2-.94,3.2-.94l3.21-1.21-4-1.18-1.28-1.29c.37-.77-4.24-1.92-4.24-1.92l-3.6-2.18-.86-.9H163.6l2.43-1,6,.64,3.08-.64,7.06-1.8,4.74-1.15,3.44-1.28-4-.62s-2.82.77-3.21.77-3.71.26-4.1.26h-9l-2.82.64,2.58.64-1.54.86h-2.69l-1.54.52,2-1.54L164,24.52l-2.69.65-3.34,1.92,1.54.51,2.18-.86,1.79.38-1.92.52-.77,1,1.28.39-3.44.26-6-1-2.44,2.95-4.88,3.44,1.28,1-.86.55-1.15.61-3.34-.61-4.61,1.21-8.47,2.09L99.79,66.78,88.5,81.49,82,120.75l11.54-3.84,1.8,1.92,3.08.51,2.06,1.28,2.18-.86,1.8,1.8,4,2.18,3.85.52,1.15,3.84s2.7,2.44,2.58,3,.86,2.83,1.41,2.83a25.43,25.43,0,0,1,3.73,1.67l2.18.25.86-1.92h1.93v1.92l.77,1,.25,2.94.78,2.19-1.29,1.41-2,2.58L122,149.52l.26,3.44-.64,2.31,1.92.65-1.66,2.3c.34,1,.62,2,.86,2.95a24.79,24.79,0,0,0,1.41,3.21l1.8,1.54.77,2.59,4.36,9,3.08,2.58,4.49,2.31s2.82,3.08,3,3.44,1.54,6,1.54,6L143,195l.86,3.33.26,3.73.39,5.16,1.28,4.11,1.15,5.39-1.41,1.8.86,2.65,1,3.89,1.79,1.92-.12,3.08.38,3.08,8,8.46,1.53,1.67v-4l2.59-1.49v-2.36L159,234.3v-1.8l1.27-1.15,1.27-2.06v-1.67c1.06-.38,0-1.54,0-1.54h-1.76l-.13-1.66h1.67l.69,1,1.36-1-1-2.06c.26-.63,2.06,0,2.06,0l3.07-1.8,1.28-1.53V217l-1.46-1.31L166,213.6h1.54s2.32,1.16,3.08,0,1.93-2.69,1.93-2.69l1.41-3.33s2.69-4.88,3-5.27,0-5.16,0-5.16l4.24-3.45H184l2.31-3.85,1.79-2.53V183l.64-4.11-1-4,3.59-4.75,2.7-2.58-1-4.74-.53-3ZM221,59.07l.86.51,1.17-1h1.66l1.53-.52.69-.95-.33-1.3.66-.7c.07-1.06-1.6-1.83-1.6-1.83h-1l-1.17,1.36h-1.24l-.44,1.53.18,1.15L221,58Zm7.74-9.69-1.31.58v2l.15.51a5.19,5.19,0,0,1,.15,1.24l.94.65.95.59.44.86s-.15.86-.65.86l-1.17.37.43.8s-.86.44-.94.8l.8.59-.73.73h-1.6v.86h3.35l1.39-.86,2,.36s1.68-.36,2-.36l-.3-.37.52-.66.8-.94-1-.42-1.17-.36.15-1.24-1.1-.86-1.67-.91-.15-1.68.15-1.45h-1.72l-.36-.73,1-1Zm9.56,6.27V55.1h1.17l.65-.47V52.8l.86-.44-.29-1.45-1.37-.48-2,.65v1.07l-1.24.14-.29,1,.86.41-1.39.8-.37.62L236,56.16ZM311.8,99.86l4.82,2.58,2.49-1,1.65,2.34,4.41,1,1.93,1,5.38-14.2L330.94,84l-24.1-39.43-7.19-5.32H291l-3.86.55-1,1.94L284.08,41l-1-1.72h-1.94l.86.86.7,1.38h-3V43.2l-2.17-.32-1.31-.2-.74.37.68.42,1,.22-.86.32-1.15-.47-1.44-.48-.43-1-1.06-.86L271,41.08l-.86-1,1.87.17,1.65.74,1.38.16s.86-.21,1-.06a10.68,10.68,0,0,0,2,.43l1.12-.86-1.89-1.41-3.36-1s-5.64-.78-5.9-.76c-.81-.2-1.61-.45-2.4-.73l-2-.48h-4.3l-6.54,1.21-3.62,2.3-4.3,3.88s-3.72.53-3.93.59a15.67,15.67,0,0,0-1.72,1.64l.86,1.87-.22.86.59.47.43.86.58.86,2.18-.32,2.34-1.32,1.81,1,1.38,2.4.26,1.43,1.65.32,1.12-1,1.17-.27.64-1.92.1-1.49,1.6-.47v-1l-.58-.42-.75-.49-.27-1.72L256.5,44s1.29-1.17,1.29-1.38.64-.91.64-.91,1,.06,1.33.11,2,.64,2,.64l.65.48-2,1-1.16,1.17-.86.58.8,1.86,2.07,1.07,1.86-.38,2.95-.14s3.38.68,3.54.79-1,.47-1,.47l-1.32.37-.74.48-1.26-.63a3.21,3.21,0,0,0-1.72-.59,3.53,3.53,0,0,0-1.44.64l.8,1.22,1.11.75s-.47,1.37-.79,1.32-.86-1-.86-1l-1.23-.49-.79.49.1,1.17-.34,1.65-1.33.86-1,.75-1.27-.75-1.65.48-2.87-.16-.64.58-1-.42s-2.5.1-2.66.16a9.78,9.78,0,0,1-1.65-.74l-.63-1.44.79-1-.37-.43-.32-.79.53-.64-.8-.21L244,52.35,244,53.63s.69,1.22.75,1.37c0,.38.05.75.05,1.12l-1.33.54-1.44.42.27.53,1.49.27-.48.86-.86,0L242,59.86l-.27.58-1.17-.32.05-.74,0-1-.47-.48-.7.75-.74,1L237,60l-.8.64-.53,1.17-1.28.58-1,.64-1.55-.79-.21.37.32.79-.37.43-2-.16-1.12-.16L228.31,65l2,.32,1,.86s.75.9.9.9,1.23.27,1.23.27l-.43,2.34L232,71.83l-4,0-4.36-.11-1.38.53-.43,1.22.37,1.28-.77,2.4-.32,1.29a5.76,5.76,0,0,0,.15,1.3c.11.15.75,1.27.75,1.27l-.49,1.81,1.44.43,2.39.15,1.28.7,1,.15,1.59-.68,2.4-.32,2.23-1.87-.37-2.28,1.38-1.72,2.93-1.86L239,75l-.16-1.91,1.73-1,1.72.59,1.17-.64,3.59-1.1,3.57,3.3,4.89,3.35s1,2,1.06,2.18a6.16,6.16,0,0,1-.75,1.38H253.1l-1,.24s.31.79.52.79,2.4,1,2.4,1l.69.54.37-.11-.05-1,.21-1,.74.11a6.35,6.35,0,0,0,.8-1.07c.23-.47.47-.93.74-1.38l-.58-1.12.33-.74.86.11.1,1.11h.32l-.1-1.38-.87-.53L257.4,76l-.8-1.16-1.38-.38-1.6-1.12-.37-1.27-1.49-.74-.38-1.17.43-1.22.95-.17.05,1.17,1,.32.65-.37,1,1.72,2,1.11,1.55.86,1,.11,1.59,1.73.38,2.22,3,3.09.42,2.18,2.12,1.49.59-.48-.32-1.38,1.17-.64-.37-1-1.18-.4-.48-1L267,78l-.68-.79.63.1.48.59.74-1,1.28,0,1.28.54,1,1.31.95,1.48s-.64.37-.69.54a5.17,5.17,0,0,0,.54,1.17l1.22,1.11.95,1.34,1.91,0,.22.86,1.38.15,1.33-.31.38-.86.58.8,1.54.53,1.33-.1,1.12-1.23,1,.43.74.47-.26,1.07.66,2.18-1,2.21v2.9h-5.81l-2.21.86L274,92.59l-2.34.28-4-1.45h-3.17l-1,.86.55,1.52L262.84,95l-3.17-1.93-2.48.28-1-1.66-3.72-1.1-2.59-1.25-2-1,2.34-2.75-.69-2.34-1.65-1-9.8,1.11L234.29,85l-2.49.14-2.58,1-3.17-.69L224,87.86l-2.48,1.65-2.24,4.69.59,2.07L217,99l-2.89,1.1-1.37,2.59s-3,6.75-3.32,7.3a19.59,19.59,0,0,0,0,4l1.24,4-2.89,6.75,1.1,3.32,1.52,3,4,5.66-.12,2.84,8.24,6.27,5.53-2.22,5.32,1.69,6.6-3.58s2.22,0,2.9,1.24,1.11,2.34,3.58,2.34,3.73,2.76,3.73,2.76l-1.1,3.17.55,1.65-1.1,2.58,2.58,5.37L253,165l1.8,4,.41,5.1-.41,2.9-3.18,5.51,1,8.55,1.1,1.93-.42,1.37,1.94,2.08,1.24,4.82-1.1,4.55,1.65,3.44s1.51,3.73,1.65,4.14,1.1,1.79,1,2.48-.55,2.49-.55,2.49l.55,2.75h7l3.31-1.1,8.13-8.27a27.58,27.58,0,0,0,2.07-2.76c.14-.42,1.24-5.51,1.24-5.51l5.79-2.35v-4.5l-1.24-3.59,3-2.89,8.14-4.69.69-3.59v-6.2L296.27,171l.41-2.89-1.41-1.25,2.62-3.85,1-5.1,3.85-2.34.86-2.35,7-7.29,2.21-6.94,2.07-3.83V131l-1.93-.69-2.21,1.79-3,.28-3.17.86-2.62-1.66.27-2.07-3.3-3.72-3.31-1.93-1.52-5-3.23-3.08-.28-3.85-2.35-3.45-2.89-6.47-3-3L282,96.54l1.24.56,1.38,1.11.55,2.06c1.1,0,1.52-2.06,1.52-2.06l1,2.06,1,2.58,3,4.56,1.66.27,1.92,4-.13,1.79,5.51,5.66,1,5.23,1,2.35,1.8,1.79,8.27-2.2,1.51-1.39,3.58-1.1v-1.65l4.14-2.76,1.72-3.2,1-1.63,1.39-1.92-2.28-3.14-3.19-2.7-1-2.58-1.17.28-.86,2.47-3.17.86-1.65-1.1-.55-2.34-1.11.28-1.66-3-1.51-.86-1.93-3.17,1.38-1.52,4.56,3.77ZM247.26,79.57l.29-1.32V76.36a2.06,2.06,0,0,0-1.06-.51,1.15,1.15,0,0,0-.77.29v2.11a3.66,3.66,0,0,1,0,1.32Zm0-5.69v-.11a.87.87,0,0,0-.86-.86l-.17,0-.51,1.45.51,1.1h1ZM209.65,36.24h5.16l2.82-4.06h6.48l1-2.58,4-2.11c1.89-1.64,0-4.62,0-4.62l-8.12-1-8.07,1L201.2,20.7,194,24s-5.21,2.81-5.91,2.58a24.9,24.9,0,0,0-4.23,0c-1.4.12,2.58,2.34,3.75,2.58a8.65,8.65,0,0,0,2.59,0c.85-.13,0,2.29.47,2.82,1.64,1.88-1.72,3.28-1.72,3.28v2.22s.37,4.2,1.06,4,1.85,2.22,1.85,2.22L194,46.05h4l4.93-5.86,4.85-2.11ZM311.07,176.63l-.64-1.72-.73.72-.64,1.47-1.45.86-.64,1.92-.91,2.27-3.56,1.09L301,185.88l-.37,4.37-1.27,2.17L297.87,194l.54,2.58,1,1.19-1,1.36,1,.86h3.36l1.91-2.82s1.55-3.28,1.55-3.56.73-3.27.73-3.27l2.63-3.45V182.1h1.83l-.54-3.38ZM127.24,106.79l-4-1.36s-1.11.16-2.41.47a14.3,14.3,0,0,0-2.79.86l5.66,1.93H126l3.82,3.29h2.58s2.11-.94,1.4-2.59l-3.27-1.18-3.29-1.42Z"/><path class="cls-8" d="M223.31,242.1c-74.72,0-136.18-61.55-136.18-136.27a136.07,136.07,0,0,1,5.68-38.92,136.19,136.19,0,0,0-19,69.29c0,74.72,61.49,136.21,136.21,136.21a136.53,136.53,0,0,0,130.51-97.23A136.25,136.25,0,0,1,223.31,242.1Z"/><path class="cls-1" d="M34.77,450,0,430.11l52-29.79L86.8,420.21Z"/><path class="cls-4" d="M35.5,409.9,6.7,393.27l28.8-16.62,28.79,16.62Z"/><path class="cls-9" d="M35.5,443.14,6.7,426.52V393.27L35.5,409.9Z"/><path class="cls-3" d="M64.29,426.51,35.5,443.14V409.9l28.79-16.63v33.24Z"/><g id="Men_5" data-name="Men 5"><path class="cls-10" d="M74.19,416.06a9.84,9.84,0,0,0,7.42-.89c1.78,0,11.51-4.11,12.79-.62,1.15,3.05-3,5.88-5.29,6.4-4.9,1.19-8.52,3.63-10.49,4-1.47.31-3.37.51-4.53-.64C72.7,423,72.82,417.88,74.19,416.06Z"/><path class="cls-11" d="M78.63,424.18c2-.43,5.59-2.86,10.49-4.05,1.88-.46,5.12-2.56,5.45-5,.43,2.8-3.35,5.3-5.45,5.81-4.9,1.19-8.52,3.63-10.49,4-1.47.31-3.36.51-4.53-.64a3,3,0,0,1-.64-1.18A5.84,5.84,0,0,0,78.63,424.18Z"/><path class="cls-10" d="M56.71,406.75a9.82,9.82,0,0,0,7.41-.89c1.78,0,11.52-4.11,12.8-.62,1.16,3.06-3,5.89-5.29,6.4-4.9,1.19-8.52,3.63-10.49,4-1.47.31-3.36.51-4.52-.64C55.21,413.69,55.34,408.57,56.71,406.75Z"/><path class="cls-11" d="M61.14,414.86c2-.41,5.59-2.85,10.49-4,1.88-.46,5.12-2.56,5.45-5,.44,2.81-3.35,5.29-5.45,5.81-4.9,1.19-8.52,3.63-10.49,4-1.47.31-3.36.51-4.52-.64A2.89,2.89,0,0,1,56,413.9,5.89,5.89,0,0,0,61.14,414.86Z"/><path class="cls-5" d="M29.42,394.68c7.56,3.32,14.7,3.83,20.53.71l6-3.48c.35,7.78.7,15.25.7,15.25s4.62,3.5,8.21.38c0,0,.76-10.92,1.52-21.65l6.36-3.69a8,8,0,0,0-.23,1.76c0,2,1.46,32.36,1.46,32.36s4.66,2.77,8.25-.35c0,0,2.42-35.14,3-40.75.63-6.31-6.39-9.42-10.82-7.8L67.63,370c.14-1.76.26-3.13.33-3.9.63-6.32-6.39-9.42-10.81-7.81-4,1.47-31.32,11.7-31.32,11.7a68.6,68.6,0,0,0,1,7.83L16,376.88C15.35,387,21.91,391.35,29.42,394.68ZM48.3,377.21,55.52,373a9.1,9.1,0,0,0-.25,1.55Z"/><path class="cls-12" d="M10.09,346.12s.89,13.42,2.65,15.35,7.68,3.25,7.68,3.25L25,372.27s-4.19-24-5.12-24.55S10.09,346.12,10.09,346.12Z"/><path id="_Контур_" data-name=" Контур " class="cls-13" d="M18.91,331.23a5.06,5.06,0,0,0-6.4,1.93c-1.68,2.79-3.43,12.37-3.56,14,0,0,2.37,3.27,5.91,2.72Z"/><path id="_Контур" data-name=" Контур" class="cls-12" d="M20.47,331.4c2.31.11,4,.71,4.32,0a31.93,31.93,0,0,0,.54-3.62c-.27-.67-.5-1.4-.5-1.4-2.92-1.79-3.84-4.94-4.21-8.59-.65-6.26,2.72-11.75,9-12.4,5.89-.61,10.24,3.52,11.38,9.2.62,2.81,1.86,8.11.19,12.71-.94,2.56-2.15,4.63-3.35,5a26.94,26.94,0,0,1-3.48-.31c-1.15-.17-.31,1.74-.53,2.87s-.13,1.7,2.09,3.07-3.35,4.18-7,3.9S21.12,339.39,20,337C18.82,334.43,18.92,331.32,20.47,331.4Z"/><g id="_Группа_" data-name=" Группа "><g id="_Группа" data-name=" Группа"><g id="_Группа-2" data-name=" Группа"><path id="_Контур-2" data-name=" Контур" class="cls-14" d="M79.22,372.42a1.88,1.88,0,0,1-.93,1.62L60.62,384.28a1.91,1.91,0,0,1-1.88,0L34,370a1.87,1.87,0,0,1-.94-1.63v-.19Z"/><path id="_Контур-3" data-name=" Контур" class="cls-14" d="M78.29,374,60.62,384.28a2,2,0,0,1-.95.24V372.45H79.22A1.9,1.9,0,0,1,78.29,374Z"/><g id="_Группа-3" data-name=" Группа"><path id="_Контур-4" data-name=" Контур" class="cls-15" d="M60.34,383.32a1.32,1.32,0,0,1-1.28,0l-25.8-14.87c-.33-.18-.33-.48,0-.68L52.2,356.82l27,15.6Z"/></g><g id="_Группа-4" data-name=" Группа"><path id="_Контур-5" data-name=" Контур" class="cls-16" d="M43.85,372.42l.13.06,8.25,4.77,4.53-2.62.12-.06-8.37-4.84Z"/><path id="_Контур-6" data-name=" Контур" class="cls-14" d="M44,372.48l8.25,4.77,4.53-2.62-8.25-4.76Z"/></g><path class="cls-17" d="M72.22,373.25l1.19.69a.44.44,0,0,0,.39,0l1.13-.65c.12,0,.12-.17,0-.22l-1.19-.69a.42.42,0,0,0-.38,0l-1.13.65C72.15,373,72.13,373.12,72.22,373.25Z"/><path class="cls-17" d="M70.55,372.22l1.19.69a.47.47,0,0,0,.37,0l1.14-.66c.11-.06.12-.16,0-.21l-1.19-.69a.37.37,0,0,0-.38,0l-1.13.65C70.46,372.06,70.44,372.15,70.55,372.22Z"/><path class="cls-17" d="M68.86,371.24l1.19.69a.42.42,0,0,0,.38,0l1.13-.65c.11-.06.12-.17,0-.22l-1.19-.69a.44.44,0,0,0-.39,0l-1.14.65A.14.14,0,0,0,68.86,371.24Z"/><path class="cls-17" d="M67.18,370.27l1.19.69a.4.4,0,0,0,.37,0l1.14-.65c.12-.07.13-.17,0-.22l-1.19-.69a.42.42,0,0,0-.38,0l-1.13.65C67.09,370.12,67.08,370.2,67.18,370.27Z"/><path class="cls-17" d="M65.49,369.3l1.19.69a.4.4,0,0,0,.37,0l1.14-.65c.12-.07.13-.17,0-.22L67,368.43a.4.4,0,0,0-.37,0l-1.14.65C65.4,369.15,65.39,369.23,65.49,369.3Z"/><path class="cls-17" d="M63.8,368.33,65,369a.53.53,0,0,0,.39,0l1.14-.66c.1-.06.11-.16,0-.21l-1.19-.69a.39.39,0,0,0-.39,0l-1.14.65C63.73,368.13,63.72,368.26,63.8,368.33Z"/><path class="cls-17" d="M62.13,367.35l1.19.69a.4.4,0,0,0,.37,0l1.14-.65c.11,0,.13-.17,0-.22l-1.19-.69a.42.42,0,0,0-.38,0l-1.13.65C62,367.2,62,367.29,62.13,367.35Z"/><path class="cls-17" d="M60.44,366.38l1.19.69a.42.42,0,0,0,.38,0l1.13-.65c.12-.06.13-.17,0-.22L62,365.51a.4.4,0,0,0-.37,0l-1.14.65C60.35,366.23,60.34,366.32,60.44,366.38Z"/><path class="cls-17" d="M58.75,365.41l1.19.69a.44.44,0,0,0,.39,0l1.13-.65c.11-.07.12-.17,0-.22l-1.19-.69a.42.42,0,0,0-.38,0l-1.14.65C58.68,365.26,58.66,365.34,58.75,365.41Z"/><path class="cls-17" d="M57.08,364.44l1.19.69a.47.47,0,0,0,.37,0l1.14-.66c.11-.06.12-.16,0-.21l-1.19-.69a.4.4,0,0,0-.37,0l-1.14.66C57,364.3,57,364.37,57.08,364.44Z"/><path class="cls-17" d="M55.39,363.47l1.19.69a.5.5,0,0,0,.38,0l1.13-.66c.11-.06.13-.16,0-.21l-1.19-.69a.4.4,0,0,0-.37,0l-1.14.66C55.3,363.31,55.29,363.4,55.39,363.47Z"/><path class="cls-17" d="M53.73,362.49l1.18.69a.44.44,0,0,0,.39,0l1.14-.65c.1-.06.11-.17,0-.22l-1.19-.69a.53.53,0,0,0-.39,0l-1.12.67C53.62,362.34,53.61,362.43,53.73,362.49Z"/><path class="cls-17" d="M52,361.52l1.19.68a.4.4,0,0,0,.37,0l1.14-.66c.12,0,.13-.16,0-.21l-1.19-.69a.4.4,0,0,0-.37,0L52,361.3C51.93,361.37,51.92,361.46,52,361.52Z"/><path class="cls-17" d="M49.53,360.08l2,1.15a.44.44,0,0,0,.39,0l1.12-.65c.12-.07.13-.17,0-.22l-2-1.15a.35.35,0,0,0-.37,0l-1.14.65a.12.12,0,0,0,0,.22Z"/><path class="cls-17" d="M68.1,372.69l1.19.68a.4.4,0,0,0,.37,0l1.14-.66c.12-.06.13-.16,0-.21l-1.19-.69a.42.42,0,0,0-.38,0l-1.13.66A.12.12,0,0,0,68.1,372.69Z"/><path class="cls-17" d="M66.41,371.71l1.19.68a.37.37,0,0,0,.38,0l1.13-.65c.12-.06.13-.17,0-.22l-1.19-.69a.47.47,0,0,0-.37,0l-1.14.67C66.33,371.56,66.31,371.65,66.41,371.71Z"/><path class="cls-17" d="M64.73,370.69l1.19.68a.4.4,0,0,0,.37,0l1.14-.65c.11-.07.12-.17,0-.22l-1.19-.69a.42.42,0,0,0-.38,0l-1.13.65C64.64,370.58,64.62,370.69,64.73,370.69Z"/><path class="cls-17" d="M63,369.76l1.19.69a.42.42,0,0,0,.38,0l1.13-.65c.11-.07.12-.17,0-.22l-1.19-.69a.4.4,0,0,0-.37,0l-1.14.65C63,369.61,62.94,369.71,63,369.76Z"/><path class="cls-17" d="M61.4,368.8l1.19.69a.42.42,0,0,0,.38,0l1.13-.65c.11,0,.13-.17,0-.22l-1.19-.69a.37.37,0,0,0-.38,0l-1.14.65C61.29,368.64,61.27,368.73,61.4,368.8Z"/><path class="cls-17" d="M59.67,367.83l1.19.68a.44.44,0,0,0,.39,0l1.13-.66c.11,0,.12-.16,0-.21L61.2,367a.44.44,0,0,0-.39,0l-1.14.66A.13.13,0,0,0,59.67,367.83Z"/><path class="cls-17" d="M58,366.85l1.19.68a.39.39,0,0,0,.39,0l1.14-.65c.11-.06.11-.17,0-.22L59.51,366a.45.45,0,0,0-.39,0l-1.12.65C57.91,366.7,57.9,366.85,58,366.85Z"/><path class="cls-17" d="M56.28,365.87l1.19.69a.4.4,0,0,0,.37,0l1.14-.65c.12-.07.13-.17,0-.22L57.79,365a.42.42,0,0,0-.38,0l-1.13.65C56.28,365.72,56.21,365.82,56.28,365.87Z"/><path class="cls-17" d="M54.62,364.9l1.19.69a.48.48,0,0,0,.37,0l1.14-.66c.11-.07.13-.16,0-.23L56.13,364a.35.35,0,0,0-.37,0l-1.14.65C54.53,364.74,54.52,364.85,54.62,364.9Z"/><path class="cls-17" d="M52.93,363.93l1.19.69a.47.47,0,0,0,.37,0l1.14-.67c.12-.06.13-.15,0-.22l-1.19-.67a.35.35,0,0,0-.37,0l-1.14.65C52.84,363.77,52.83,363.88,52.93,363.93Z"/><path class="cls-17" d="M51.24,363l1.19.69a.44.44,0,0,0,.39,0l1.12-.67c.12,0,.13-.15,0-.21l-1.19-.7a.47.47,0,0,0-.37,0l-1.14.66C51.17,362.8,51.17,362.9,51.24,363Z"/><path class="cls-17" d="M49.56,362l1.18.69a.44.44,0,0,0,.39,0l1.12-.65c.12-.07.13-.17,0-.22l-1.19-.69a.42.42,0,0,0-.38,0l-1.14.65C49.47,361.83,49.45,361.93,49.56,362Z"/><path class="cls-17" d="M69.78,373.66l2,1.15a.35.35,0,0,0,.37,0l1.14-.65c.11-.06.12-.17,0-.22l-2-1.16a.42.42,0,0,0-.38,0l-1.13.65C69.7,373.51,69.69,373.61,69.78,373.66Z"/><path class="cls-17" d="M49.41,360.13l1.19.69c.11,0,.11.14,0,.19l-1.2.7a.4.4,0,0,1-.34,0l-.11-.06a.36.36,0,0,0-.32,0l-1.28.74a.43.43,0,0,1-.35,0l-.76-.44c-.1-.06-.1-.15,0-.2l1.19-.69.24-.14.36-.21,1-.58A.32.32,0,0,1,49.41,360.13Z"/><path class="cls-17" d="M65.7,377l1.19.69a.4.4,0,0,0,.37,0L68.4,377c.11,0,.13-.15,0-.21l-1.19-.68a.44.44,0,0,0-.39,0l-1.12.65C65.61,376.8,65.6,376.9,65.7,377Z"/><path class="cls-17" d="M64,376l1.19.69a.42.42,0,0,0,.38,0l1.14-.66c.1,0,.12-.16,0-.21l-1.19-.69a.42.42,0,0,0-.38,0l-1.14.65Z"/><path class="cls-17" d="M62.33,375l1.19.67a.39.39,0,0,0,.39,0L65,375c.12-.06.13-.17,0-.22l-1.19-.69a.47.47,0,0,0-.37,0l-1.14.67A.12.12,0,0,0,62.33,375Z"/><path class="cls-17" d="M48,366.75l1.19.69a.44.44,0,0,0,.39,0l1.12-.66c.12-.06.13-.15,0-.22l-1.19-.68a.42.42,0,0,0-.38,0l-1.14.66A.12.12,0,0,0,48,366.75Z"/><path class="cls-17" d="M46.36,365.78l1.19.69a.4.4,0,0,0,.37,0l1.14-.65c.11-.07.12-.17,0-.22l-1.19-.69a.4.4,0,0,0-.37,0l-1.14.65A.12.12,0,0,0,46.36,365.78Z"/><path class="cls-17" d="M44.68,364.82l1.19.68a.4.4,0,0,0,.37,0l1.14-.65c.12-.07.13-.17,0-.22l-1.19-.69a.42.42,0,0,0-.38,0l-1.13.67C44.59,364.67,44.58,364.76,44.68,364.82Z"/><path class="cls-17" d="M43,363.85l1.19.69a.44.44,0,0,0,.39,0l1.13-.65c.11-.07.12-.17,0-.22L44.52,363a.45.45,0,0,0-.39,0l-1.14.65C42.92,363.7,42.9,363.79,43,363.85Z"/><path class="cls-17" d="M60.22,373.79l1.63.94a.4.4,0,0,0,.37,0l1.14-.65c.11-.06.13-.16,0-.22l-1.63-.93a.4.4,0,0,0-.37,0l-1.14.65A.11.11,0,0,0,60.22,373.79Z"/><path class="cls-17" d="M49.71,367.72l1.62.94a.45.45,0,0,0,.39,0l1.14-.65c.1-.07.11-.17,0-.22l-1.6-.94a.53.53,0,0,0-.39,0l-1.12.66C49.63,367.57,49.62,367.67,49.71,367.72Z"/><path class="cls-17" d="M51.82,368.94l7.92,4.57a.4.4,0,0,0,.37,0l1.14-.66c.11-.06.12-.16,0-.21l-7.91-4.57a.42.42,0,0,0-.38,0l-1.13.65C51.74,368.79,51.73,368.89,51.82,368.94Z"/><path class="cls-17" d="M66,373.37l1.18.67a.39.39,0,0,0,.39,0l1.14-.65c.1-.06.11-.16,0-.22l-1.19-.69a.53.53,0,0,0-.39,0l-1.13.67C65.93,373.25,65.92,373.25,66,373.37Z"/><path class="cls-17" d="M64.33,372.39l1.19.69a.4.4,0,0,0,.37,0l1.14-.65c.11,0,.13-.16,0-.22l-1.19-.69a.4.4,0,0,0-.37,0l-1.14.66C64.24,372.24,64.23,372.33,64.33,372.39Z"/><path class="cls-17" d="M62.68,371.42l1.19.69a.42.42,0,0,0,.38,0l1.14-.65c.1-.06.12-.16,0-.22l-1.19-.69a.5.5,0,0,0-.38,0l-1.14.66C62.56,371.27,62.55,371.37,62.68,371.42Z"/><path class="cls-17" d="M61,370.45l1.18.69a.42.42,0,0,0,.38,0l1.13-.65c.12-.07.13-.16,0-.22l-1.19-.69a.4.4,0,0,0-.37,0l-1.13.65C60.88,370.3,60.86,370.4,61,370.45Z"/><path class="cls-17" d="M59.28,369.48l1.19.69a.5.5,0,0,0,.38,0L62,369.5c.1-.06.11-.15,0-.22l-1.19-.67a.37.37,0,0,0-.38,0l-1.14.65A.13.13,0,0,0,59.28,369.48Z"/><path class="cls-17" d="M57.56,368.51l1.19.69a.47.47,0,0,0,.37,0l1.14-.67c.12-.06.13-.15,0-.22l-1.19-.67a.35.35,0,0,0-.37,0l-1.14.65Z"/><path class="cls-17" d="M55.91,367.53l1.19.69a.44.44,0,0,0,.39,0l1.13-.66c.11-.06.12-.15,0-.22l-1.19-.68a.42.42,0,0,0-.38,0l-1.14.66C55.84,367.38,55.82,367.48,55.91,367.53Z"/><path class="cls-17" d="M54.24,366.56l1.19.69a.4.4,0,0,0,.37,0l1.14-.65c.11-.07.12-.17,0-.23l-1.19-.68a.4.4,0,0,0-.37,0l-1.14.65C54.15,366.41,54.13,366.51,54.24,366.56Z"/><path class="cls-17" d="M52.55,365.57l1.19.7a.5.5,0,0,0,.38,0l1.14-.66c.1,0,.12-.16,0-.21l-1.19-.69a.37.37,0,0,0-.38,0l-1.14.65C52.45,365.43,52.45,365.57,52.55,365.57Z"/><path class="cls-17" d="M50.87,364.63l1.19.68a.4.4,0,0,0,.37,0l1.14-.66c.12,0,.13-.16,0-.21l-1.19-.69a.4.4,0,0,0-.37,0l-1.14.65A.13.13,0,0,0,50.87,364.63Z"/><path class="cls-17" d="M49.18,363.66l1.19.67a.39.39,0,0,0,.39,0l1.14-.65c.1-.06.11-.16,0-.22l-1.19-.69a.53.53,0,0,0-.39,0l-1.14.66A.14.14,0,0,0,49.18,363.66Z"/><path class="cls-17" d="M47.51,362.69l1.19.67a.35.35,0,0,0,.37,0l1.14-.65c.11-.06.13-.16,0-.22L49,361.8a.47.47,0,0,0-.37,0l-1.14.67A.12.12,0,0,0,47.51,362.69Z"/><path class="cls-17" d="M67.69,374.34l2.46,1.47a.42.42,0,0,0,.38,0l1.13-.65c.11-.07.13-.16,0-.22l-2.46-1.42a.4.4,0,0,0-.37,0l-1.14.67C67.6,374.19,67.59,374.28,67.69,374.34Z"/><path class="cls-17" d="M65.24,374.78l1.19.7a.47.47,0,0,0,.37,0l1.14-.67c.11,0,.12-.15,0-.22l-1.19-.67a.35.35,0,0,0-.37,0l-1.14.61C65.12,374.63,65.11,374.73,65.24,374.78Z"/><path class="cls-17" d="M63.52,373.81l1.19.7a.53.53,0,0,0,.39,0l1.14-.67c.1-.06.11-.15,0-.22l-1.19-.68a.44.44,0,0,0-.39,0l-1.12.66C63.45,373.66,63.43,373.76,63.52,373.81Z"/><path class="cls-17" d="M61.85,372.84l1.19.69a.4.4,0,0,0,.37,0l1.14-.65c.11-.08.12-.17,0-.23L63.36,372a.4.4,0,0,0-.37,0l-1.14.65C61.76,372.69,61.75,372.79,61.85,372.84Z"/><path class="cls-17" d="M60.12,371.87l1.19.69a.42.42,0,0,0,.38,0l1.14-.65c.12-.07.12-.17,0-.22L61.64,371a.37.37,0,0,0-.38,0l-1.13.65A1.7,1.7,0,0,0,60.12,371.87Z"/><path class="cls-17" d="M58.48,370.9l1.19.69a.44.44,0,0,0,.39,0l1.12-.65c.12-.07.13-.17,0-.22L60,370a.4.4,0,0,0-.37,0l-1.14.65C58.39,370.69,58.38,370.85,58.48,370.9Z"/><path class="cls-17" d="M56.8,369.94l1.18.68a.44.44,0,0,0,.39,0l1.14-.66c.11-.06.12-.16,0-.21l-1.19-.7a.53.53,0,0,0-.39,0l-1.12.67A.12.12,0,0,0,56.8,369.94Z"/><path class="cls-17" d="M55.12,369l1.19.68a.42.42,0,0,0,.38,0l1.13-.66c.11-.06.13-.16,0-.21l-1.19-.7a.47.47,0,0,0-.37,0l-1.14.67C55,368.81,55,368.9,55.12,369Z"/><path class="cls-17" d="M53.44,368l1.19.68a.35.35,0,0,0,.37,0l1.14-.65c.12,0,.13-.17,0-.22L55,367.11a.42.42,0,0,0-.38,0l-1.13.67C53.35,367.84,53.34,367.93,53.44,368Z"/><path class="cls-17" d="M51.76,367l1.18.69a.44.44,0,0,0,.39,0l1.12-.65c.12-.07.13-.17,0-.22l-1.19-.69a.42.42,0,0,0-.38,0l-1.14.65A.12.12,0,0,0,51.76,367Z"/><path class="cls-17" d="M50.08,366.05l1.19.69a.4.4,0,0,0,.37,0l1.14-.65c.11-.06.13-.17,0-.22l-1.19-.69a.42.42,0,0,0-.38,0l-1.13.65C50,365.9,50,366,50.08,366.05Z"/><path class="cls-17" d="M48.39,365.08l1.19.69a.42.42,0,0,0,.38,0l1.13-.67c.12-.06.13-.15,0-.21l-1.19-.68a.37.37,0,0,0-.38,0l-1.14.65A.13.13,0,0,0,48.39,365.08Z"/><path class="cls-17" d="M44.63,362.9l3.27,1.89a.42.42,0,0,0,.38,0l1.13-.66c.12-.07.13-.15,0-.22L46.14,362a.4.4,0,0,0-.37,0l-1.14.65C44.54,362.75,44.53,362.85,44.63,362.9Z"/><path class="cls-17" d="M66.89,375.81l1.62.93a.39.39,0,0,0,.39,0l1.12-.65c.12-.06.13-.16,0-.22l-1.62-.94a.44.44,0,0,0-.39,0l-1.14.65C66.81,375.61,66.8,375.71,66.89,375.81Z"/></g><g id="_Группа-5" data-name=" Группа"><g id="_Группа-6" data-name=" Группа"><g id="_Группа-7" data-name=" Группа"><path id="_Контур-7" data-name=" Контур" class="cls-14" d="M79.22,372.42l-27-15.6V335.6l.2-.48.23-.1a1.82,1.82,0,0,1,1.86,0l24.7,14.26a1.87,1.87,0,0,1,.93,1.61v19.92C80,371.83,79.79,372.09,79.22,372.42Z"/><path id="_Контур-8" data-name=" Контур" class="cls-14" d="M76.75,351.84,52.23,336.31v-.71l.2-.48.23-.1a1.82,1.82,0,0,1,1.86,0l24.7,14.26a1.87,1.87,0,0,1,.72.73Z"/><path id="_Контур-9" data-name=" Контур" class="cls-18" d="M52.86,335.12l25.91,15a.91.91,0,0,1,.45.78v21.56l-27-15.6V335.48a.42.42,0,0,1,.63-.36Z"/><path id="_Контур-10" data-name=" Контур" class="cls-15" d="M52.86,335.12l25.91,15a.91.91,0,0,1,.45.78v21.56l-27-15.6V335.48a.42.42,0,0,1,.63-.36Z"/><path id="_Контур-11" data-name=" Контур" class="cls-19" d="M79.22,372.42v-.78l-27-15.58v.76Z"/></g><path id="_Контур-12" data-name=" Контур" class="cls-20" d="M52.93,355.7V336.23l.32.19v19.12Z"/><path id="_Контур-13" data-name=" Контур" class="cls-17" d="M53.25,336.43v19.11L78.36,370V350.92Z"/><path id="_Контур-14" data-name=" Контур" class="cls-21" d="M52.93,355.7l25.43,14.67V370L53.25,355.54Z"/></g></g></g></g><path id="_Контур-15" data-name=" Контур" class="cls-15" d="M23.87,331.74c-.64,1.6,1,3.56,5.33,4.93s4.75-.39,4.75-.39a89,89,0,0,1,8.47,4.35c2.56,1.83,3.76,7.11,4.12,16C47,367,47,382.25,46.64,385c0,0-4.89,4.86-11.13,4.35s-16.76-6-19.32-10.31c.08-9.05,1.13-10.52-.33-15.74-3.35-11.94-5.11-16.82-3.49-24.76,1.34-6.53,3.22-7.35,5.81-7.29A54.47,54.47,0,0,1,23.87,331.74Z"/><path id="_Контур-16" data-name=" Контур" class="cls-12" d="M56.81,367.74c-5.12,1.28-6.33-1.95-7-4.62-1.63-6.48-2.56-12.33-3.72-16-1.44-4.34-2.93-5-5-5.88-2.47-1-4.61,1.1-3.78,6.62A110.11,110.11,0,0,0,42,366.7c.64,2,2.07,5.61,4.21,7.35,2.64,2.13,6.62,2,12.65.53,2.55-.64,5.39-2.17,10.23-4.44,1.28-.61,2.31-1,4.82-2.18a17.18,17.18,0,0,0,6.4-5c1.28-1.89,1.48-2.79,1.28-3.22s-.94-.42-1.64.37a13.29,13.29,0,0,1-3.68,3.41c-1.43.9,1.62-1.67,2.49-2.76a13.17,13.17,0,0,0,1.94-3.16c.46-1.11-.49-2.62-1.27-1.83s-1.08,1.6-2.41,3.19a14.09,14.09,0,0,1-2.37,2.26,24.61,24.61,0,0,0,2.19-3.52,5.79,5.79,0,0,0,.79-3.18c0-.58-.85-1.28-1.62-.17a20.89,20.89,0,0,1-2.75,4.21c-1.18,1.22-2.16,1.91-2.2,1.58s.72-1,1.13-2.42,0-2.92-.79-3.07-.62-.13-1.27,1.2a36.78,36.78,0,0,0-2.29,4.23,9,9,0,0,1-2.11,3.64c-1.22,1.33-4,2.81-8.88,4Z"/><path id="_Контур-17" data-name=" Контур" class="cls-13" d="M39.14,340.35c3.42-.51,5.84,1,7.36,6.22S49.06,356,49.06,356a9.35,9.35,0,0,1-5.75,3.84c-4.09,1-5.56-1-5.56-1s-1.14-5.44-1.84-9.13S34.91,341,39.14,340.35Z"/><path class="cls-17" d="M40.83,313.8s5.41-8.23-6.32-9.9C26.06,302.68,20.63,308.12,20,314c-.61,5.63,2.86,11.52,5.37,13.79a10.23,10.23,0,0,0,7.3-.88,41.6,41.6,0,0,0,.16-4.6C32.8,320.78,28.72,313.64,40.83,313.8Z"/></g><path class="cls-3" d="M64.29,417.84v-24.7L44.68,404.59l7.55,15.62Z"/><path class="cls-4" d="M51.44,394.56,59,390.2l5.33,3.07-7.8,4.43Z"/><ellipse class="cls-3" cx="212.06" cy="320.54" rx="3.68" ry="2.12"/></g></g></g></svg>