<svg id="Livello_1" data-name="Livello 1" xmlns="http://www.w3.org/2000/svg" viewBox="0 0 773.85 100"><defs><style>.cls-1{fill:#fff;}</style></defs><g id="Layer_2" data-name="Layer 2"><g id="Layer_2-2" data-name="Layer 2-2"><path class="cls-1" d="M572.17,491.81h47.58c31.35,0,51.56,17.94,51.56,46.72s-20.7,49-52,49H572.17V491.81Zm45.13,78.26c18.19,0,28.35-12.93,28.35-31.3s-10.41-29.57-28.23-29.57H596.66v60.87Z" transform="translate(-572.17 -489.78)"/><path class="cls-1" d="M677.37,569a17.06,17.06,0,0,1,7.54-14.82,49.26,49.26,0,0,1,23.33-6.49l24.49-2.15v-2c-.12-7.53-5.08-10.9-14-10.9s-14.57,3.68-15.37,10.23h-24c1.78-15.19,16.85-24.5,39.38-24.5,25.72,0,37.29,9.31,37.29,29v20.76a94.52,94.52,0,0,0,1.6,19.65h-23a60.12,60.12,0,0,1-.92-11.45c-4.35,8.51-14.82,13.47-28.84,13.47-17-.3-27.5-8.14-27.5-20.75ZM733,560.51v-4L715,558.37c-9.86,1.22-13.71,3.92-13.71,9s4.71,8.09,12.24,8.09C725.26,575.52,733,569.39,733,560.51Z" transform="translate(-572.17 -489.78)"/><path class="cls-1" d="M760.35,520.4h15.13V504.05l23.27-8.63v25h22.1v15h-22.1V558.8c0,7.9,4.22,11.7,12.67,11.7a34.8,34.8,0,0,0,9.31-1.11v17.52a54.22,54.22,0,0,1-15.62,2c-20.2,0-29.64-8.45-29.64-25.17V535.35H760.35v-15Z" transform="translate(-572.17 -489.78)"/><path class="cls-1" d="M826.55,569a16.9,16.9,0,0,1,7.53-14.82,49.29,49.29,0,0,1,23.27-6.49l24.49-2.15v-2c0-7.53-5-11.21-13.9-11.21s-14.57,3.68-15.37,10.23h-24c1.71-15.19,16.84-24.49,39.31-24.49,25.72,0,37.29,9.3,37.29,29V567.8a90.28,90.28,0,0,0,1.66,20h-23a60.17,60.17,0,0,1-1-11.45c-4.28,8.51-14.82,13.47-28.84,13.47-17-.3-27.43-8.14-27.43-20.75Zm55.6-8.52v-4l-18.07,1.9c-9.79,1.22-13.71,3.92-13.71,9s4.71,8.09,12.25,8.09C874.37,575.52,882.15,569.39,882.15,560.51Z" transform="translate(-572.17 -489.78)"/><path class="cls-1" d="M909.65,520.4h22.78l11.14,41.22a54.56,54.56,0,0,1,1.23,6.73,48.35,48.35,0,0,1,1.47-6.73l13.22-41.22h21.56L994,561.62a36.91,36.91,0,0,1,1.47,6.73,51.39,51.39,0,0,1,1.35-6.73l11.32-41.22H1031l-22.23,67.36H984.84l-13-39.74a39.14,39.14,0,0,1-1.35-6.61h-.3a27.84,27.84,0,0,1-1.47,6.61l-13,39.74H931.75l-22.1-67.36Z" transform="translate(-572.17 -489.78)"/><path class="cls-1" d="M1031.44,569a17.06,17.06,0,0,1,7.54-14.82,49.26,49.26,0,0,1,23.33-6.49l24.49-2.15v-2c-.24-7.53-5-10.9-13.9-10.9s-14.51,3.68-15.31,10.23h-24c1.71-15.19,16.84-24.5,39.31-24.5,25.78,0,37.36,9.31,37.36,29v20.76a93.84,93.84,0,0,0,1.59,19.65h-23a60.12,60.12,0,0,1-.92-11.45c-4.34,8.51-14.88,13.47-28.84,13.47-17-.3-27.62-8.14-27.62-20.75Zm55.67-8.52v-4l-18.37,1.9c-9.86,1.22-13.78,3.92-13.78,9s5.14,8.15,13.23,8.15c11.2,0,19-6.13,19-15Z" transform="translate(-572.17 -489.78)"/><rect class="cls-1" x="554.62" width="23.33" height="97.98"/><rect class="cls-1" x="596.39" width="23.33" height="97.98"/><path class="cls-1" d="M1284.29,558.92h-58.73c.8,9.13,8.45,14.82,20.33,14.82a21.89,21.89,0,0,0,19.54-9.86l17.39,8c-7,11.21-20.21,17.64-37.6,17.64-26,0-41.89-13.05-41.89-35.15s15.87-36.25,40.79-36.25,40.17,13.22,40.17,35.45v5.39ZM1261.39,546c0-9.19-6.86-14.7-17.52-14.7s-17.76,5.64-18.37,15.07h36l-.06-.37Z" transform="translate(-572.17 -489.78)"/><path class="cls-1" d="M1285.52,520.4h15.37V504.05l23-8.63v25H1346v15h-22.11V558.8c0,7.9,4.17,11.7,12.68,11.7a34.8,34.8,0,0,0,9.31-1.11v17.52a54.63,54.63,0,0,1-15.68,2c-20.21,0-29.64-8.45-29.64-25.17V535.35h-15.06v-15Z" transform="translate(-572.17 -489.78)"/></g></g></svg>