<svg fill="#ffffff" xmlns="http://www.w3.org/2000/svg"  viewBox="0 0 64 64" width="64px" height="64px"><path d="M 31 2 C 15.011719 2 2 15.011719 2 31 C 2 46.988281 15.011719 60 31 60 C 46.988281 60 60 46.988281 60 31 C 60 15.011719 46.988281 2 31 2 Z M 31 4 C 45.886719 4 58 16.113281 58 31 C 58 45.886719 45.886719 58 31 58 C 16.113281 58 4 45.886719 4 31 C 4 16.113281 16.113281 4 31 4 Z M 30.5625 8.007813 C 24.671875 8.125 18.960938 10.507813 14.734375 14.734375 C 5.769531 23.703125 5.769531 38.292969 14.734375 47.261719 C 14.929688 47.457031 15.1875 47.554688 15.441406 47.554688 C 15.699219 47.554688 15.957031 47.457031 16.152344 47.261719 C 16.542969 46.871094 16.542969 46.238281 16.152344 45.847656 C 7.960938 37.660156 7.964844 24.339844 16.152344 16.152344 C 20.898438 11.402344 27.699219 9.199219 34.339844 10.265625 C 34.882813 10.355469 35.394531 9.980469 35.484375 9.4375 C 35.574219 8.890625 35.199219 8.375 34.65625 8.289063 C 33.289063 8.070313 31.921875 7.976563 30.5625 8.007813 Z M 38.65625 9.382813 C 38.269531 9.402344 37.910156 9.648438 37.765625 10.035156 C 37.570313 10.554688 37.832031 11.128906 38.351563 11.324219 C 39.0625 11.589844 39.765625 11.894531 40.453125 12.238281 C 40.597656 12.3125 40.75 12.347656 40.902344 12.347656 C 41.265625 12.347656 41.617188 12.148438 41.796875 11.796875 C 42.042969 11.308594 41.84375 10.703125 41.351563 10.453125 C 40.605469 10.078125 39.828125 9.738281 39.050781 9.445313 C 38.921875 9.398438 38.789063 9.378906 38.65625 9.382813 Z M 44.433594 12.675781 C 44.179688 12.707031 43.9375 12.835938 43.765625 13.050781 C 43.425781 13.488281 43.5 14.113281 43.9375 14.453125 C 44.605469 14.976563 45.25 15.550781 45.847656 16.152344 C 54.039063 24.339844 54.039063 37.660156 45.847656 45.847656 C 45.457031 46.242188 45.457031 46.871094 45.847656 47.265625 C 46.042969 47.457031 46.300781 47.558594 46.558594 47.558594 C 46.8125 47.558594 47.070313 47.457031 47.265625 47.265625 C 56.230469 38.296875 56.230469 23.703125 47.265625 14.734375 C 46.605469 14.078125 45.902344 13.453125 45.171875 12.878906 C 44.953125 12.710938 44.6875 12.644531 44.433594 12.675781 Z M 29 15 C 28.445313 15 28 15.445313 28 16 L 28 18 L 25 18 C 24.445313 18 24 18.445313 24 19 L 24 41 C 24 41.554688 24.445313 42 25 42 L 28 42 L 28 44 C 28 44.554688 28.445313 45 29 45 C 29.554688 45 30 44.554688 30 44 L 30 42 L 32 42 L 32 44 C 32 44.554688 32.445313 45 33 45 C 33.554688 45 34 44.554688 34 44 L 34 42 C 37.308594 42 40 39.308594 40 36 L 40 34 C 40 31.585938 38.566406 29.507813 36.507813 28.558594 C 37.429688 27.648438 38 26.390625 38 25 L 38 23 C 38 20.578125 36.269531 18.554688 33.980469 18.097656 C 33.984375 18.066406 34 18.035156 34 18 L 34 16 C 34 15.445313 33.554688 15 33 15 C 32.445313 15 32 15.445313 32 16 L 32 18 L 30 18 L 30 16 C 30 15.445313 29.554688 15 29 15 Z M 26 20 L 33 20 C 34.652344 20 36 21.347656 36 23 L 36 25 C 36 26.652344 34.652344 28 33 28 L 26 28 Z M 26 30 L 34 30 C 36.207031 30 38 31.792969 38 34 L 38 36 C 38 38.207031 36.207031 40 34 40 L 26 40 Z M 21.375 46.394531 C 20.984375 46.347656 20.589844 46.527344 20.386719 46.886719 L 19.386719 48.617188 C 19.109375 49.097656 19.273438 49.707031 19.75 49.984375 C 19.90625 50.074219 20.078125 50.117188 20.25 50.117188 C 20.59375 50.117188 20.929688 49.9375 21.113281 49.617188 L 22.113281 47.886719 C 22.390625 47.410156 22.230469 46.796875 21.75 46.519531 C 21.628906 46.453125 21.503906 46.410156 21.375 46.394531 Z M 40.625 46.394531 C 40.496094 46.410156 40.367188 46.453125 40.25 46.519531 C 39.769531 46.796875 39.609375 47.410156 39.886719 47.890625 L 40.886719 49.621094 C 41.070313 49.941406 41.40625 50.121094 41.75 50.121094 C 41.921875 50.121094 42.09375 50.074219 42.25 49.984375 C 42.730469 49.707031 42.890625 49.097656 42.613281 48.621094 L 41.613281 46.890625 C 41.40625 46.53125 41.011719 46.347656 40.625 46.394531 Z M 25.816406 48.34375 C 25.429688 48.398438 25.09375 48.675781 24.984375 49.078125 L 24.46875 51.011719 C 24.324219 51.542969 24.644531 52.089844 25.175781 52.234375 C 25.261719 52.257813 25.347656 52.265625 25.4375 52.265625 C 25.875 52.265625 26.28125 51.972656 26.402344 51.527344 L 26.921875 49.59375 C 27.0625 49.0625 26.746094 48.511719 26.214844 48.371094 C 26.078125 48.332031 25.945313 48.324219 25.816406 48.34375 Z M 36.1875 48.34375 C 36.058594 48.324219 35.921875 48.332031 35.785156 48.371094 C 35.253906 48.511719 34.9375 49.0625 35.078125 49.59375 L 35.597656 51.527344 C 35.71875 51.972656 36.121094 52.265625 36.5625 52.265625 C 36.652344 52.265625 36.738281 52.257813 36.824219 52.234375 C 37.355469 52.089844 37.675781 51.542969 37.53125 51.011719 L 37.015625 49.078125 C 36.90625 48.675781 36.570313 48.398438 36.1875 48.34375 Z M 31 49 C 30.445313 49 30 49.445313 30 50 L 30 52 C 30 52.554688 30.445313 53 31 53 C 31.554688 53 32 52.554688 32 52 L 32 50 C 32 49.445313 31.554688 49 31 49 Z"/></svg>