<?xml version="1.0" encoding="UTF-8" standalone="no"?><!DOCTYPE svg PUBLIC "-//W3C//DTD SVG 1.1//EN" "http://www.w3.org/Graphics/SVG/1.1/DTD/svg11.dtd"><svg width="100%" height="100%" viewBox="0 0 442 434" version="1.1" xmlns="http://www.w3.org/2000/svg" xmlns:xlink="http://www.w3.org/1999/xlink" xml:space="preserve" xmlns:serif="http://www.serif.com/" style="fill-rule:evenodd;clip-rule:evenodd;stroke-linejoin:round;stroke-miterlimit:2;"><g id="marina_logo"><path d="M388.41,144.79c0,0 -0.613,-13.128 -0.552,-16.694c0.06,-3.566 -0.728,-4.699 1.425,-8.439c1.217,-2.114 2.829,-2.36 5.127,-2.864c2.549,-0.559 4.602,0.14 7.491,-1.526c2.888,-1.666 3.623,-2.429 3.848,-5.206c0.224,-2.777 -0.543,-3.829 -1.159,-5.955c-0.616,-2.127 -1.12,-3.032 0.81,-4.422c1.931,-1.389 2.512,-1.368 2.254,-2.56c-0.258,-1.192 -2.002,-0.936 -2.922,-3.27c-0.604,-1.533 0.61,-1.453 1.923,-2.583c1.09,-0.939 1.46,-1.142 0.632,-2.547c-0.828,-1.405 -1.696,-2.352 -2.678,-4.285c-0.981,-1.933 -1.247,-3.31 -0.36,-4.619c1.41,-2.083 0.012,-0.711 2.394,-2.483c2.382,-1.772 1.107,-3.866 0.644,-4.947c-0.464,-1.08 -2.727,-3.085 -4.64,-5.191c-1.913,-2.106 -5.156,-5.087 -7.455,-7.901c0.081,-4.991 0.442,-5.454 0.47,-9.121c0.028,-3.667 -0.437,-5.679 -1.53,-8.373c-1.092,-2.693 -6.633,-15.217 -8.468,-18.47c-1.836,-3.252 -49.158,26.716 -49.158,26.716l-18.002,38.055l3.839,37.999l27.445,13.445l26.865,6.318l11.757,-1.077Z"/><path d="M350.895,216.308c0,0 -1.048,-4.957 -3.688,-8.084c-2.641,-3.127 -3.292,-3.57 -6.73,-2.937c-3.439,0.633 -15.141,8.626 -19.802,11.448c-4.66,2.822 -26.051,15.386 -31.508,18.262c-5.457,2.876 -25.798,12.54 -30.654,14.439c-4.856,1.899 -24.006,8.927 -30.741,11.496c-6.734,2.57 -26.028,9.914 -32.283,12.821c-6.255,2.908 -15.809,6.16 -20.532,8.538c-4.723,2.378 -8.283,4.104 -14.288,6.974c-6.006,2.87 -5.913,1.946 -10.003,3.297c0,0 -5.753,1.431 -8.674,1.796c-2.922,0.366 -8.305,1.254 -10.198,0.966c-1.893,-0.287 -6.559,0.103 -7.637,-1.159c-1.077,-1.263 -2.264,-0.955 -0.948,-2.504c1.316,-1.548 2.695,-2.077 4.851,-2.279c2.155,-0.203 4.196,-0.773 6.343,-1.873c2.146,-1.099 2.671,-2.757 2.4,-4.556c-0.271,-1.798 -0.61,-2.152 -2.756,-2.866c-2.146,-0.715 -3.949,-1.249 -6.218,-1.617c-2.27,-0.368 -7.404,-0.452 -10.198,-0.277c-2.794,0.176 -6.768,0.566 -9.226,1.32c-2.459,0.754 -5.846,1.441 -7.77,2.482c-1.924,1.04 -6.83,2.874 -8.705,3.188c-1.874,0.314 -5.124,-0.67 -4.004,-2.986c1.119,-2.316 1.979,-3.925 5.216,-5.62c3.238,-1.695 6.625,-3.743 9.806,-5.047c3.182,-1.304 8.562,-2.825 11.3,-3.377c2.738,-0.552 6.645,-0.786 9.555,-0.193c2.911,0.593 8.713,1.759 11.417,2.877c2.705,1.118 6.498,2.296 9.832,3.554c3.335,1.257 5.266,1.292 8.105,1.38c2.84,0.088 7.368,-0.93 10.392,-1.913c3.024,-0.984 10.665,-5.026 13.889,-6.686c3.224,-1.66 20.961,-13.646 24.976,-15.68c4.015,-2.034 15.571,-10.274 18.736,-12.212c3.165,-1.938 15.91,-9.532 19.225,-11.6c3.314,-2.069 14.01,-8.198 18.744,-10.781c4.734,-2.582 12.541,-7.704 16.647,-10.41c4.107,-2.707 10.795,-6.642 15.404,-9.284c4.61,-2.642 12.7,-7.28 16.058,-9.48c3.358,-2.199 5.123,-3.037 8.844,-6.228c3.721,-3.192 6.245,-5.849 10.08,-8.07c3.835,-2.22 10.354,-4.297 10.354,-4.297l18.039,45.891l-3.65,1.287Z"/><path d="M98.202,23.158c5.532,-2.928 -16.78,11.623 -21.893,15.624c-5.114,4.001 -16.136,13.061 -22.5,22.467c-6.364,9.405 -20.159,26.304 -24.64,37.95c-4.482,11.647 -7.754,15.886 -11.095,26.727c-3.341,10.841 -4.429,19.073 -5.955,27.653c-1.525,8.58 -5.368,16.49 -7.385,27.023c0,0 -4.407,20.365 -3.957,34.071c0.449,13.707 -0.72,23.755 1.754,36.62c2.475,12.866 1.494,23.263 11.022,46.502c9.528,23.238 16.616,31.613 23.904,43.21c7.288,11.598 9.928,14.918 22.158,26.831c12.231,11.913 24.679,21.043 31.866,25.729c7.186,4.687 23.012,13.707 31.572,17.657c8.56,3.951 24.474,8.566 29.896,10.267c5.421,1.702 26.042,6.284 34.096,7.115c8.055,0.83 17.685,0.655 26.106,0.953c8.422,0.299 17.998,-0.564 30.047,-2.308c12.049,-1.744 28.948,-5.805 38.325,-8.638c9.378,-2.834 25.018,-10.668 31.855,-13.859c6.837,-3.191 23.128,-13.313 23.128,-13.313l-19.708,-95.29c0,0 -11.902,3.396 -18.599,3.234c-6.696,-0.162 -14.408,-1.104 -20.021,-0.825c-5.613,0.278 -20.316,2.036 -25.061,3.812c-4.744,1.776 -14.841,6.263 -19.121,8.926c-4.279,2.662 -16.537,12.453 -21.677,16.161c-5.141,3.708 -11.93,8.82 -17.038,10.327c-5.109,1.508 -14.614,4.47 -22.346,4.758c0,0 -19.494,-1.161 -30.267,-2.792c-10.773,-1.631 -23.474,-4.218 -31.064,-8.812c-7.591,-4.594 -25.087,-12.827 -34.89,-24.455c-9.803,-11.628 -18.384,-19.844 -25.607,-35.45c-7.224,-15.606 -8.394,-16.245 -12.888,-32.343c-4.495,-16.098 -5.88,-22.743 -6.71,-33.403c-0.831,-10.659 -0.734,-19.982 5.046,-28.244c5.78,-8.263 8.099,-10.595 15.518,-10.998c7.419,-0.403 10.047,-0.537 15.335,2.055c5.288,2.592 13.444,5.834 22.305,8.427c8.861,2.593 22.336,3.11 28.921,3.438c6.586,0.327 15.498,-0.413 22.801,-3.002c7.304,-2.588 14.727,-4.822 22.985,-8.881c8.257,-4.06 21.098,-12.06 25.166,-16.948c-8.424,-0.376 -7.681,1.432 -15.226,-2.261c-7.544,-3.694 -14.034,-6.207 -21.257,-11.908c-7.222,-5.702 -10.046,-6.754 -19.623,-11.334c-9.577,-4.579 -16.426,-5.019 -21.075,-5.287c-4.649,-0.269 -14.3,-0.305 -21.321,0.238c-7.021,0.542 -20.565,2.941 -25.429,5.318c7.352,-4.86 10.942,-8.056 19.218,-13.381c8.276,-5.324 12.515,-8.666 21.002,-16.342c8.487,-7.676 12.514,-14.694 17.364,-23.311c4.851,-8.618 5.481,-13.543 7.33,-22.281c1.848,-8.739 1.509,-12.373 4.268,-19.555c2.759,-7.182 5.802,-14.998 11.258,-22.577c-10.873,2.519 -12.907,2.051 -22.407,4.524c-9.5,2.473 -31.018,13.109 -25.486,10.181Z"/><path d="M303.81,298.964c0,0 7.235,-0.559 12.988,-2.815c5.753,-2.255 6.158,-0.507 12.809,-6.643c6.65,-6.136 8.653,-6.788 12.168,-14.019c3.514,-7.23 4.386,-8.309 6.241,-18.892c1.855,-10.582 0.936,-12.088 1.221,-21.608c0,0 -0.367,-5.246 -0.463,-11.748c-0.095,-6.503 -0.09,-9.149 -0.828,-12.838c-0.738,-3.689 -14.75,-32.298 -18.025,-38.915c-3.276,-6.618 -9.42,-42.756 -9.42,-42.756l17.123,-24.409c0,0 24.061,-4.391 29.693,-1.189c5.632,3.202 7.804,8.937 10.435,13.84c2.631,4.903 8.536,13.381 9.477,18.856c0.941,5.476 1.107,10.477 2.413,16.517c1.307,6.041 4.118,9.939 6.318,14.496c2.199,4.558 6.581,9.992 9.521,14.576c2.94,4.584 9.263,12.548 11.886,16.124c2.623,3.577 8.127,9.53 10.736,12.177c0,0 4.606,3.973 6.284,5.822c1.679,1.849 6.26,4.437 6.888,6.217c0.704,1.997 -0.804,7.038 -1.546,9.11c-0.742,2.072 -0.832,2.211 -4.706,8.718c-3.313,5.566 -7.028,6.98 -8.699,8.49c-1.671,1.51 -6.129,1.849 -8.242,3.755c-1.151,6.693 -1.209,7.717 -2.226,12.98c-1.017,5.263 -2.999,12.051 -4.003,15.709c-1.005,3.659 -4.953,15.477 -6.691,19.759c-1.738,4.282 -6.127,14.786 -7.395,17.644c-1.268,2.859 -9.462,16.49 -11.267,19.478c-1.804,2.988 -11.27,17.079 -14.154,20.331c-2.884,3.251 -13.065,14.585 -15.073,16.53c-2.007,1.945 -21.237,17.503 -24.835,19.672c-3.598,2.17 -28.628,-94.969 -28.628,-94.969Z"/><path d="M336.506,169.13c0,0 -25.728,10.615 -32.696,15.327c-6.967,4.713 -26.951,14.667 -40.555,20.83c0,0 -17.683,6.412 -25.839,9.399c-8.155,2.986 -27.429,8.62 -34.823,10.205c-7.394,1.585 -14.374,2.723 -19.463,2.153c-5.09,-0.569 -13.145,1.22 -17.606,-5.694c5.856,-0.532 2.986,0.325 9.943,-2.323c6.956,-2.649 8.436,-3.986 16.944,-8.193c8.507,-4.207 14.991,-8.758 20.691,-12.481c5.7,-3.723 9.481,-7.082 13.799,-10.551c4.318,-3.47 8.379,-6.938 9.037,-9.471c-4.432,0.312 -3.422,-1.107 -6.949,1.099c-3.528,2.206 -4.091,3.087 -11.192,3.344c-7.101,0.257 -9.955,-1.141 -16.563,-1.086c-6.608,0.056 -9.127,0.112 -14.163,1.461c-5.036,1.348 -6.004,0.903 -10.41,3.07c3.883,-6.439 3.384,-6.912 8.038,-10.767c4.653,-3.855 13.681,-9.701 19.69,-13.166c6.01,-3.466 10.075,-6.374 16.732,-9.065c6.657,-2.691 9.164,-4.643 14.309,-6.289c5.146,-1.646 13.721,-6.447 16.237,-8.821c-4.297,-0.549 -2.609,-0.621 -5.693,-0.129c-3.083,0.492 -11.004,0.051 -17.639,-0.705c-6.635,-0.757 -9.375,-1.692 -17.09,-3.442c-7.715,-1.751 -6.029,-3.193 -12.993,-2.649c-6.965,0.544 -12.571,-0.483 -19.746,-0.689c0,0 3.941,-5.163 9.795,-7.209c5.854,-2.046 11.615,-3.165 17.861,-3.74c6.245,-0.575 12.189,-1.486 17.728,-1.988c5.54,-0.502 12.149,-2.818 17.265,-4.856c5.116,-2.038 9.241,-4.544 12.815,-7.643c3.574,-3.099 8.443,-7.602 9.212,-9.318c0.769,-1.716 0.286,-3.506 -2.905,-2.366c-3.19,1.14 -5.184,1.996 -9.512,3.708c-4.328,1.711 -6.986,1.626 -10.964,1.296c-3.978,-0.331 -5.866,-0.618 -10.516,-1.635c-4.649,-1.018 -4.834,-1.634 -6.703,-3.761c5.424,-0.73 5.036,-0.572 10.894,-2.535c5.858,-1.964 10.593,-4.178 15.95,-8.424c5.357,-4.247 14.61,-12.333 19.361,-16.941c4.75,-4.608 13.266,-17.469 17.391,-23.268c4.126,-5.8 9.3,-10.286 14.058,-15.767c4.759,-5.481 11.72,-10.61 18.895,-14.495c7.175,-3.886 15.667,-7.41 20.644,-7.817c4.977,-0.408 10.597,-0.756 14.24,0.313c3.643,1.07 9.224,1.43 15.196,4.924c5.972,3.494 5.002,1.076 10.139,6.703c5.137,5.628 5.42,5.585 8.508,11.869c0,0 -21.58,5.587 -33.313,17.485c-11.732,11.898 -24.252,28.256 -27.426,43.24c-3.174,14.985 9.387,80.858 9.387,80.858Z"/></g></svg>