<?xml version="1.0" encoding="UTF-8"?>
<svg width="16px" height="24px" viewBox="0 0 16 24" version="1.1" xmlns="http://www.w3.org/2000/svg" xmlns:xlink="http://www.w3.org/1999/xlink">
    <title>Mobile Hero</title>
    <defs>
        <linearGradient x1="42.6725234%" y1="-1.01684798%" x2="59.1198918%" y2="100.574502%" id="linearGradient-1">
            <stop stop-color="#FFFFFF" offset="0%"></stop>
            <stop stop-color="#CCBED5" offset="100%"></stop>
        </linearGradient>
    </defs>
    <g id="Page-1" stroke="none" stroke-width="1" fill="none" fill-rule="evenodd">
        <g id="Group-25-Copy" transform="translate(-42.000000, -128.000000)" fill="url(#linearGradient-1)">
            <g id="Group-31" transform="translate(21.000000, 111.000000)">
                <g id="Group-30">
                    <g id="Group-23-Copy">
                        <g id="Mobile-Hero" transform="translate(21.000000, 17.000000)">
                            <path d="M14,0 C15.1045695,-2.02906125e-16 16,0.8954305 16,2 L16,22 C16,23.1045695 15.1045695,24 14,24 L2,24 C0.8954305,24 1.3527075e-16,23.1045695 0,22 L0,2 C-1.3527075e-16,0.8954305 0.8954305,2.02906125e-16 2,0 L14,0 Z M8.00568586,18 L7.86169595,18.0080733 C7.29613668,18.0773914 6.85714286,18.584597 6.85714286,19.2 C6.85714286,19.8627417 7.36627178,20.4 7.99431414,20.4 L7.99431414,20.4 L8.13830405,20.3919267 C8.70386332,20.3226086 9.14285714,19.815403 9.14285714,19.2 C9.14285714,18.5372583 8.63372822,18 8.00568586,18 L8.00568586,18 Z" id="Combined-Shape"></path>
                        </g>
                    </g>
                </g>
            </g>
        </g>
    </g>
</svg>