<svg version="1.1"
	 xmlns="http://www.w3.org/2000/svg" xmlns:xlink="http://www.w3.org/1999/xlink" xmlns:a="http://ns.adobe.com/AdobeSVGViewerExtensions/3.0/"
	 x="0px" y="0px" width="200px" height="29.2px" viewBox="0 0 200 29.2" style="enable-background:new 0 0 200 29.2;"
	 xml:space="preserve">
<style type="text/css">
	.st0{fill:#DBDFE1;}
</style>
<defs>
</defs>
<path class="st0" d="M19,4.7v7.1c0,2.2-1.6,4.1-3.8,4.5L2.5,18.4l0,10.6l-2.4,0.2L0,16.4l14.8-2.5c1-0.2,1.7-1,1.7-2.1V4.7
	c0-1.2-0.9-2.1-2.1-2.1H0l1.4-2.5h13.1C17,0.2,19,2.2,19,4.7z M47.8,4.5l0.1,18.5c0,2.5-1.6,4.5-4.1,4.5L32.7,28
	c-2.5,0-4.5-2-4.5-4.5l0.1-18.9c0-2.5,2-4.5,4.5-4.5h10.4C45.7,0,47.8,2,47.8,4.5z M45.4,23.1L45.3,4.5c0-1.2-0.9-2.1-2.1-2.1H32.9
	c-1.2,0-2.1,0.9-2.1,2.1l-0.1,18.9c0,1.2,0.9,2.1,2.1,2.1l10.9-0.4C44.9,25.2,45.4,24.2,45.4,23.1z M171.3,4.8v18.7
	c0,2.5-1.6,4.5-4.1,4.5l-10.8-0.4c-2.5,0-4.5-2-4.5-4.5V4.8c0-2.5,2-4.5,4.5-4.5h10.4C169.3,0.3,171.3,2.3,171.3,4.8z M168.9,23.5
	V4.8c0-1.2-0.9-2.1-2.1-2.1h-10.4c-1.2,0-2.1,0.9-2.1,2.1v18.2c0,1.2,0.9,2.1,2.1,2.1l10.8,0.4C168.3,25.6,168.9,24.6,168.9,23.5z
	 M59.7,4.6c0-1.2,0.9-2.1,2.1-2.1h12.6l1.4-2.5H61.8c-2.5,0-4.5,2-4.5,4.5v6.6c0,0.8,0.6,1.5,1.3,1.6l15.1,3.3v6.4
	c0,1.2-0.9,1.8-2.1,1.8l-12.8,0.5l-1.3,2.3l14.1-0.4c2.5,0,4.5-1.2,4.5-3.7v-7.5c0-0.8-0.6-1.5-1.3-1.6l-15.1-3.3V4.6z M85.5,21.3
	c0,2.5,2,4.5,4.5,4.5l12.5-0.4l-1.4-2.5l-11.1,0.4c-1.2,0-2.1-0.9-2.1-2.1l0-7.2l12.1,0l0-2.5l-12.1,0V4.7c0-1.2,0.9-2.1,2.1-2.1
	H101l1.6-2.5H90.1c-2.5,0-4.5,2-4.5,4.5L85.5,21.3z M112.3,25.9l2.5,0.1V0.2h-2.5V25.9z M138.1,0.2h-13.4l1.4,2.5h12
	c1.2,0,2.1,0.9,2.1,2.1l-0.3,17.5c0,1.2-0.9,2.1-2.1,2.1L125.6,24l-1.4,2.5l13.6,0.4c2.5,0,4.5-2,4.5-4.5l0.3-17.5
	C142.7,2.3,140.6,0.2,138.1,0.2z M183,28.5l0-25.9h12.5c1.2,0,2.1,0.9,2.1,2.1l0.1,24.3l2.4,0.1l0-24.4c0-2.5-2-4.5-4.5-4.5h-12.9
	c-1.1,0-2,0.9-2,2l0,26.2L183,28.5z"/>
</svg>
