<?xml version="1.0" encoding="UTF-8" standalone="no"?><!DOCTYPE svg PUBLIC "-//W3C//DTD SVG 1.1//EN" "http://www.w3.org/Graphics/SVG/1.1/DTD/svg11.dtd"><svg width="100%" height="100%" viewBox="0 0 2080 1625" version="1.1" xmlns="http://www.w3.org/2000/svg" xmlns:xlink="http://www.w3.org/1999/xlink" xml:space="preserve" xmlns:serif="http://www.serif.com/" style="fill-rule:evenodd;clip-rule:evenodd;stroke-linejoin:round;stroke-miterlimit:2;"><g id="Слой_2"><g id="Слой_1-2"><path d="M1455.29,1342.5l-401.75,-231.333c-4.602,-2.631 -7.452,-7.541 -7.452,-12.842c0,-5.537 3.109,-10.629 8.035,-13.158l50.542,-26.084c4.485,-2.287 9.835,-2.162 14.208,0.334l415.25,239.125c4.599,2.642 7.444,7.557 7.444,12.862c0,5.54 -3.104,10.637 -8.027,13.179l-36.667,18.875c-13.105,6.782 -28.805,6.42 -41.583,-0.958Z" style="fill-rule:nonzero;"/><path d="M1479.92,1298.96l-342.417,-197.666c-29.167,-16.667 -52.542,-61.667 -52.542,-100.334l0,-955.125c0,-38.666 23.542,-56.458 52.542,-39.708l342.417,198.042c29.166,16.666 52.541,61.666 52.541,100.333l0,955c0,38.458 -23.541,56.208 -52.541,39.458Z" style="fill:#83d7bc;fill-rule:nonzero;"/><path d="M1485.79,1316.17l27.125,-13.709l-26,-44.583l-1.125,58.292Z" style="fill:#b1b4c4;fill-rule:nonzero;"/><path d="M1079.75,15.833l24.958,-13.083l-5.041,36.792l-19.917,-23.709Z" style="fill:#b1b4c4;fill-rule:nonzero;"/><path d="M1458.33,1309.88l-342.375,-197.667c-29.166,-16.666 -52.5,-61.666 -52.5,-100.333l0,-954.958c0,-38.667 23.5,-56.459 52.5,-39.709l342.375,197.667c29.167,16.667 52.5,61.667 52.5,100.333l0,955c-0.208,38.667 -23.708,56.417 -52.5,39.667Z" style="fill:#616e84;fill-rule:nonzero;"/><path d="M1506.96,313.5l0,954.917c0,38.708 -23.5,56.458 -52.5,39.75l-134.25,-77.542l-41.666,-24.083l-166.459,-96.042c-29.166,-16.667 -52.5,-61.667 -52.5,-100.375l0,-954.917c0,-38.541 23.5,-56.458 52.5,-39.75l342.375,197.667c28.875,16.75 52.5,61.875 52.5,100.375Z" style="fill:#20232d;fill-rule:nonzero;"/><path d="M1482.29,307.958l0,930.084c0,23.416 -16.459,32.958 -36.75,21.208l-107.042,-61.792l-9.333,-5.458l-3.167,-1.833l-23.125,-13.375l-66.958,-38.584l-27.792,-16.041l-11.167,-6.459l-76.125,-43.791c-20.291,-11.709 -36.708,-40.25 -36.708,-63.667l0,-930.083c0,-23.459 16.417,-32.959 36.708,-21.25l133.667,77.208l0,0.375c1.166,20.149 11.89,38.575 28.833,49.542c15.834,9.041 28.667,1.708 28.667,-16.667l0,-0.417l133.667,77.209c20.166,11.833 36.625,40.333 36.625,63.791Z" style="fill:#fefefe;fill-rule:nonzero;"/><path d="M1280.74,148.443c4.261,-2.449 11.156,1.54 15.388,8.902c4.231,7.363 4.206,15.329 -0.055,17.778c-4.262,2.449 -11.157,-1.54 -15.388,-8.903c-4.231,-7.362 -4.207,-15.328 0.055,-17.777Z" style="fill:#2b303f;"/><path d="M1283.33,166.375c-2.733,-1.783 -4.442,-4.781 -4.583,-8.042c0,-2.916 2.042,-4.166 4.542,-2.625c2.686,1.744 4.377,4.677 4.541,7.875c0,3.084 -2.041,4.25 -4.5,2.792Z" style="fill-opacity:0.1;fill-rule:nonzero;"/><path d="M1520.83,443.292c-2.791,1.625 -5.083,0 -5.083,-3.834l0,-40.708c0.078,-3.84 1.964,-7.426 5.083,-9.667c2.792,-1.583 5.042,0 5.042,3.834l0,40.708c-0.049,3.837 -1.923,7.431 -5.042,9.667Z" style="fill:#757b89;fill-rule:nonzero;"/><path d="M1520.83,510c-2.791,1.625 -5.083,0 -5.083,-3.792l0,-40.75c0.078,-3.84 1.964,-7.426 5.083,-9.666c2.792,-1.584 5.042,0 5.042,3.833l0,40.708c-0.042,3.839 -1.918,7.435 -5.042,9.667Z" style="fill:#757b89;fill-rule:nonzero;"/><path d="M1391.67,849.5c9.808,6.339 16.01,17.007 16.666,28.667l0,28.375c0,10.541 -7.5,14.791 -16.666,9.458l-226.834,-130.917c-9.808,-6.339 -16.01,-17.006 -16.666,-28.666l0,-28.375c0,-10.542 7.541,-14.792 16.666,-9.5l226.834,130.958Z" style="fill:#83d7bc;fill-rule:nonzero;"/><g><path d="M2008.33,1501.54c49.292,28.458 91.125,25.5 45.459,59.125c-117.25,86.291 -173.625,72.458 -222.917,44l-214.5,-123.875c-49.333,-28.459 -19.833,-91.667 29.167,-120.042c49,-28.375 98.958,-11.542 148.291,16.958l214.5,123.834Z" style="fill-rule:nonzero;"/></g><path d="M2081.5,1183.33c0,1.292 -0.208,2.625 -0.458,3.959c-0.21,1.082 -0.474,2.153 -0.792,3.208c-0.333,1.25 -0.625,2.5 -1.083,3.75c-0.459,1.25 -0.834,2.042 -1.292,3.083c-0.458,1.042 -1.125,2.625 -1.833,3.917c-0.709,1.292 -1.125,1.875 -1.667,2.792c-0.542,0.916 -1.875,2.958 -2.958,4.375c-1.084,1.416 -2.125,2.791 -3.334,4.166c-0.291,0.292 -0.541,0.625 -0.833,0.959c-1.625,1.791 -3.417,3.5 -5.292,5.208c-1.208,1.083 -2.541,2.125 -3.875,3.208c-1.333,1.084 -2.25,1.875 -3.5,2.75c-1.25,0.875 -3,2.042 -4.541,3.042c-1.542,1 -3.084,2.083 -4.792,3.042c-3.85,2.22 -7.813,4.237 -11.875,6.041l-3.583,1.5c-3.195,1.389 -6.486,2.639 -9.875,3.75c-1.209,0.417 -2.417,0.875 -3.625,1.25c-2.125,0.667 -4.167,1.25 -6.5,1.875c-2.334,0.625 -3.25,0.917 -4.959,1.334c-1.708,0.416 -4.625,1 -6.958,1.458c-1.583,0.333 -3.125,0.708 -4.75,0.958c-4.708,0.834 -9.5,1.5 -14.292,2l-4.5,0.375c-2.833,0.25 -5.666,0.459 -8.333,0.584l-18.125,0c-1.917,0 -4.167,0 -6.375,-0.334l-5.833,-0.458l-6.25,-0.708l-5.625,-0.792l-6.709,-1.167l-5.208,-1.041c-2.625,-0.584 -5.208,-1.25 -7.792,-1.917l-4.166,-1.167c-4.625,-1.375 -9.125,-2.875 -13.5,-4.583c-2.167,-0.833 -4.167,-1.75 -6.334,-2.667c-1.083,-0.5 -2.208,-0.916 -3.25,-1.416c-3.166,-1.542 -6.291,-3.125 -9.25,-4.834l-214.583,-123.875c-24.792,-14.333 -37.167,-33.125 -37.125,-51.916l-0.917,335.791c0,18.792 12.5,37.5 37.125,51.875l214.209,123.959c3,1.708 6.083,3.291 9.25,4.791c1.041,0.5 2.208,0.959 3.291,1.417c1.875,0.833 3.709,1.708 5.625,2.458l0.667,0.25c4.375,1.709 8.875,3.209 13.5,4.542l1.083,0.375l3.25,0.792c2.584,0.666 5.167,1.333 7.792,1.916c0.708,0 1.375,0.375 2.083,0.5l3.167,0.542c2.208,0.417 4.417,0.833 6.667,1.167l2.666,0.458c0.959,0 1.959,0.208 2.959,0.333c2.083,0.292 4.166,0.5 6.291,0.709l2.959,0.333l2.833,0l6.375,0.333l18.125,0c2.875,0 5.667,-0.333 8.333,-0.541l3.459,-0.25l1.041,0c4.834,-0.5 9.584,-1.167 14.334,-2l0.666,0c1.375,-0.25 2.667,-0.625 4.167,-0.875c2.333,-0.445 4.667,-0.945 7,-1.5l4.917,-1.334c2.166,-0.583 4.375,-1.166 6.5,-1.833l1.375,-0.417c0.791,-0.25 1.458,-0.583 2.25,-0.833c3.361,-1.167 6.652,-2.417 9.875,-3.75l3.625,-1.542c4.166,-1.833 8.083,-3.833 11.875,-6l1.5,-0.916c1.166,-0.709 2.166,-1.459 3.25,-2.167c1.083,-0.708 3.125,-1.958 4.541,-3c1.417,-1.042 2.375,-1.875 3.5,-2.792c1.125,-0.916 2.667,-2.083 3.875,-3.208l0.792,-0.625c1.583,-1.5 3.083,-3 4.5,-4.542l0.833,-1c0.834,-0.958 1.709,-1.875 2.459,-2.833c0.75,-0.958 0.541,-0.875 0.875,-1.292c1.083,-1.458 2.041,-2.916 2.958,-4.416c0.375,-0.584 0.875,-1.209 1.208,-1.834c0.178,-0.307 0.331,-0.627 0.459,-0.958c0.687,-1.269 1.299,-2.576 1.833,-3.917c0.333,-0.75 0.792,-1.5 1.083,-2.25c0.292,-0.75 0,-0.541 0,-0.791c0.459,-1.25 0.75,-2.542 1.084,-3.792c0.293,-0.834 0.544,-1.682 0.75,-2.542l0,-0.666c0,-1.334 0.333,-2.625 0.416,-3.959c0.084,-1.333 0.292,-1.708 0.334,-2.583l0,-1.125l0.958,-335.75c0.058,1.194 0.058,2.39 0,3.583Z" style="fill:#83d7bc;fill-rule:nonzero;"/><path d="M2044.71,1127.88c49.25,28.458 49.542,74.625 0.542,103.083c-49,28.459 -128.708,28.5 -178,0l-214.583,-123.875c-49.25,-28.458 -49.542,-74.625 -0.5,-103.125c49.041,-28.5 128.666,-28.458 177.958,0l214.583,123.917Z" style="fill:#42c299;fill-rule:nonzero;"/><path d="M1724.38,1392.58l29.167,-79.166c-8.662,-11.378 -13.649,-25.132 -14.292,-39.417c0,-16.25 9.083,-25 21.667,-22.875c3.971,0.647 7.778,2.063 11.208,4.167c18.083,10.458 32.75,35.708 32.667,56.541c0,12.959 -5.792,21.042 -14.5,22.792l21.833,85.667l6.833,27l-94.583,-54.709Z" style="fill:#3a4151;fill-rule:nonzero;"/><path d="M1744.21,1381l29.167,-79.167c-8.695,-11.359 -13.686,-25.124 -14.292,-39.416c-0.04,-3.841 0.581,-7.661 1.834,-11.292c3.971,0.647 7.778,2.063 11.208,4.167c18.083,10.458 32.75,35.708 32.667,56.541c0,12.959 -5.792,21.042 -14.5,22.792l21.833,85.667l-67.917,-39.292Z" style="fill:#323944;fill-rule:nonzero;"/><path d="M1779.92,885.542c-1.993,1.222 -3.875,2.616 -5.625,4.166l-0.917,0.834c-1.574,1.579 -2.971,3.326 -4.167,5.208l-1.125,1.833l-0.25,0.459c-0.225,0.328 -0.421,0.677 -0.583,1.041c-0.661,1.235 -1.232,2.517 -1.708,3.834c-0.477,1.317 0,0 0,0.25c-1.129,3.119 -1.871,6.366 -2.209,9.666l0,0.375c-0.24,1.824 -0.352,3.661 -0.333,5.5l-0.292,112.5l0,40.542c-9.622,4.833 -20.274,7.264 -31.041,7.083l0,-141.958c0.019,-2.947 0.284,-5.888 0.791,-8.792c0,-0.583 0.209,-1.208 0.375,-1.833c0.159,-0.818 0.368,-1.625 0.625,-2.417c0.258,-0.792 0,-0.25 0,-0.375c0.227,-0.735 0.492,-1.458 0.792,-2.166c-0.041,-0.122 -0.041,-0.254 0,-0.375c0.25,-0.584 0.458,-1.125 0.708,-1.667c0.126,-0.478 0.308,-0.94 0.542,-1.375c0.149,-0.193 0.275,-0.403 0.375,-0.625c0.52,-1.119 1.133,-2.192 1.833,-3.208c0.7,-1.017 0,0 0.209,0c0.619,-0.924 1.287,-1.814 2,-2.667c0.75,-0.833 1.5,-1.667 2.291,-2.458c0.241,-0.342 0.554,-0.627 0.917,-0.834c0.844,-0.788 1.734,-1.526 2.667,-2.208c0.796,-0.651 1.662,-1.21 2.583,-1.667c0.262,-0.228 0.541,-0.437 0.833,-0.625l30.709,-18.041Z" style="fill:#323944;fill-rule:nonzero;"/><path d="M2007.83,1056.38l0,3.833l-0.291,111.375l0,40.959c-9.538,4.674 -20.047,7.029 -30.667,6.875l-0.375,0l0,-54.792l0.208,-86.333c0.016,-4.567 -0.234,-9.13 -0.75,-13.667c-0.25,-2.208 -0.541,-4.5 -0.916,-6.792l0,-1c-0.292,-1.75 -0.584,-3.583 -1,-5.333c0.039,-0.248 0.039,-0.502 0,-0.75c-0.917,-4.417 -2,-8.917 -3.292,-13.417c0,-0.625 -0.375,-1.166 -0.542,-1.75c-0.583,-2 -1.208,-3.916 -1.875,-5.875c-0.666,-1.958 -1.541,-4.583 -2.375,-6.875c-0.833,-2.291 -1.625,-4.166 -2.458,-6.25c-1.042,-2.75 -2.292,-5.5 -3.5,-8.333c-0.161,-0.29 -0.287,-0.597 -0.375,-0.917c-0.088,-0.319 0,-0.208 -0.25,-0.375c-2.208,-4.875 -4.625,-9.833 -7.292,-14.708c-1,-2 -2.083,-3.917 -3.208,-5.875c-1.458,-2.625 -2.917,-5.208 -4.5,-7.792c-1.583,-2.583 -3.542,-5.416 -5.292,-8.083c-0.833,-1.375 -1.666,-2.75 -2.583,-4.167l-0.917,-1.375c-0.154,-0.242 -0.336,-0.465 -0.541,-0.666c-6.334,-9.307 -13.149,-18.278 -20.417,-26.875c-0.458,-0.584 -1,-1.125 -1.458,-1.667c-3.375,-4.167 -6.792,-7.875 -10.375,-11.583c-0.484,-0.596 -1.013,-1.153 -1.584,-1.667c-1.833,-1.917 -3.666,-3.833 -5.583,-5.75c-1.917,-1.917 -4.417,-4.417 -6.708,-6.542c-3.459,-3.208 -6.875,-6.416 -10.459,-9.541c-6.166,-5.334 -12.5,-10.389 -19,-15.167l-3.791,-2.75c-7.01,-5.043 -14.269,-9.73 -21.75,-14.042c-2.542,-1.458 -4.959,-2.75 -7.417,-4.166c-2.458,-1.417 -5.5,-2.834 -8.333,-4.167c-1.875,-0.917 -3.792,-1.75 -5.625,-2.583l-2.375,-1.084l-2.834,-1.125c-5.083,-2.125 -10.125,-4.166 -15.083,-5.5c-0.192,-0.043 -0.387,-0.071 -0.583,-0.083l-1.834,-0.458c-0.833,-0.334 -1.666,-0.459 -2.416,-0.709c-0.75,-0.25 -2.084,-0.625 -3.042,-0.833l-0.25,0l-2.042,-0.458c-1.833,-0.459 -3.541,-0.834 -5.291,-1.125c-0.959,-0.25 -2.042,-0.375 -3.042,-0.542c-0.178,-0.04 -0.363,-0.04 -0.542,0l-3.708,-0.625l-0.875,0c-2.293,-0.33 -4.602,-0.539 -6.917,-0.625c-1.466,-0.165 -2.941,-0.249 -4.416,-0.25l-2.209,0c-2.254,-0.017 -4.508,0.095 -6.75,0.333l-2.125,0c-0.713,0.038 -1.422,0.122 -2.125,0.25c-0.645,0.05 -1.285,0.148 -1.916,0.292l-0.209,0c-0.541,0 -1.083,0.25 -1.625,0.292c-1.291,0.25 -2.583,0.458 -3.875,0.833c-0.207,-0.033 -0.418,-0.033 -0.625,0c-0.361,0.003 -0.718,0.088 -1.041,0.25c-0.939,0.201 -1.858,0.48 -2.75,0.833c-0.721,0.145 -1.431,0.34 -2.125,0.584c-0.694,0.243 -0.25,0 -0.334,0c-0.083,0 0,0 0,0c-1.536,0.517 -3.039,1.129 -4.5,1.833l-0.541,0.208c-0.97,0.436 -1.916,0.923 -2.834,1.459c-0.639,0.246 -1.252,0.553 -1.833,0.916l31.125,-18.083c3.122,-1.792 6.399,-3.298 9.792,-4.5c0.122,-0.038 0.253,-0.038 0.375,0c2.721,-0.955 5.506,-1.721 8.333,-2.292l0.917,-0.25l1.041,0c1.917,-0.375 3.917,-0.583 5.875,-0.833l1.709,0c2.333,0 4.708,-0.292 7.208,-0.292l7.375,0c1,0 2.042,0.25 3.042,0.292l3.916,0.417l0.375,0c1.292,0 2.584,0.458 3.959,0.625c1.375,0.166 1.916,0.291 2.875,0.541l0.333,0c2.292,0.459 4.625,1 7.083,1.584c2.292,0.541 4.625,1.208 6.917,1.916c0.122,-0.036 0.253,-0.036 0.375,0c0.809,0.208 1.603,0.472 2.375,0.792c1.542,0.458 3,0.917 4.417,1.458c0.29,0.059 0.57,0.157 0.833,0.292c0.996,0.292 1.971,0.654 2.917,1.083c1.125,0.459 2.291,0.834 3.5,1.292c0.442,0.229 0.902,0.424 1.375,0.583l3.125,1.375c0.916,0.375 1.833,0.709 2.75,1.167c0.718,0.282 1.414,0.616 2.083,1c1.113,0.432 2.199,0.933 3.25,1.5c0.708,0.292 1.375,0.625 2.083,1c0.709,0.375 1.917,0.917 2.792,1.375c0.875,0.458 2.167,1.125 3.208,1.75c0.537,0.199 1.054,0.451 1.542,0.75l5.958,3.292c0.584,0.375 1.209,0.666 1.75,1.083c2.667,1.5 5.25,3.125 7.834,4.792c1.333,0.75 2.625,1.666 3.916,2.5c0.63,0.477 1.283,0.922 1.959,1.333l2,1.333c2.666,1.834 5.25,3.667 7.875,5.584l2.416,1.916c0.75,0.542 1.542,1.042 2.292,1.667c0.75,0.625 2.125,1.625 3.208,2.542c2.75,2.041 5.334,4.166 8,6.458l0.834,0.75c0.515,0.412 1.002,0.857 1.458,1.333c1.833,1.5 3.667,3.042 5.5,4.709c1.833,1.666 3.958,3.583 5.875,5.5c0.387,0.289 0.737,0.625 1.042,1c0.214,0.107 0.4,0.264 0.541,0.458c2.445,2.306 4.82,4.639 7.125,7l3.625,3.833c0.542,0.5 1.084,1.125 1.625,1.667c0.542,0.542 0.917,0.917 1.375,1.458c2.042,2.209 4.167,4.584 6.167,6.834c1,1.083 1.917,2.25 2.833,3.291l1.375,1.667c0.542,0.625 1.125,1.25 1.584,1.833c2.083,2.459 3.958,4.834 5.875,7.25c0.708,0.917 1.375,1.834 2.125,2.75c0.75,0.917 1.166,1.459 1.708,2.209l2.208,2.916c1.834,2.5 3.584,5.125 5.417,7.625l2.042,2.959l0.541,0.791c1.084,1.5 2,3.209 3.042,4.709c2,3.208 4.167,6.333 5.958,9.458l0.709,1.167c2.208,3.583 4.166,7.25 6.166,10.875c0,0.333 0.292,0.625 0.459,0.916c0.219,0.376 0.414,0.766 0.583,1.167c0.917,1.75 1.833,3.417 2.708,5.167c0.875,1.75 1.75,3.541 2.584,5.291c0.458,0.959 0.833,1.959 1.291,2.875c0.153,0.294 0.279,0.6 0.375,0.917c0.25,0.458 0.459,1 0.709,1.458c0.75,1.667 1.416,3.292 2.125,4.959c0.708,1.666 1.291,3.208 1.958,4.791c0.333,0.834 0.625,1.709 0.917,2.542c0.075,0.291 0.187,0.571 0.333,0.833c0.165,0.511 0.36,1.012 0.583,1.5c0.542,1.709 1.167,3.292 1.709,4.917c0.541,1.625 1.041,3.25 1.5,4.875c0.25,0.75 0.458,1.5 0.708,2.292c0.25,0.791 0,0.541 0.208,0.833c0.213,0.573 0.394,1.157 0.542,1.75c0.458,1.667 0.917,3.292 1.292,4.875c0.375,1.583 0.75,3.125 1.083,4.667c0,0.666 0.292,1.458 0.458,2.125c-0.02,0.235 -0.02,0.472 0,0.708c0,0.583 0.25,1.208 0.334,1.75c0.291,1.5 0.541,3.042 0.833,4.5c0.292,1.458 0.375,2.875 0.625,4.167c0.25,1.291 0,1.75 0.208,2.666c0.04,0.179 0.04,0.364 0,0.542c0.021,0.361 0.021,0.723 0,1.083c0,1.375 0.25,2.792 0.334,4.167c0.083,1.375 0.583,3.208 0.666,4.5Z" style="fill:#323944;fill-rule:nonzero;"/><path d="M1976.79,1078.29l-0.209,86.333l0,54.792c-18.625,0 -34.541,-6.667 -41.666,-16.042l0,-22.792l0.375,-126.333c0,-42.708 -46.375,-105.708 -101.542,-137.5c-24.792,-14.333 -47.875,-20.333 -65.833,-18.667c-6.424,0.452 -12.683,2.24 -18.375,5.25c-0.293,0.188 -0.571,0.397 -0.834,0.625c-0.918,0.462 -1.784,1.02 -2.583,1.667c-0.955,0.652 -1.848,1.392 -2.667,2.208c-0.363,0.207 -0.676,0.492 -0.916,0.834c-0.858,0.726 -1.627,1.551 -2.292,2.458c-0.764,0.811 -1.435,1.706 -2,2.667c-0.565,0.961 0,0 -0.208,0c-0.7,1.016 -1.313,2.089 -1.834,3.208c-0.389,0.625 -0.697,1.297 -0.916,2c-0.314,0.52 -0.552,1.081 -0.709,1.667c-0.041,0.121 -0.041,0.253 0,0.375c-0.352,0.821 -0.631,1.671 -0.833,2.541c-0.257,0.792 -0.466,1.599 -0.625,2.417c-0.161,0.603 -0.286,1.215 -0.375,1.833c-0.508,2.904 -0.773,5.845 -0.792,8.792l0,141.958c-18.375,0 -34.25,-6.333 -41.666,-15.5l0,-23.875l-0.292,-126.708c0,-29.667 11.75,-50.333 31.25,-60.625c0.918,-0.536 1.864,-1.022 2.833,-1.458l0.542,-0.209c1.461,-0.704 2.963,-1.316 4.5,-1.833c1.537,-0.517 0,0 0,0c0.794,-0.326 1.617,-0.577 2.458,-0.75c0.892,-0.354 1.812,-0.632 2.75,-0.833c0.324,-0.162 0.68,-0.247 1.042,-0.25c0.207,-0.033 0.418,-0.033 0.625,0l1.917,-0.417c0.643,-0.179 1.297,-0.318 1.958,-0.417c0.542,0 1.083,-0.208 1.625,-0.291l0.208,0c0.631,-0.144 1.272,-0.242 1.917,-0.292c0.702,-0.129 1.412,-0.212 2.125,-0.25c0.707,-0.064 1.418,-0.064 2.125,0c2.242,-0.239 4.496,-0.35 6.75,-0.333l2.208,0c1.476,0.001 2.951,0.084 4.417,0.25c2.315,0.086 4.624,0.294 6.917,0.625c1.539,0.137 3.069,0.359 4.583,0.666c0.178,-0.039 0.363,-0.039 0.542,0c1,0 2.083,0.292 3.041,0.542c1.75,0.292 3.459,0.667 5.292,1.125c1.833,0.458 3.5,0.833 5.333,1.375c0.75,0.25 1.584,0.375 2.417,0.708l2.458,0.667c4.959,1.542 10,3.375 15.084,5.5c1.791,0.667 3.458,1.458 5.208,2.208c1.75,0.75 3.75,1.667 5.625,2.584l4.917,2.458c1.041,0.583 2.208,1.125 3.25,1.667c2.458,1.375 4.875,2.666 7.416,4.166c7.482,4.312 14.741,8.999 21.75,14.042l3.792,2.75c6.5,4.778 12.833,9.833 19,15.167c3.583,3.125 7,6.333 10.458,9.541c2.292,2.125 4.5,4.167 6.709,6.542c2.208,2.375 3.75,3.833 5.583,5.75c0.57,0.514 1.1,1.071 1.583,1.667c3.584,3.708 7,7.625 10.375,11.583c0.459,0.542 1,1.083 1.459,1.667c7.268,8.597 14.082,17.568 20.416,26.875c0.533,0.646 1.02,1.328 1.459,2.041c2.75,4.167 5.333,8.084 7.875,12.209c1.583,2.583 3.041,5.166 4.5,7.791c1.125,1.959 2.208,3.875 3.208,5.875c2.667,4.875 5.083,9.834 7.292,14.709c0.25,0.458 0.458,0.916 0.625,1.291c1.208,2.75 2.458,5.5 3.5,8.334c0.833,2.041 1.666,4.166 2.458,6.25c0.792,2.083 1.667,4.583 2.375,6.875c0.708,2.291 1.292,3.875 1.875,5.875c0,0.583 0.375,1.125 0.542,1.75c1.291,4.5 2.458,9 3.291,13.416c0.04,0.249 0.04,0.502 0,0.75c0.417,1.75 0.709,3.584 1,5.334l0,1c0.375,2.291 0.667,4.5 0.917,6.791c0.726,4.414 1.199,8.866 1.417,13.334Z" style="fill:#3a4151;fill-rule:nonzero;"/><path d="M1412.71,515.167c4.238,2.787 6.902,7.434 7.167,12.5l-0.583,208.041c0,18.334 -13.084,25.792 -29.167,16.667l-202.625,-117.167c-17.03,-11.103 -27.769,-29.7 -28.875,-50l0.583,-208.041c0,-4.584 3.292,-6.459 7.25,-4.167l21.75,12.5l0,-33.333c0,-64.25 45.834,-90.25 101.709,-57.959c55.875,32.292 101.25,110.792 101.041,175l0,33.334l21.75,12.625Zm-65.208,-37.5l0,-33.334c0,-36.75 -25.792,-81.583 -57.708,-100c-31.917,-18.416 -58.042,-3.583 -58.125,33.125l0,33.334l115.875,66.666m-36.709,152.917l-4.458,-50c7.458,-1.917 11.917,-9.167 11.917,-19.917c-1.073,-20.309 -11.82,-38.92 -28.875,-50c-15.959,-9.208 -29.167,-1.791 -29.167,16.667c0.469,12.123 4.579,23.828 11.792,33.583l-4.709,44.584c-0.145,2.615 0.462,5.218 1.75,7.5c1.26,2.409 3.127,4.449 5.417,5.916l29.167,16.667c1.584,1.154 3.703,1.285 5.416,0.333c1.521,-1.355 2.218,-3.416 1.834,-5.416" style="fill:#42c299;fill-rule:nonzero;"/><path d="M1397.58,972.667c6.289,3.973 10.295,10.741 10.75,18.166l0,29.167c0,6.667 -4.791,9.375 -10.583,6.042l-239.417,-138.125c-6.206,-4.043 -10.125,-10.813 -10.541,-18.209l0,-29.166c0,-6.709 4.791,-9.375 10.583,-6l239.208,138.125Z" style="fill:#83d7bc;fill-rule:nonzero;"/></g></g><circle cx="966.644" cy="614.602" r="59.267" style="fill:#d78e72;"/><path d="M945.246,965.299c-0.747,0 -1.497,-0.033 -2.25,-0.099c-13.686,-1.143 -24.341,-12.725 -24.341,-26.458c0,-1.744 0.171,-3.483 0.512,-5.193c0.173,-0.852 0.391,-1.694 0.652,-2.523l-87.474,-103.456c-5.836,-6.957 -6.422,-16.988 -1.435,-24.576l0.159,-0.193l78.737,-77.638c4.257,-4.198 10.001,-6.553 15.98,-6.553c12.486,0 22.76,10.274 22.76,22.76c0,6.234 -2.561,12.202 -7.079,16.497l-57.026,54.214l62.43,100.199c1.182,0.061 2.359,0.206 3.521,0.433c12.367,2.468 21.353,13.425 21.353,26.036c0,14.546 -11.954,26.523 -26.499,26.55l0,0Z" style="fill:#d78e72;fill-rule:nonzero;"/><path d="M1064.26,1439.46l29.585,0l14.073,-114.109l-43.664,0.003l0.006,114.106Z" style="fill:#d78e72;fill-rule:nonzero;"/><path d="M1056.71,1429.8l58.264,-0.002c20.367,0 37.127,16.76 37.127,37.128l0,1.207l-95.39,0.003l-0.001,-38.336Z" style="fill:#2f2e41;fill-rule:nonzero;"/><path d="M770.212,1398.56l25.419,15.134l70.474,-90.843l-37.518,-22.337l-58.375,98.046Z" style="fill:#d78e72;fill-rule:nonzero;"/><path d="M768.669,1386.39l50.06,29.806l0.002,0.001c11.231,6.687 18.133,18.83 18.133,31.901c0,6.686 -1.806,13.25 -5.227,18.995l-0.618,1.037l-81.962,-48.8l19.612,-32.94Z" style="fill:#2f2e41;fill-rule:nonzero;"/><path d="M1100.82,1399.15l-33.127,0c-5.528,0.009 -10.223,-4.213 -10.798,-9.711l-33.397,-313.932c-0.195,-1.832 -1.758,-3.237 -3.6,-3.237c-1.42,0 -2.714,0.835 -3.299,2.129l-60.249,133.409l-106.667,173.935c-2.841,4.588 -8.682,6.414 -13.63,4.26l-42.613,-18.748c-3.934,-1.732 -6.485,-5.643 -6.485,-9.941c0,-1.961 0.531,-3.886 1.536,-5.57l98.057,-164.187l30.073,-138.337c-9.458,-59.992 31.09,-149.184 31.501,-150.08l0.201,-0.436l111.691,-43.655l0.56,0.686c44.048,144.549 70.888,300.108 51.07,533.466c-0.504,5.581 -5.221,9.916 -10.824,9.949Z" style="fill:#5d5c71;fill-rule:nonzero;"/><path d="M943.825,913.326l-0.52,-1.094c-0.249,-0.523 -25.084,-52.903 -44.229,-108.887c-7.435,-21.878 -5.357,-45.902 5.726,-66.178c11.227,-20.486 30.552,-35.346 53.234,-40.935c40.093,-9.61 81.608,11.81 97.01,50.055c15.186,37.975 10.346,78.509 5.791,110.385l-0.091,0.639l-0.58,0.278l-116.341,55.737Z" style="fill:#83d7bc;fill-rule:nonzero;"/><path d="M1038.5,581.123l-94.11,0l0,-41.022c20.656,-8.206 40.869,-15.185 53.088,0c22.504,0 41.022,18.518 41.022,41.022l0,0Z" style="fill:#2f2e41;fill-rule:nonzero;"/><path d="M939.184,532.862c-56.261,0 -72.008,70.52 -72.008,110.304c0,22.188 10.034,30.123 25.802,32.808l5.568,-29.698l13.042,30.976c4.429,0.022 9.082,-0.063 13.906,-0.153l4.422,-9.105l9.861,8.942c39.494,0.059 71.414,5.816 71.414,-33.77c0,-39.784 -13.81,-110.304 -72.007,-110.304Z" style="fill:#2f2e41;fill-rule:nonzero;"/><path d="M1189.26,611.788c0.358,0.655 0.688,1.329 0.991,2.021c1.499,3.385 2.273,7.046 2.273,10.747c0,11.578 -7.574,21.883 -18.623,25.339c-0.831,0.257 -1.675,0.47 -2.528,0.639l-48.851,126.365c-3.307,8.457 -11.83,13.78 -20.88,13.042l-0.246,-0.047l-105.882,-31.875c-9.589,-2.887 -16.199,-11.779 -16.199,-21.794c0,-12.485 10.275,-22.76 22.761,-22.76c2.362,0 4.709,0.368 6.958,1.09l74.918,24.053l58,-102.827c-0.512,-1.067 -0.949,-2.169 -1.307,-3.298c-0.802,-2.564 -1.21,-5.235 -1.21,-7.922c0,-14.564 11.985,-26.549 26.55,-26.549c9.678,0 18.619,5.292 23.275,13.776l0,0Z" style="fill:#d78e72;fill-rule:nonzero;"/><path d="M2554.59,1470.91l-491.089,0c-1.403,0 -2.558,-1.155 -2.558,-2.558c0,-1.403 1.155,-2.557 2.558,-2.557l491.089,0c1.403,0 2.558,1.154 2.558,2.557c0,1.403 -1.155,2.558 -2.558,2.558Z" style="fill:#ccc;fill-rule:nonzero;"/></svg>