<?xml version="1.0" encoding="UTF-8" standalone="no"?><!DOCTYPE svg PUBLIC "-//W3C//DTD SVG 1.1//EN" "http://www.w3.org/Graphics/SVG/1.1/DTD/svg11.dtd"><svg width="100%" height="100%" viewBox="0 0 475 421" version="1.1" xmlns="http://www.w3.org/2000/svg" xmlns:xlink="http://www.w3.org/1999/xlink" xml:space="preserve" xmlns:serif="http://www.serif.com/" style="fill-rule:evenodd;clip-rule:evenodd;stroke-linejoin:round;stroke-miterlimit:2;"><path id="Tdex_logo" d="M288.5,78.042l41.458,0l0,242.416c0,47.375 -34,89.584 -81.041,95.5c-15.114,1.913 -30.469,0.081 -44.709,-5.333c-0.458,0 -0.25,-0.875 0.25,-0.875l-2.666,0c-34.728,-14.32 -57.537,-48.31 -57.625,-85.875l0,-101.375c-0.002,-0.014 -0.002,-0.028 -0.002,-0.042c0,-0.228 0.188,-0.416 0.416,-0.416c0.001,0 0.002,0 0.002,0l40.667,0c0.251,0 0.458,0.207 0.458,0.458l0,99.083c0,26.334 18.875,50 45,53.209c27.989,3.485 53.889,-16.678 57.375,-44.667c0.284,-2.113 0.424,-4.243 0.417,-6.375l0,-245.708Zm184.958,17.416c-5.958,-47.041 -48.125,-81.041 -95.5,-81.041l-140.958,0l0,-14.417l-0.333,0l-33.334,34.917c-0.128,0.203 -0.128,0.463 0,0.666l33.334,34.917l0.333,0l0,-14.542l144.333,0c28.207,0 51.417,23.211 51.417,51.417c0,0.014 0,0.028 0,0.042c0.007,2.132 -0.133,4.262 -0.417,6.375c-3.166,26.125 -26.916,45 -53.166,45l-27,0c-0.252,0 -0.459,0.207 -0.459,0.458l0,40.375c0,0.251 0.207,0.458 0.459,0.458l29.166,0c37.575,-0.054 71.583,-22.875 85.875,-57.625l0,-2.416c0.06,0.191 0.238,0.321 0.438,0.321c0.2,0 0.378,-0.13 0.437,-0.321c5.447,-14.188 7.294,-29.508 5.375,-44.584Zm-236.458,119.292l0.333,0l33.334,-34.958c0.163,-0.175 0.163,-0.45 0,-0.625l-33.334,-34.917l-0.333,0l0,14.542l-144.167,0c-28.19,-0.023 -51.375,-23.226 -51.375,-51.417c0,-0.014 0,-0.028 0,-0.042c-0.001,-2.116 0.125,-4.231 0.375,-6.333c3.209,-26.167 26.959,-45.042 53.209,-45.042l89.25,0c0.014,0.002 0.027,0.002 0.041,0.002c0.229,0 0.417,-0.188 0.417,-0.416c0,-0.001 0,-0.002 0,-0.002l0,-40.584c0,-0.251 -0.207,-0.458 -0.458,-0.458l-91.459,0c-37.578,0.084 -71.577,22.915 -85.875,57.667l0,2.458c0,-0.5 -0.708,-0.708 -0.875,-0.208c-5.431,14.264 -7.263,29.65 -5.333,44.791c5.958,47.084 48.208,81 95.5,81l140.75,0l0,14.542Z" style="fill:#0fff00;fill-rule:nonzero;"/></svg>