<svg id="Layer_1" data-name="Layer 1" xmlns="http://www.w3.org/2000/svg" viewBox="0 0 374 400.6"><defs><style>.cls-1{fill:#92d6e9;}.cls-2,.cls-7{fill:#0a1e2b;stroke:#0a1e2b;isolation:isolate;}.cls-11,.cls-12,.cls-2,.cls-3,.cls-6,.cls-7,.cls-8{stroke-linecap:round;stroke-linejoin:round;}.cls-12,.cls-2,.cls-3,.cls-6,.cls-7{stroke-width:6px;}.cls-2{opacity:0.3;}.cls-11,.cls-12,.cls-3,.cls-6,.cls-8{fill:none;}.cls-3{stroke:#fff;}.cls-4{fill:#cbedf9;}.cls-5{fill:#e8f9ff;}.cls-11,.cls-6,.cls-8{stroke:#212552;}.cls-7{opacity:0.23;}.cls-8{stroke-width:10px;}.cls-9{fill:#ffea9e;}.cls-10{fill:#edc75d;}.cls-11{stroke-width:8px;}.cls-12{stroke:#e8f9ff;}</style></defs><path class="cls-1" d="M459.5,669.4V662a6,6,0,0,0-6-6h-66a6,6,0,0,0-6,6v22a6,6,0,0,0,6,6h43.9a18.09,18.09,0,0,0,12.8-5.3Z" transform="translate(-327 -292.4)"/><path class="cls-2" d="M453.5,656h-66a6,6,0,0,0-6,6v20.4h65l13-13V662A6,6,0,0,0,453.5,656Z" transform="translate(-327 -292.4)"/><path class="cls-1" d="M540.5,669.4V662a6,6,0,0,1,6-6h66a6,6,0,0,1,6,6v22a6,6,0,0,1-6,6H568.6a18.09,18.09,0,0,1-12.8-5.3Z" transform="translate(-327 -292.4)"/><path class="cls-2" d="M612.5,656h-66a6,6,0,0,0-6,6v7.4l13,13h65V662A6,6,0,0,0,612.5,656Z" transform="translate(-327 -292.4)"/><path class="cls-3" d="M459.5,669.4V662a6,6,0,0,0-6-6h-66a6,6,0,0,0-6,6v22a6,6,0,0,0,6,6h43.9a18.09,18.09,0,0,0,12.8-5.3Z" transform="translate(-327 -292.4)"/><path class="cls-3" d="M540.5,669.4V662a6,6,0,0,1,6-6h66a6,6,0,0,1,6,6v22a6,6,0,0,1-6,6H568.6a18.09,18.09,0,0,1-12.8-5.3Z" transform="translate(-327 -292.4)"/><path class="cls-4" d="M630,669.5H370a40,40,0,0,1-40-40v-260a40,40,0,0,1,40-40H630a40,40,0,0,1,40,40v260A40,40,0,0,1,630,669.5Z" transform="translate(-327 -292.4)"/><path class="cls-5" d="M630,329.5H370a40,40,0,0,0-40,40v23a40,40,0,0,1,40-40H630a40,40,0,0,1,40,40v-23A40,40,0,0,0,630,329.5Z" transform="translate(-327 -292.4)"/><path class="cls-1" d="M630,646.5H370a40,40,0,0,1-40-40v23a40,40,0,0,0,40,40H630a40,40,0,0,0,40-40v-23A40,40,0,0,1,630,646.5Z" transform="translate(-327 -292.4)"/><path class="cls-3" d="M630,669.5H370a40,40,0,0,1-40-40v-260a40,40,0,0,1,40-40H630a40,40,0,0,1,40,40v260A40,40,0,0,1,630,669.5Z" transform="translate(-327 -292.4)"/><path class="cls-5" d="M618,365.5H382a16,16,0,0,0-16,16v8c0-8.8,7.2-13,16-13H618c8.8,0,16,4.2,16,13v-8A16,16,0,0,0,618,365.5Z" transform="translate(-327 -292.4)"/><path class="cls-1" d="M618,620.5H382a16,16,0,0,1-16-16v13a16,16,0,0,0,16,16H618a16,16,0,0,0,16-16v-13A16,16,0,0,1,618,620.5Z" transform="translate(-327 -292.4)"/><path class="cls-6" d="M382,633.5a16,16,0,0,1-16-16v-236a16,16,0,0,1,16-16H618a16,16,0,0,1,16,16v236a16,16,0,0,1-16,16Z" transform="translate(-327 -292.4)"/><path class="cls-7" d="M605.3,594.6h-2a4,4,0,0,1-4-4v-152a4,4,0,0,1,4-4h2a4,4,0,0,1,4,4v152A4,4,0,0,1,605.3,594.6Z" transform="translate(-327 -292.4)"/><path class="cls-1" d="M605.3,574.6h-2a4,4,0,0,1-4-4v-152a4,4,0,0,1,4-4h2a4,4,0,0,1,4,4v152A4,4,0,0,1,605.3,574.6Z" transform="translate(-327 -292.4)"/><path class="cls-6" d="M605.3,574.6h-2a4,4,0,0,1-4-4v-152a4,4,0,0,1,4-4h2a4,4,0,0,1,4,4v152A4,4,0,0,1,605.3,574.6Z" transform="translate(-327 -292.4)"/><circle class="cls-7" cx="173" cy="215.1" r="65"/><circle class="cls-4" cx="173" cy="207.1" r="65"/><circle class="cls-6" cx="173" cy="207.1" r="65"/><circle class="cls-1" cx="173" cy="207.1" r="54"/><line class="cls-8" x1="173" y1="166.1" x2="173" y2="248.1"/><line class="cls-8" x1="214" y1="207.1" x2="132" y2="207.1"/><line class="cls-8" x1="202" y1="178.1" x2="144" y2="236.1"/><line class="cls-8" x1="202" y1="236.1" x2="144" y2="178.1"/><path class="cls-2" d="M500,547.2h0a25,25,0,0,1-25-25v-25h50v25A25,25,0,0,1,500,547.2Z" transform="translate(-327 -292.4)"/><path class="cls-7" d="M366,462h0a8,8,0,0,1-8-8V430a8,8,0,0,1,8-8h0a8,8,0,0,1,8,8v24A8,8,0,0,1,366,462Z" transform="translate(-327 -292.4)"/><path class="cls-7" d="M366,592.5h0a8,8,0,0,1-8-8v-24a8,8,0,0,1,8-8h0a8,8,0,0,1,8,8v24A8,8,0,0,1,366,592.5Z" transform="translate(-327 -292.4)"/><path class="cls-1" d="M366,454h0a8,8,0,0,1-8-8V422a8,8,0,0,1,8-8h0a8,8,0,0,1,8,8v24A8,8,0,0,1,366,454Z" transform="translate(-327 -292.4)"/><path class="cls-1" d="M366,585h0a8,8,0,0,1-8-8V553a8,8,0,0,1,8-8h0a8,8,0,0,1,8,8v24A8,8,0,0,1,366,585Z" transform="translate(-327 -292.4)"/><path class="cls-6" d="M366,454h0a8,8,0,0,1-8-8V422a8,8,0,0,1,8-8h0a8,8,0,0,1,8,8v24A8,8,0,0,1,366,454Z" transform="translate(-327 -292.4)"/><path class="cls-6" d="M366,585h0a8,8,0,0,1-8-8V553a8,8,0,0,1,8-8h0a8,8,0,0,1,8,8v24A8,8,0,0,1,366,585Z" transform="translate(-327 -292.4)"/><circle class="cls-9" cx="173" cy="207.1" r="25"/><circle class="cls-10" cx="173" cy="207.1" r="11.2"/><circle class="cls-11" cx="173" cy="207.1" r="23"/><line class="cls-12" x1="371" y1="54.9" x2="350.8" y2="52.1"/><line class="cls-12" x1="322.9" y1="23.2" x2="319.9" y2="3"/><line class="cls-12" x1="342.9" y1="30.5" x2="357.4" y2="16"/></svg>