<svg width="64" height="54" viewBox="0 0 64 54" fill="none" xmlns="http://www.w3.org/2000/svg">
<path fill-rule="evenodd" clip-rule="evenodd" d="M40.2902 31.1384L33.4809 14.2955H16.4576L21.9786 0.748047H42.0385L57.4975 38.919H51.9764C46.7314 38.919 42.2226 35.9898 40.2902 31.1384ZM58.2336 40.7498L63.5 53.748H49.492H16.4576L19.2181 46.9743C20.7824 43.1297 24.3711 40.7498 28.5119 40.7498H58.2336ZM25.7514 18.7809C26.9476 20.5201 27.1316 22.5339 26.3955 24.4562L14.5104 53.748H0.5L15.7214 16.0347H20.5984C22.7148 16.0347 24.5551 17.0417 25.7514 18.7809Z" fill="url(#paint0_linear_263_527)" fill-opacity="0.12"/>
<path fill-rule="evenodd" clip-rule="evenodd" d="M40.2902 31.1384L33.4809 14.2955H16.4576L21.9786 0.748047H42.0385L57.4975 38.919H51.9764C46.7314 38.919 42.2226 35.9898 40.2902 31.1384ZM58.2336 40.7498L63.5 53.748H49.492H16.4576L19.2181 46.9743C20.7824 43.1297 24.3711 40.7498 28.5119 40.7498H58.2336ZM25.7514 18.7809C26.9476 20.5201 27.1316 22.5339 26.3955 24.4562L14.5104 53.748H0.5L15.7214 16.0347H20.5984C22.7148 16.0347 24.5551 17.0417 25.7514 18.7809Z" fill="url(#paint1_linear_263_527)" fill-opacity="0.5"/>
<defs>
<linearGradient id="paint0_linear_263_527" x1="32" y1="0.748047" x2="32" y2="53.748" gradientUnits="userSpaceOnUse">
<stop stop-color="white"/>
<stop offset="1" stop-color="white" stop-opacity="0.29"/>
</linearGradient>
<linearGradient id="paint1_linear_263_527" x1="32" y1="0.748047" x2="32" y2="53.748" gradientUnits="userSpaceOnUse">
<stop stop-color="#FC8D4E"/>
<stop offset="1" stop-color="#FC8D4E" stop-opacity="0"/>
</linearGradient>
</defs>
</svg>
