<svg width="16" height="16" viewBox="0 0 16 16" fill="none" xmlns="http://www.w3.org/2000/svg">
<g clip-path="url(#clip0_263_186)">
<path fill-rule="evenodd" clip-rule="evenodd" d="M7.97616 -0.00012207C3.56555 -0.00012207 0 3.66654 0 8.20271C0 11.8287 2.28457 14.898 5.45388 15.9844C5.85012 16.066 5.99527 15.8079 5.99527 15.5907C5.99527 15.4005 5.9822 14.7487 5.9822 14.0695C3.76343 14.5585 3.30139 13.0917 3.30139 13.0917C2.94482 12.141 2.41649 11.8967 2.41649 11.8967C1.69029 11.3942 2.46939 11.3942 2.46939 11.3942C3.27494 11.4485 3.69763 12.2362 3.69763 12.2362C4.41061 13.4855 5.55951 13.1325 6.02171 12.9152C6.08767 12.3855 6.2991 12.0189 6.52359 11.8152C4.75396 11.625 2.89208 10.9189 2.89208 7.76804C2.89208 6.87171 3.20882 6.13838 3.71069 5.56804C3.63151 5.36438 3.35412 4.52221 3.79004 3.39504C3.79004 3.39504 4.46351 3.17771 5.98204 4.23704C6.63218 4.05749 7.30265 3.96615 7.97616 3.96538C8.64963 3.96538 9.33616 4.06054 9.97012 4.23704C11.4888 3.17771 12.1623 3.39504 12.1623 3.39504C12.5982 4.52221 12.3207 5.36438 12.2415 5.56804C12.7566 6.13838 13.0602 6.87171 13.0602 7.76804C13.0602 10.9189 11.1984 11.6114 9.41551 11.8152C9.70612 12.0732 9.9569 12.562 9.9569 13.3362C9.9569 14.4362 9.94384 15.319 9.94384 15.5905C9.94384 15.8079 10.0891 16.066 10.4852 15.9845C13.6545 14.8979 15.9391 11.8287 15.9391 8.20271C15.9522 3.66654 12.3736 -0.00012207 7.97616 -0.00012207Z" fill="#EAEAEA" fill-opacity="0.9"/>
</g>
<defs>
<clipPath id="clip0_263_186">
<rect width="16" height="16" fill="white"/>
</clipPath>
</defs>
</svg>
