<svg width="65" height="70" viewBox="0 0 65 70" fill="none" xmlns="http://www.w3.org/2000/svg">
<path d="M29.9146 43.6325L32.2677 44.0318L33.7571 42.125L32.911 39.8189L30.537 39.434L29.0615 41.3803L29.9146 43.6289V43.6325Z" fill="url(#paint0_linear_263_533)" fill-opacity="0.12"/>
<path d="M29.9146 43.6325L32.2677 44.0318L33.7571 42.125L32.911 39.8189L30.537 39.434L29.0615 41.3803L29.9146 43.6289V43.6325Z" fill="url(#paint1_linear_263_533)"/>
<path d="M40.1062 39.0454L39.2811 36.8976L37.0574 36.491L35.6694 38.3115L36.4386 40.4737L38.7007 40.8658L40.1062 39.049V39.0454Z" fill="url(#paint2_linear_263_533)" fill-opacity="0.12"/>
<path d="M40.1062 39.0454L39.2811 36.8976L37.0574 36.491L35.6694 38.3115L36.4386 40.4737L38.7007 40.8658L40.1062 39.049V39.0454Z" fill="url(#paint3_linear_263_533)"/>
<path d="M39.8475 30.6736L37.6797 30.2743L36.2812 32.0371L37.1099 34.167L39.2496 34.4692L40.6097 32.7423L39.851 30.6772L39.8475 30.6736Z" fill="url(#paint4_linear_263_533)" fill-opacity="0.12"/>
<path d="M39.8475 30.6736L37.6797 30.2743L36.2812 32.0371L37.1099 34.167L39.2496 34.4692L40.6097 32.7423L39.851 30.6772L39.8475 30.6736Z" fill="url(#paint5_linear_263_533)"/>
<path d="M35.9352 28.7056L35.0646 26.4571L32.7116 26.0578L31.2362 28.0041L32.0858 30.2706L34.4423 30.652L35.9352 28.7092V28.7056Z" fill="url(#paint6_linear_263_533)" fill-opacity="0.12"/>
<path d="M35.9352 28.7056L35.0646 26.4571L32.7116 26.0578L31.2362 28.0041L32.0858 30.2706L34.4423 30.652L35.9352 28.7092V28.7056Z" fill="url(#paint7_linear_263_533)"/>
<path d="M29.0124 28.6157L26.7678 28.2272L25.3238 30.062L26.1629 32.2494L28.3971 32.5624L29.7607 30.7779L29.0124 28.6193V28.6157Z" fill="url(#paint8_linear_263_533)" fill-opacity="0.12"/>
<path d="M29.0124 28.6157L26.7678 28.2272L25.3238 30.062L26.1629 32.2494L28.3971 32.5624L29.7607 30.7779L29.0124 28.6193V28.6157Z" fill="url(#paint9_linear_263_533)"/>
<path d="M25.3448 34.5375L23.9847 36.286L24.7924 38.4158L26.9321 38.718L28.2887 37.0091L27.537 34.8685L25.3413 34.5411L25.3448 34.5375Z" fill="url(#paint10_linear_263_533)" fill-opacity="0.12"/>
<path d="M25.3448 34.5375L23.9847 36.286L24.7924 38.4158L26.9321 38.718L28.2887 37.0091L27.537 34.8685L25.3413 34.5411L25.3448 34.5375Z" fill="url(#paint11_linear_263_533)"/>
<path d="M18.8801 28.882L18.013 31.4255L19.7297 33.4402L22.2995 32.9438L23.1666 30.3822L21.4499 28.3819L18.8801 28.8784V28.882Z" fill="url(#paint12_linear_263_533)" fill-opacity="0.12"/>
<path d="M18.8801 28.882L18.013 31.4255L19.7297 33.4402L22.2995 32.9438L23.1666 30.3822L21.4499 28.3819L18.8801 28.8784V28.882Z" fill="url(#paint13_linear_263_533)"/>
<path d="M22.8763 38.5274L21.24 36.563L18.7506 37.0271L17.915 39.4879L19.5827 41.4379L22.0371 40.9594L22.8728 38.531L22.8763 38.5274Z" fill="url(#paint14_linear_263_533)" fill-opacity="0.12"/>
<path d="M22.8763 38.5274L21.24 36.563L18.7506 37.0271L17.915 39.4879L19.5827 41.4379L22.0371 40.9594L22.8728 38.531L22.8763 38.5274Z" fill="url(#paint15_linear_263_533)"/>
<path d="M26.6804 46.8524L27.4846 44.4887L25.8937 42.5711L23.5512 43.1L22.7016 45.4277L24.3239 47.2949L26.6839 46.8488L26.6804 46.8524Z" fill="url(#paint16_linear_263_533)" fill-opacity="0.12"/>
<path d="M26.6804 46.8524L27.4846 44.4887L25.8937 42.5711L23.5512 43.1L22.7016 45.4277L24.3239 47.2949L26.6839 46.8488L26.6804 46.8524Z" fill="url(#paint17_linear_263_533)"/>
<path d="M33.8059 50.0399L34.5611 47.8094L33.0507 46.0105L30.7711 46.4387L30.0159 48.6692L31.5088 50.5364L33.8059 50.0399Z" fill="url(#paint18_linear_263_533)" fill-opacity="0.12"/>
<path d="M33.8059 50.0399L34.5611 47.8094L33.0507 46.0105L30.7711 46.4387L30.0159 48.6692L31.5088 50.5364L33.8059 50.0399Z" fill="url(#paint19_linear_263_533)"/>
<path d="M40.4557 46.6365L41.1795 44.5067L39.718 42.7546L37.5678 43.1684L36.7811 45.3306L38.2565 47.115L40.4557 46.6365Z" fill="url(#paint20_linear_263_533)" fill-opacity="0.12"/>
<path d="M40.4557 46.6365L41.1795 44.5067L39.718 42.7546L37.5678 43.1684L36.7811 45.3306L38.2565 47.115L40.4557 46.6365Z" fill="url(#paint21_linear_263_533)"/>
<path d="M42.7318 37.5524L41.8647 40.0959L43.5675 42.143L46.1023 41.6465L47.0183 39.121L45.3156 37.0559L42.7318 37.5524Z" fill="url(#paint22_linear_263_533)" fill-opacity="0.12"/>
<path d="M42.7318 37.5524L41.8647 40.0959L43.5675 42.143L46.1023 41.6465L47.0183 39.121L45.3156 37.0559L42.7318 37.5524Z" fill="url(#paint23_linear_263_533)"/>
<path d="M45.4625 29.0618L42.9592 29.5259L42.1236 31.9543L43.7458 33.9547L46.2492 33.4906L47.0848 31.0118L45.4625 29.0618Z" fill="url(#paint24_linear_263_533)" fill-opacity="0.12"/>
<path d="M45.4625 29.0618L42.9592 29.5259L42.1236 31.9543L43.7458 33.9547L46.2492 33.4906L47.0848 31.0118L45.4625 29.0618Z" fill="url(#paint25_linear_263_533)"/>
<path d="M42.6375 24.5216L41.0642 22.622L38.6727 23.0681L37.8686 25.4318L39.4594 27.3314L41.8334 26.8852L42.634 24.5216H42.6375Z" fill="url(#paint26_linear_263_533)" fill-opacity="0.12"/>
<path d="M42.6375 24.5216L41.0642 22.622L38.6727 23.0681L37.8686 25.4318L39.4594 27.3314L41.8334 26.8852L42.634 24.5216H42.6375Z" fill="url(#paint27_linear_263_533)"/>
<path d="M31.1907 20.4238L30.4355 22.6687L31.9459 24.4856L34.2255 24.0574L34.9807 21.7945L33.4703 19.9957L31.1907 20.4238Z" fill="url(#paint28_linear_263_533)" fill-opacity="0.12"/>
<path d="M31.1907 20.4238L30.4355 22.6687L31.9459 24.4856L34.2255 24.0574L34.9807 21.7945L33.4703 19.9957L31.1907 20.4238Z" fill="url(#paint29_linear_263_533)"/>
<path d="M23.9359 22.7875L23.1492 24.9497L24.6421 26.6658L26.8238 26.27L27.5476 24.0718L26.0721 22.3701L23.9359 22.7839V22.7875Z" fill="url(#paint30_linear_263_533)" fill-opacity="0.12"/>
<path d="M23.9359 22.7875L23.1492 24.9497L24.6421 26.6658L26.8238 26.27L27.5476 24.0718L26.0721 22.3701L23.9359 22.7839V22.7875Z" fill="url(#paint31_linear_263_533)"/>
<path d="M42.0116 20.1612L41.7075 17.2219L39.0747 16.0166L36.7637 17.8011L37.0853 20.7404L39.7006 21.8953L42.0116 20.1612Z" fill="url(#paint32_linear_263_533)" fill-opacity="0.12"/>
<path d="M42.0116 20.1612L41.7075 17.2219L39.0747 16.0166L36.7637 17.8011L37.0853 20.7404L39.7006 21.8953L42.0116 20.1612Z" fill="url(#paint33_linear_263_533)"/>
<path d="M28.4286 15.1208L26.2119 16.8225L26.5161 19.5963L29.0509 20.7512L31.2326 19.0495L30.9284 16.2433L28.4251 15.1208H28.4286Z" fill="url(#paint34_linear_263_533)" fill-opacity="0.12"/>
<path d="M28.4286 15.1208L26.2119 16.8225L26.5161 19.5963L29.0509 20.7512L31.2326 19.0495L30.9284 16.2433L28.4251 15.1208H28.4286Z" fill="url(#paint35_linear_263_533)"/>
<path d="M17.5934 24.9677L19.9674 26.0398L22.0862 24.4712L21.7645 21.7801L19.373 20.708L17.2857 22.327L17.5899 24.9713L17.5934 24.9677Z" fill="url(#paint36_linear_263_533)" fill-opacity="0.12"/>
<path d="M17.5934 24.9677L19.9674 26.0398L22.0862 24.4712L21.7645 21.7801L19.373 20.708L17.2857 22.327L17.5899 24.9713L17.5934 24.9677Z" fill="url(#paint37_linear_263_533)"/>
<path d="M17.5795 34.7102L17.3243 32.1846L15.0622 31.1449L13.0413 32.6631L13.363 35.2067L15.6111 36.196L17.5865 34.7102H17.5795Z" fill="url(#paint38_linear_263_533)" fill-opacity="0.12"/>
<path d="M17.5795 34.7102L17.3243 32.1846L15.0622 31.1449L13.0413 32.6631L13.363 35.2067L15.6111 36.196L17.5865 34.7102H17.5795Z" fill="url(#paint39_linear_263_533)"/>
<path d="M17.8836 46.6041L19.7611 45.1687L19.5059 42.7726L17.3557 41.7976L15.4782 43.2511L15.7334 45.6471L17.8836 46.6041Z" fill="url(#paint40_linear_263_533)" fill-opacity="0.12"/>
<path d="M17.8836 46.6041L19.7611 45.1687L19.5059 42.7726L17.3557 41.7976L15.4782 43.2511L15.7334 45.6471L17.8836 46.6041Z" fill="url(#paint41_linear_263_533)"/>
<path d="M25.9565 54.4651L28.2186 52.6806L27.9144 49.7557L25.2817 48.6009L22.9706 50.3349L23.2923 53.2743L25.9565 54.4651Z" fill="url(#paint42_linear_263_533)" fill-opacity="0.12"/>
<path d="M25.9565 54.4651L28.2186 52.6806L27.9144 49.7557L25.2817 48.6009L22.9706 50.3349L23.2923 53.2743L25.9565 54.4651Z" fill="url(#paint43_linear_263_533)"/>
<path d="M36.5995 55.3573L38.7812 53.706L38.477 50.8998L35.9876 49.7773L33.757 51.4286L34.0612 54.2528L36.596 55.3609L36.5995 55.3573Z" fill="url(#paint44_linear_263_533)" fill-opacity="0.12"/>
<path d="M36.5995 55.3573L38.7812 53.706L38.477 50.8998L35.9876 49.7773L33.757 51.4286L34.0612 54.2528L36.596 55.3609L36.5995 55.3573Z" fill="url(#paint45_linear_263_533)"/>
<path d="M47.4029 45.5285L45.0289 44.4384L42.9416 46.0393L43.2004 48.698L45.6093 49.7881L47.7106 48.1692L47.4064 45.5249L47.4029 45.5285Z" fill="url(#paint46_linear_263_533)" fill-opacity="0.12"/>
<path d="M47.4029 45.5285L45.0289 44.4384L42.9416 46.0393L43.2004 48.698L45.6093 49.7881L47.7106 48.1692L47.4064 45.5249L47.4029 45.5285Z" fill="url(#paint47_linear_263_533)"/>
<path d="M49.9554 39.3512L51.9448 37.815L51.6407 35.2894L49.3785 34.3001L47.4206 35.8183L47.6758 38.3439L49.9554 39.3512Z" fill="url(#paint48_linear_263_533)" fill-opacity="0.12"/>
<path d="M49.9554 39.3512L51.9448 37.815L51.6407 35.2894L49.3785 34.3001L47.4206 35.8183L47.6758 38.3439L49.9554 39.3512Z" fill="url(#paint49_linear_263_533)"/>
<path d="M49.5218 27.245L49.2666 24.8489L47.1163 23.8919L45.2388 25.3274L45.4976 27.7235L47.6478 28.6984L49.5253 27.245H49.5218Z" fill="url(#paint50_linear_263_533)" fill-opacity="0.12"/>
<path d="M49.5218 27.245L49.2666 24.8489L47.1163 23.8919L45.2388 25.3274L45.4976 27.7235L47.6478 28.6984L49.5253 27.245H49.5218Z" fill="url(#paint51_linear_263_533)"/>
<path d="M55.1404 28.6481L52.172 27.6407L49.8294 29.8389L50.5182 32.9761L53.4866 33.9835L55.8291 31.7853L55.1404 28.6481Z" fill="url(#paint52_linear_263_533)" fill-opacity="0.12"/>
<path d="M55.1404 28.6481L52.172 27.6407L49.8294 29.8389L50.5182 32.9761L53.4866 33.9835L55.8291 31.7853L55.1404 28.6481Z" fill="url(#paint53_linear_263_533)"/>
<path d="M44.1445 21.3664L46.9695 22.3234L49.1862 20.2763L48.5604 17.2686L45.7353 16.3116L43.5187 18.3767L44.1445 21.3664Z" fill="url(#paint54_linear_263_533)" fill-opacity="0.12"/>
<path d="M44.1445 21.3664L46.9695 22.3234L49.1862 20.2763L48.5604 17.2686L45.7353 16.3116L43.5187 18.3767L44.1445 21.3664Z" fill="url(#paint55_linear_263_533)"/>
<path d="M32.1556 13.1061L32.75 15.9483L35.4317 16.8585L37.519 14.9086L36.9246 12.0664L34.2429 11.1562L32.1556 13.1061Z" fill="url(#paint56_linear_263_533)" fill-opacity="0.12"/>
<path d="M32.1556 13.1061L32.75 15.9483L35.4317 16.8585L37.519 14.9086L36.9246 12.0664L34.2429 11.1562L32.1556 13.1061Z" fill="url(#paint57_linear_263_533)"/>
<path d="M22.5232 19.4992L24.5126 17.65L23.9672 14.9913L21.4463 14.1314L19.4569 15.9482L19.9849 18.6393L22.5197 19.4992H22.5232Z" fill="url(#paint58_linear_263_533)" fill-opacity="0.12"/>
<path d="M22.5232 19.4992L24.5126 17.65L23.9672 14.9913L21.4463 14.1314L19.4569 15.9482L19.9849 18.6393L22.5197 19.4992H22.5232Z" fill="url(#paint59_linear_263_533)"/>
<path d="M14.0623 29.0295L15.9258 27.2774L15.4119 24.7662L13.0379 23.9747L11.1603 25.6764L11.6743 28.22L14.0658 29.0295H14.0623Z" fill="url(#paint60_linear_263_533)" fill-opacity="0.12"/>
<path d="M14.0623 29.0295L15.9258 27.2774L15.4119 24.7662L13.0379 23.9747L11.1603 25.6764L11.6743 28.22L14.0658 29.0295H14.0623Z" fill="url(#paint61_linear_263_533)"/>
<path d="M9.84225 41.848L12.8106 42.8554L15.1531 40.7075L14.5098 37.52L11.5065 36.5126L9.16396 38.6928L9.83875 41.848H9.84225Z" fill="url(#paint62_linear_263_533)" fill-opacity="0.12"/>
<path d="M9.84225 41.848L12.8106 42.8554L15.1531 40.7075L14.5098 37.52L11.5065 36.5126L9.16396 38.6928L9.83875 41.848H9.84225Z" fill="url(#paint63_linear_263_533)"/>
<path d="M20.8555 49.1297L18.013 48.1728L15.8138 50.2522L16.4221 53.2599L19.2647 54.1701L21.4638 52.123L20.8555 49.1333V49.1297Z" fill="url(#paint64_linear_263_533)" fill-opacity="0.12"/>
<path d="M20.8555 49.1297L18.013 48.1728L15.8138 50.2522L16.4221 53.2599L19.2647 54.1701L21.4638 52.123L20.8555 49.1333V49.1297Z" fill="url(#paint65_linear_263_533)"/>
<path d="M32.8269 57.39L32.2815 54.5334L29.5998 53.6736L27.481 55.5732L28.0754 58.4297L30.7571 59.3363L32.8269 57.3864V57.39Z" fill="url(#paint66_linear_263_533)" fill-opacity="0.12"/>
<path d="M32.8269 57.39L32.2815 54.5334L29.5998 53.6736L27.481 55.5732L28.0754 58.4297L30.7571 59.3363L32.8269 57.3864V57.39Z" fill="url(#paint67_linear_263_533)"/>
<path d="M42.4768 50.9969L40.4874 52.8461L41.0643 55.5372L43.5991 56.3467L45.5431 54.5478L45.0116 51.8568L42.4768 50.9969Z" fill="url(#paint68_linear_263_533)" fill-opacity="0.12"/>
<path d="M42.4768 50.9969L40.4874 52.8461L41.0643 55.5372L43.5991 56.3467L45.5431 54.5478L45.0116 51.8568L42.4768 50.9969Z" fill="url(#paint69_linear_263_533)"/>
<path d="M51.9621 46.5214L53.8257 44.8017L53.3117 42.2905L50.9377 41.481L49.0602 43.2007L49.5881 45.7119L51.9621 46.5214Z" fill="url(#paint70_linear_263_533)" fill-opacity="0.12"/>
<path d="M51.9621 46.5214L53.8257 44.8017L53.3117 42.2905L50.9377 41.481L49.0602 43.2007L49.5881 45.7119L51.9621 46.5214Z" fill="url(#paint71_linear_263_533)"/>
<path d="M50.7106 48.1548L48.5289 50.9286L49.7666 54.2636L53.186 54.8249L55.3852 52.051L54.1475 48.716L50.7141 48.1548H50.7106Z" fill="url(#paint72_linear_263_533)" fill-opacity="0.12"/>
<path d="M50.7106 48.1548L48.5289 50.9286L49.7666 54.2636L53.186 54.8249L55.3852 52.051L54.1475 48.716L50.7141 48.1548H50.7106Z" fill="url(#paint73_linear_263_533)"/>
<path d="M60.7275 37.0415L59.5387 33.9043L56.3117 33.3934L54.2418 35.9874L55.4446 39.1749L58.6717 39.6714L60.7275 37.0451V37.0415Z" fill="url(#paint74_linear_263_533)" fill-opacity="0.12"/>
<path d="M60.7275 37.0415L59.5387 33.9043L56.3117 33.3934L54.2418 35.9874L55.4446 39.1749L58.6717 39.6714L60.7275 37.0451V37.0415Z" fill="url(#paint75_linear_263_533)"/>
<path d="M50.5321 20.8879L51.6544 23.8596L54.6892 24.3381L56.6472 21.8952L55.5249 18.9379L52.4761 18.4091L50.5321 20.8879Z" fill="url(#paint76_linear_263_533)" fill-opacity="0.12"/>
<path d="M50.5321 20.8879L51.6544 23.8596L54.6892 24.3381L56.6472 21.8952L55.5249 18.9379L52.4761 18.4091L50.5321 20.8879Z" fill="url(#paint77_linear_263_533)"/>
<path d="M42.33 13.9156L44.1446 11.5879L43.1027 8.81404L40.2462 8.33555L38.4316 10.6633L39.4735 13.4551L42.33 13.9192V13.9156Z" fill="url(#paint78_linear_263_533)" fill-opacity="0.12"/>
<path d="M42.33 13.9156L44.1446 11.5879L43.1027 8.81404L40.2462 8.33555L38.4316 10.6633L39.4735 13.4551L42.33 13.9192V13.9156Z" fill="url(#paint79_linear_263_533)"/>
<path d="M27.0648 12.9406L28.7501 10.7604L27.7886 8.19884L25.1384 7.75273L23.4217 9.91494L24.3832 12.4909L27.0648 12.937V12.9406Z" fill="url(#paint80_linear_263_533)" fill-opacity="0.12"/>
<path d="M27.0648 12.9406L28.7501 10.7604L27.7886 8.19884L25.1384 7.75273L23.4217 9.91494L24.3832 12.4909L27.0648 12.937V12.9406Z" fill="url(#paint81_linear_263_533)"/>
<path d="M14.2895 22.3414L16.4712 19.5999L15.2335 16.2289L11.8141 15.7L9.63241 18.4415L10.8701 21.8125L14.2895 22.3414Z" fill="url(#paint82_linear_263_533)" fill-opacity="0.12"/>
<path d="M14.2895 22.3414L16.4712 19.5999L15.2335 16.2289L11.8141 15.7L9.63241 18.4415L10.8701 21.8125L14.2895 22.3414Z" fill="url(#paint83_linear_263_533)"/>
<path d="M4.25512 33.4546L5.44387 36.5918L8.67097 37.1027L10.7408 34.5087L9.58351 31.3536L6.32494 30.8103L4.25512 33.4546Z" fill="url(#paint84_linear_263_533)" fill-opacity="0.12"/>
<path d="M4.25512 33.4546L5.44387 36.5918L8.67097 37.1027L10.7408 34.5087L9.58351 31.3536L6.32494 30.8103L4.25512 33.4546Z" fill="url(#paint85_linear_263_533)"/>
<path d="M14.4503 49.5938L13.342 46.6365L10.3072 46.1401L8.38071 48.6189L9.45757 51.5905L12.5238 52.069L14.4503 49.5902V49.5938Z" fill="url(#paint86_linear_263_533)" fill-opacity="0.12"/>
<path d="M14.4503 49.5938L13.342 46.6365L10.3072 46.1401L8.38071 48.6189L9.45757 51.5905L12.5238 52.069L14.4503 49.5902V49.5938Z" fill="url(#paint87_linear_263_533)"/>
<path d="M22.6666 56.5985L20.852 58.8938L21.8799 61.6856L24.7364 62.1497L26.551 59.822L25.5091 57.0806L22.6666 56.6021V56.5985Z" fill="url(#paint88_linear_263_533)" fill-opacity="0.12"/>
<path d="M22.6666 56.5985L20.852 58.8938L21.8799 61.6856L24.7364 62.1497L26.551 59.822L25.5091 57.0806L22.6666 56.6021V56.5985Z" fill="url(#paint89_linear_263_533)"/>
<path d="M37.9316 57.5555L36.2464 59.7357L37.2114 62.2972L39.8931 62.7434L41.5783 60.5632L40.6133 58.0016L37.9316 57.5555Z" fill="url(#paint90_linear_263_533)" fill-opacity="0.12"/>
<path d="M37.9316 57.5555L36.2464 59.7357L37.2114 62.2972L39.8931 62.7434L41.5783 60.5632L40.6133 58.0016L37.9316 57.5555Z" fill="url(#paint91_linear_263_533)"/>
<path d="M30.5335 62.8585L28.6245 66.2943L30.5335 69.748H34.4004L36.3583 66.2943L34.4004 62.8585H30.5335Z" fill="url(#paint92_linear_263_533)" fill-opacity="0.12"/>
<path d="M30.5335 62.8585L28.6245 66.2943L30.5335 69.748H34.4004L36.3583 66.2943L34.4004 62.8585H30.5335Z" fill="url(#paint93_linear_263_533)"/>
<path d="M48.4625 57.077L46.6479 60.3149L48.4625 63.5529H52.0917L53.9063 60.3149L52.0917 57.077H48.4625Z" fill="url(#paint94_linear_263_533)" fill-opacity="0.12"/>
<path d="M48.4625 57.077L46.6479 60.3149L48.4625 63.5529H52.0917L53.9063 60.3149L52.0917 57.077H48.4625Z" fill="url(#paint95_linear_263_533)"/>
<path d="M62.7973 42.0279H59.3954L57.7102 45.0499L59.3954 48.09H62.7973L64.5 45.0499L62.7973 42.0279Z" fill="url(#paint96_linear_263_533)" fill-opacity="0.12"/>
<path d="M62.7973 42.0279H59.3954L57.7102 45.0499L59.3954 48.09H62.7973L64.5 45.0499L62.7973 42.0279Z" fill="url(#paint97_linear_263_533)"/>
<path d="M62.6678 28.2523L64.2726 25.4282L62.6678 22.604H59.5386L57.9338 25.4282L59.5386 28.2523H62.6678Z" fill="url(#paint98_linear_263_533)" fill-opacity="0.12"/>
<path d="M62.6678 28.2523L64.2726 25.4282L62.6678 22.604H59.5386L57.9338 25.4282L59.5386 28.2523H62.6678Z" fill="url(#paint99_linear_263_533)"/>
<path d="M51.7383 12.7931L53.2138 10.1668L51.7383 7.59085H48.8329L47.3574 10.1668L48.8329 12.7931L51.7383 12.7931Z" fill="url(#paint100_linear_263_533)" fill-opacity="0.12"/>
<path d="M51.7383 12.7931L53.2138 10.1668L51.7383 7.59085H48.8329L47.3574 10.1668L48.8329 12.7931L51.7383 12.7931Z" fill="url(#paint101_linear_263_533)"/>
<path d="M34.4667 7.63761L36.3757 4.18384L34.4667 0.748047L30.5998 0.748047L28.6733 4.18384L30.5998 7.63761L34.4667 7.63761Z" fill="url(#paint102_linear_263_533)" fill-opacity="0.12"/>
<path d="M34.4667 7.63761L36.3757 4.18384L34.4667 0.748047L30.5998 0.748047L28.6733 4.18384L30.5998 7.63761L34.4667 7.63761Z" fill="url(#paint103_linear_263_533)"/>
<path d="M16.52 13.4191L18.3346 10.1812L16.52 6.94325L12.9083 6.94325L11.0798 10.1812L12.9083 13.4191H16.52Z" fill="url(#paint104_linear_263_533)" fill-opacity="0.12"/>
<path d="M16.52 13.4191L18.3346 10.1812L16.52 6.94325L12.9083 6.94325L11.0798 10.1812L12.9083 13.4191H16.52Z" fill="url(#paint105_linear_263_533)"/>
<path d="M5.58714 28.4682L7.28984 25.4281L5.58714 22.4061H2.20271L0.5 25.4281L2.20271 28.4682H5.59063H5.58714Z" fill="url(#paint106_linear_263_533)" fill-opacity="0.12"/>
<path d="M5.58714 28.4682L7.28984 25.4281L5.58714 22.4061H2.20271L0.5 25.4281L2.20271 28.4682H5.59063H5.58714Z" fill="url(#paint107_linear_263_533)"/>
<path d="M2.32845 42.2258L0.723641 45.05L2.32845 47.8921H5.48912L7.06246 45.05L5.48912 42.2258H2.32845Z" fill="url(#paint108_linear_263_533)" fill-opacity="0.12"/>
<path d="M2.32845 42.2258L0.723641 45.05L2.32845 47.8921H5.48912L7.06246 45.05L5.48912 42.2258H2.32845Z" fill="url(#paint109_linear_263_533)"/>
<path d="M13.2442 57.703L11.7688 60.3113L13.2442 62.9377H16.1671L17.6426 60.3113L16.1671 57.703H13.2442Z" fill="url(#paint110_linear_263_533)" fill-opacity="0.12"/>
<path d="M13.2442 57.703L11.7688 60.3113L13.2442 62.9377H16.1671L17.6426 60.3113L16.1671 57.703H13.2442Z" fill="url(#paint111_linear_263_533)"/>
<defs>
<linearGradient id="paint0_linear_263_533" x1="32.5" y1="0.748047" x2="32.5" y2="69.748" gradientUnits="userSpaceOnUse">
<stop stop-color="white"/>
<stop offset="1" stop-color="white" stop-opacity="0.29"/>
</linearGradient>
<linearGradient id="paint1_linear_263_533" x1="32.5" y1="1.19035" x2="22.23" y2="68.6263" gradientUnits="userSpaceOnUse">
<stop stop-color="#7F96FF"/>
<stop offset="0.361662" stop-color="#F58E8E"/>
<stop offset="1" stop-color="#F2D398" stop-opacity="0"/>
</linearGradient>
<linearGradient id="paint2_linear_263_533" x1="32.5" y1="0.748047" x2="32.5" y2="69.748" gradientUnits="userSpaceOnUse">
<stop stop-color="white"/>
<stop offset="1" stop-color="white" stop-opacity="0.29"/>
</linearGradient>
<linearGradient id="paint3_linear_263_533" x1="32.5" y1="1.19035" x2="22.23" y2="68.6263" gradientUnits="userSpaceOnUse">
<stop stop-color="#7F96FF"/>
<stop offset="0.361662" stop-color="#F58E8E"/>
<stop offset="1" stop-color="#F2D398" stop-opacity="0"/>
</linearGradient>
<linearGradient id="paint4_linear_263_533" x1="32.5" y1="0.748047" x2="32.5" y2="69.748" gradientUnits="userSpaceOnUse">
<stop stop-color="white"/>
<stop offset="1" stop-color="white" stop-opacity="0.29"/>
</linearGradient>
<linearGradient id="paint5_linear_263_533" x1="32.5" y1="1.19035" x2="22.23" y2="68.6263" gradientUnits="userSpaceOnUse">
<stop stop-color="#7F96FF"/>
<stop offset="0.361662" stop-color="#F58E8E"/>
<stop offset="1" stop-color="#F2D398" stop-opacity="0"/>
</linearGradient>
<linearGradient id="paint6_linear_263_533" x1="32.5" y1="0.748047" x2="32.5" y2="69.748" gradientUnits="userSpaceOnUse">
<stop stop-color="white"/>
<stop offset="1" stop-color="white" stop-opacity="0.29"/>
</linearGradient>
<linearGradient id="paint7_linear_263_533" x1="32.5" y1="1.19035" x2="22.23" y2="68.6263" gradientUnits="userSpaceOnUse">
<stop stop-color="#7F96FF"/>
<stop offset="0.361662" stop-color="#F58E8E"/>
<stop offset="1" stop-color="#F2D398" stop-opacity="0"/>
</linearGradient>
<linearGradient id="paint8_linear_263_533" x1="32.5" y1="0.748047" x2="32.5" y2="69.748" gradientUnits="userSpaceOnUse">
<stop stop-color="white"/>
<stop offset="1" stop-color="white" stop-opacity="0.29"/>
</linearGradient>
<linearGradient id="paint9_linear_263_533" x1="32.5" y1="1.19035" x2="22.23" y2="68.6263" gradientUnits="userSpaceOnUse">
<stop stop-color="#7F96FF"/>
<stop offset="0.361662" stop-color="#F58E8E"/>
<stop offset="1" stop-color="#F2D398" stop-opacity="0"/>
</linearGradient>
<linearGradient id="paint10_linear_263_533" x1="32.5" y1="0.748047" x2="32.5" y2="69.748" gradientUnits="userSpaceOnUse">
<stop stop-color="white"/>
<stop offset="1" stop-color="white" stop-opacity="0.29"/>
</linearGradient>
<linearGradient id="paint11_linear_263_533" x1="32.5" y1="1.19035" x2="22.23" y2="68.6263" gradientUnits="userSpaceOnUse">
<stop stop-color="#7F96FF"/>
<stop offset="0.361662" stop-color="#F58E8E"/>
<stop offset="1" stop-color="#F2D398" stop-opacity="0"/>
</linearGradient>
<linearGradient id="paint12_linear_263_533" x1="32.5" y1="0.748047" x2="32.5" y2="69.748" gradientUnits="userSpaceOnUse">
<stop stop-color="white"/>
<stop offset="1" stop-color="white" stop-opacity="0.29"/>
</linearGradient>
<linearGradient id="paint13_linear_263_533" x1="32.5" y1="1.19035" x2="22.23" y2="68.6263" gradientUnits="userSpaceOnUse">
<stop stop-color="#7F96FF"/>
<stop offset="0.361662" stop-color="#F58E8E"/>
<stop offset="1" stop-color="#F2D398" stop-opacity="0"/>
</linearGradient>
<linearGradient id="paint14_linear_263_533" x1="32.5" y1="0.748047" x2="32.5" y2="69.748" gradientUnits="userSpaceOnUse">
<stop stop-color="white"/>
<stop offset="1" stop-color="white" stop-opacity="0.29"/>
</linearGradient>
<linearGradient id="paint15_linear_263_533" x1="32.5" y1="1.19035" x2="22.23" y2="68.6263" gradientUnits="userSpaceOnUse">
<stop stop-color="#7F96FF"/>
<stop offset="0.361662" stop-color="#F58E8E"/>
<stop offset="1" stop-color="#F2D398" stop-opacity="0"/>
</linearGradient>
<linearGradient id="paint16_linear_263_533" x1="32.5" y1="0.748047" x2="32.5" y2="69.748" gradientUnits="userSpaceOnUse">
<stop stop-color="white"/>
<stop offset="1" stop-color="white" stop-opacity="0.29"/>
</linearGradient>
<linearGradient id="paint17_linear_263_533" x1="32.5" y1="1.19035" x2="22.23" y2="68.6263" gradientUnits="userSpaceOnUse">
<stop stop-color="#7F96FF"/>
<stop offset="0.361662" stop-color="#F58E8E"/>
<stop offset="1" stop-color="#F2D398" stop-opacity="0"/>
</linearGradient>
<linearGradient id="paint18_linear_263_533" x1="32.5" y1="0.748047" x2="32.5" y2="69.748" gradientUnits="userSpaceOnUse">
<stop stop-color="white"/>
<stop offset="1" stop-color="white" stop-opacity="0.29"/>
</linearGradient>
<linearGradient id="paint19_linear_263_533" x1="32.5" y1="1.19035" x2="22.23" y2="68.6263" gradientUnits="userSpaceOnUse">
<stop stop-color="#7F96FF"/>
<stop offset="0.361662" stop-color="#F58E8E"/>
<stop offset="1" stop-color="#F2D398" stop-opacity="0"/>
</linearGradient>
<linearGradient id="paint20_linear_263_533" x1="32.5" y1="0.748047" x2="32.5" y2="69.748" gradientUnits="userSpaceOnUse">
<stop stop-color="white"/>
<stop offset="1" stop-color="white" stop-opacity="0.29"/>
</linearGradient>
<linearGradient id="paint21_linear_263_533" x1="32.5" y1="1.19035" x2="22.23" y2="68.6263" gradientUnits="userSpaceOnUse">
<stop stop-color="#7F96FF"/>
<stop offset="0.361662" stop-color="#F58E8E"/>
<stop offset="1" stop-color="#F2D398" stop-opacity="0"/>
</linearGradient>
<linearGradient id="paint22_linear_263_533" x1="32.5" y1="0.748047" x2="32.5" y2="69.748" gradientUnits="userSpaceOnUse">
<stop stop-color="white"/>
<stop offset="1" stop-color="white" stop-opacity="0.29"/>
</linearGradient>
<linearGradient id="paint23_linear_263_533" x1="32.5" y1="1.19035" x2="22.23" y2="68.6263" gradientUnits="userSpaceOnUse">
<stop stop-color="#7F96FF"/>
<stop offset="0.361662" stop-color="#F58E8E"/>
<stop offset="1" stop-color="#F2D398" stop-opacity="0"/>
</linearGradient>
<linearGradient id="paint24_linear_263_533" x1="32.5" y1="0.748047" x2="32.5" y2="69.748" gradientUnits="userSpaceOnUse">
<stop stop-color="white"/>
<stop offset="1" stop-color="white" stop-opacity="0.29"/>
</linearGradient>
<linearGradient id="paint25_linear_263_533" x1="32.5" y1="1.19035" x2="22.23" y2="68.6263" gradientUnits="userSpaceOnUse">
<stop stop-color="#7F96FF"/>
<stop offset="0.361662" stop-color="#F58E8E"/>
<stop offset="1" stop-color="#F2D398" stop-opacity="0"/>
</linearGradient>
<linearGradient id="paint26_linear_263_533" x1="32.5" y1="0.748047" x2="32.5" y2="69.748" gradientUnits="userSpaceOnUse">
<stop stop-color="white"/>
<stop offset="1" stop-color="white" stop-opacity="0.29"/>
</linearGradient>
<linearGradient id="paint27_linear_263_533" x1="32.5" y1="1.19035" x2="22.23" y2="68.6263" gradientUnits="userSpaceOnUse">
<stop stop-color="#7F96FF"/>
<stop offset="0.361662" stop-color="#F58E8E"/>
<stop offset="1" stop-color="#F2D398" stop-opacity="0"/>
</linearGradient>
<linearGradient id="paint28_linear_263_533" x1="32.5" y1="0.748047" x2="32.5" y2="69.748" gradientUnits="userSpaceOnUse">
<stop stop-color="white"/>
<stop offset="1" stop-color="white" stop-opacity="0.29"/>
</linearGradient>
<linearGradient id="paint29_linear_263_533" x1="32.5" y1="1.19035" x2="22.23" y2="68.6263" gradientUnits="userSpaceOnUse">
<stop stop-color="#7F96FF"/>
<stop offset="0.361662" stop-color="#F58E8E"/>
<stop offset="1" stop-color="#F2D398" stop-opacity="0"/>
</linearGradient>
<linearGradient id="paint30_linear_263_533" x1="32.5" y1="0.748047" x2="32.5" y2="69.748" gradientUnits="userSpaceOnUse">
<stop stop-color="white"/>
<stop offset="1" stop-color="white" stop-opacity="0.29"/>
</linearGradient>
<linearGradient id="paint31_linear_263_533" x1="32.5" y1="1.19035" x2="22.23" y2="68.6263" gradientUnits="userSpaceOnUse">
<stop stop-color="#7F96FF"/>
<stop offset="0.361662" stop-color="#F58E8E"/>
<stop offset="1" stop-color="#F2D398" stop-opacity="0"/>
</linearGradient>
<linearGradient id="paint32_linear_263_533" x1="32.5" y1="0.748047" x2="32.5" y2="69.748" gradientUnits="userSpaceOnUse">
<stop stop-color="white"/>
<stop offset="1" stop-color="white" stop-opacity="0.29"/>
</linearGradient>
<linearGradient id="paint33_linear_263_533" x1="32.5" y1="1.19035" x2="22.23" y2="68.6263" gradientUnits="userSpaceOnUse">
<stop stop-color="#7F96FF"/>
<stop offset="0.361662" stop-color="#F58E8E"/>
<stop offset="1" stop-color="#F2D398" stop-opacity="0"/>
</linearGradient>
<linearGradient id="paint34_linear_263_533" x1="32.5" y1="0.748047" x2="32.5" y2="69.748" gradientUnits="userSpaceOnUse">
<stop stop-color="white"/>
<stop offset="1" stop-color="white" stop-opacity="0.29"/>
</linearGradient>
<linearGradient id="paint35_linear_263_533" x1="32.5" y1="1.19035" x2="22.23" y2="68.6263" gradientUnits="userSpaceOnUse">
<stop stop-color="#7F96FF"/>
<stop offset="0.361662" stop-color="#F58E8E"/>
<stop offset="1" stop-color="#F2D398" stop-opacity="0"/>
</linearGradient>
<linearGradient id="paint36_linear_263_533" x1="32.5" y1="0.748047" x2="32.5" y2="69.748" gradientUnits="userSpaceOnUse">
<stop stop-color="white"/>
<stop offset="1" stop-color="white" stop-opacity="0.29"/>
</linearGradient>
<linearGradient id="paint37_linear_263_533" x1="32.5" y1="1.19035" x2="22.23" y2="68.6263" gradientUnits="userSpaceOnUse">
<stop stop-color="#7F96FF"/>
<stop offset="0.361662" stop-color="#F58E8E"/>
<stop offset="1" stop-color="#F2D398" stop-opacity="0"/>
</linearGradient>
<linearGradient id="paint38_linear_263_533" x1="32.5" y1="0.748047" x2="32.5" y2="69.748" gradientUnits="userSpaceOnUse">
<stop stop-color="white"/>
<stop offset="1" stop-color="white" stop-opacity="0.29"/>
</linearGradient>
<linearGradient id="paint39_linear_263_533" x1="32.5" y1="1.19035" x2="22.23" y2="68.6263" gradientUnits="userSpaceOnUse">
<stop stop-color="#7F96FF"/>
<stop offset="0.361662" stop-color="#F58E8E"/>
<stop offset="1" stop-color="#F2D398" stop-opacity="0"/>
</linearGradient>
<linearGradient id="paint40_linear_263_533" x1="32.5" y1="0.748047" x2="32.5" y2="69.748" gradientUnits="userSpaceOnUse">
<stop stop-color="white"/>
<stop offset="1" stop-color="white" stop-opacity="0.29"/>
</linearGradient>
<linearGradient id="paint41_linear_263_533" x1="32.5" y1="1.19035" x2="22.23" y2="68.6263" gradientUnits="userSpaceOnUse">
<stop stop-color="#7F96FF"/>
<stop offset="0.361662" stop-color="#F58E8E"/>
<stop offset="1" stop-color="#F2D398" stop-opacity="0"/>
</linearGradient>
<linearGradient id="paint42_linear_263_533" x1="32.5" y1="0.748047" x2="32.5" y2="69.748" gradientUnits="userSpaceOnUse">
<stop stop-color="white"/>
<stop offset="1" stop-color="white" stop-opacity="0.29"/>
</linearGradient>
<linearGradient id="paint43_linear_263_533" x1="32.5" y1="1.19035" x2="22.23" y2="68.6263" gradientUnits="userSpaceOnUse">
<stop stop-color="#7F96FF"/>
<stop offset="0.361662" stop-color="#F58E8E"/>
<stop offset="1" stop-color="#F2D398" stop-opacity="0"/>
</linearGradient>
<linearGradient id="paint44_linear_263_533" x1="32.5" y1="0.748047" x2="32.5" y2="69.748" gradientUnits="userSpaceOnUse">
<stop stop-color="white"/>
<stop offset="1" stop-color="white" stop-opacity="0.29"/>
</linearGradient>
<linearGradient id="paint45_linear_263_533" x1="32.5" y1="1.19035" x2="22.23" y2="68.6263" gradientUnits="userSpaceOnUse">
<stop stop-color="#7F96FF"/>
<stop offset="0.361662" stop-color="#F58E8E"/>
<stop offset="1" stop-color="#F2D398" stop-opacity="0"/>
</linearGradient>
<linearGradient id="paint46_linear_263_533" x1="32.5" y1="0.748047" x2="32.5" y2="69.748" gradientUnits="userSpaceOnUse">
<stop stop-color="white"/>
<stop offset="1" stop-color="white" stop-opacity="0.29"/>
</linearGradient>
<linearGradient id="paint47_linear_263_533" x1="32.5" y1="1.19035" x2="22.23" y2="68.6263" gradientUnits="userSpaceOnUse">
<stop stop-color="#7F96FF"/>
<stop offset="0.361662" stop-color="#F58E8E"/>
<stop offset="1" stop-color="#F2D398" stop-opacity="0"/>
</linearGradient>
<linearGradient id="paint48_linear_263_533" x1="32.5" y1="0.748047" x2="32.5" y2="69.748" gradientUnits="userSpaceOnUse">
<stop stop-color="white"/>
<stop offset="1" stop-color="white" stop-opacity="0.29"/>
</linearGradient>
<linearGradient id="paint49_linear_263_533" x1="32.5" y1="1.19035" x2="22.23" y2="68.6263" gradientUnits="userSpaceOnUse">
<stop stop-color="#7F96FF"/>
<stop offset="0.361662" stop-color="#F58E8E"/>
<stop offset="1" stop-color="#F2D398" stop-opacity="0"/>
</linearGradient>
<linearGradient id="paint50_linear_263_533" x1="32.5" y1="0.748047" x2="32.5" y2="69.748" gradientUnits="userSpaceOnUse">
<stop stop-color="white"/>
<stop offset="1" stop-color="white" stop-opacity="0.29"/>
</linearGradient>
<linearGradient id="paint51_linear_263_533" x1="32.5" y1="1.19035" x2="22.23" y2="68.6263" gradientUnits="userSpaceOnUse">
<stop stop-color="#7F96FF"/>
<stop offset="0.361662" stop-color="#F58E8E"/>
<stop offset="1" stop-color="#F2D398" stop-opacity="0"/>
</linearGradient>
<linearGradient id="paint52_linear_263_533" x1="32.5" y1="0.748047" x2="32.5" y2="69.748" gradientUnits="userSpaceOnUse">
<stop stop-color="white"/>
<stop offset="1" stop-color="white" stop-opacity="0.29"/>
</linearGradient>
<linearGradient id="paint53_linear_263_533" x1="32.5" y1="1.19035" x2="22.23" y2="68.6263" gradientUnits="userSpaceOnUse">
<stop stop-color="#7F96FF"/>
<stop offset="0.361662" stop-color="#F58E8E"/>
<stop offset="1" stop-color="#F2D398" stop-opacity="0"/>
</linearGradient>
<linearGradient id="paint54_linear_263_533" x1="32.5" y1="0.748047" x2="32.5" y2="69.748" gradientUnits="userSpaceOnUse">
<stop stop-color="white"/>
<stop offset="1" stop-color="white" stop-opacity="0.29"/>
</linearGradient>
<linearGradient id="paint55_linear_263_533" x1="32.5" y1="1.19035" x2="22.23" y2="68.6263" gradientUnits="userSpaceOnUse">
<stop stop-color="#7F96FF"/>
<stop offset="0.361662" stop-color="#F58E8E"/>
<stop offset="1" stop-color="#F2D398" stop-opacity="0"/>
</linearGradient>
<linearGradient id="paint56_linear_263_533" x1="32.5" y1="0.748047" x2="32.5" y2="69.748" gradientUnits="userSpaceOnUse">
<stop stop-color="white"/>
<stop offset="1" stop-color="white" stop-opacity="0.29"/>
</linearGradient>
<linearGradient id="paint57_linear_263_533" x1="32.5" y1="1.19035" x2="22.23" y2="68.6263" gradientUnits="userSpaceOnUse">
<stop stop-color="#7F96FF"/>
<stop offset="0.361662" stop-color="#F58E8E"/>
<stop offset="1" stop-color="#F2D398" stop-opacity="0"/>
</linearGradient>
<linearGradient id="paint58_linear_263_533" x1="32.5" y1="0.748047" x2="32.5" y2="69.748" gradientUnits="userSpaceOnUse">
<stop stop-color="white"/>
<stop offset="1" stop-color="white" stop-opacity="0.29"/>
</linearGradient>
<linearGradient id="paint59_linear_263_533" x1="32.5" y1="1.19035" x2="22.23" y2="68.6263" gradientUnits="userSpaceOnUse">
<stop stop-color="#7F96FF"/>
<stop offset="0.361662" stop-color="#F58E8E"/>
<stop offset="1" stop-color="#F2D398" stop-opacity="0"/>
</linearGradient>
<linearGradient id="paint60_linear_263_533" x1="32.5" y1="0.748047" x2="32.5" y2="69.748" gradientUnits="userSpaceOnUse">
<stop stop-color="white"/>
<stop offset="1" stop-color="white" stop-opacity="0.29"/>
</linearGradient>
<linearGradient id="paint61_linear_263_533" x1="32.5" y1="1.19035" x2="22.23" y2="68.6263" gradientUnits="userSpaceOnUse">
<stop stop-color="#7F96FF"/>
<stop offset="0.361662" stop-color="#F58E8E"/>
<stop offset="1" stop-color="#F2D398" stop-opacity="0"/>
</linearGradient>
<linearGradient id="paint62_linear_263_533" x1="32.5" y1="0.748047" x2="32.5" y2="69.748" gradientUnits="userSpaceOnUse">
<stop stop-color="white"/>
<stop offset="1" stop-color="white" stop-opacity="0.29"/>
</linearGradient>
<linearGradient id="paint63_linear_263_533" x1="32.5" y1="1.19035" x2="22.23" y2="68.6263" gradientUnits="userSpaceOnUse">
<stop stop-color="#7F96FF"/>
<stop offset="0.361662" stop-color="#F58E8E"/>
<stop offset="1" stop-color="#F2D398" stop-opacity="0"/>
</linearGradient>
<linearGradient id="paint64_linear_263_533" x1="32.5" y1="0.748047" x2="32.5" y2="69.748" gradientUnits="userSpaceOnUse">
<stop stop-color="white"/>
<stop offset="1" stop-color="white" stop-opacity="0.29"/>
</linearGradient>
<linearGradient id="paint65_linear_263_533" x1="32.5" y1="1.19035" x2="22.23" y2="68.6263" gradientUnits="userSpaceOnUse">
<stop stop-color="#7F96FF"/>
<stop offset="0.361662" stop-color="#F58E8E"/>
<stop offset="1" stop-color="#F2D398" stop-opacity="0"/>
</linearGradient>
<linearGradient id="paint66_linear_263_533" x1="32.5" y1="0.748047" x2="32.5" y2="69.748" gradientUnits="userSpaceOnUse">
<stop stop-color="white"/>
<stop offset="1" stop-color="white" stop-opacity="0.29"/>
</linearGradient>
<linearGradient id="paint67_linear_263_533" x1="32.5" y1="1.19035" x2="22.23" y2="68.6263" gradientUnits="userSpaceOnUse">
<stop stop-color="#7F96FF"/>
<stop offset="0.361662" stop-color="#F58E8E"/>
<stop offset="1" stop-color="#F2D398" stop-opacity="0"/>
</linearGradient>
<linearGradient id="paint68_linear_263_533" x1="32.5" y1="0.748047" x2="32.5" y2="69.748" gradientUnits="userSpaceOnUse">
<stop stop-color="white"/>
<stop offset="1" stop-color="white" stop-opacity="0.29"/>
</linearGradient>
<linearGradient id="paint69_linear_263_533" x1="32.5" y1="1.19035" x2="22.23" y2="68.6263" gradientUnits="userSpaceOnUse">
<stop stop-color="#7F96FF"/>
<stop offset="0.361662" stop-color="#F58E8E"/>
<stop offset="1" stop-color="#F2D398" stop-opacity="0"/>
</linearGradient>
<linearGradient id="paint70_linear_263_533" x1="32.5" y1="0.748047" x2="32.5" y2="69.748" gradientUnits="userSpaceOnUse">
<stop stop-color="white"/>
<stop offset="1" stop-color="white" stop-opacity="0.29"/>
</linearGradient>
<linearGradient id="paint71_linear_263_533" x1="32.5" y1="1.19035" x2="22.23" y2="68.6263" gradientUnits="userSpaceOnUse">
<stop stop-color="#7F96FF"/>
<stop offset="0.361662" stop-color="#F58E8E"/>
<stop offset="1" stop-color="#F2D398" stop-opacity="0"/>
</linearGradient>
<linearGradient id="paint72_linear_263_533" x1="32.5" y1="0.748047" x2="32.5" y2="69.748" gradientUnits="userSpaceOnUse">
<stop stop-color="white"/>
<stop offset="1" stop-color="white" stop-opacity="0.29"/>
</linearGradient>
<linearGradient id="paint73_linear_263_533" x1="32.5" y1="1.19035" x2="22.23" y2="68.6263" gradientUnits="userSpaceOnUse">
<stop stop-color="#7F96FF"/>
<stop offset="0.361662" stop-color="#F58E8E"/>
<stop offset="1" stop-color="#F2D398" stop-opacity="0"/>
</linearGradient>
<linearGradient id="paint74_linear_263_533" x1="32.5" y1="0.748047" x2="32.5" y2="69.748" gradientUnits="userSpaceOnUse">
<stop stop-color="white"/>
<stop offset="1" stop-color="white" stop-opacity="0.29"/>
</linearGradient>
<linearGradient id="paint75_linear_263_533" x1="32.5" y1="1.19035" x2="22.23" y2="68.6263" gradientUnits="userSpaceOnUse">
<stop stop-color="#7F96FF"/>
<stop offset="0.361662" stop-color="#F58E8E"/>
<stop offset="1" stop-color="#F2D398" stop-opacity="0"/>
</linearGradient>
<linearGradient id="paint76_linear_263_533" x1="32.5" y1="0.748047" x2="32.5" y2="69.748" gradientUnits="userSpaceOnUse">
<stop stop-color="white"/>
<stop offset="1" stop-color="white" stop-opacity="0.29"/>
</linearGradient>
<linearGradient id="paint77_linear_263_533" x1="32.5" y1="1.19035" x2="22.23" y2="68.6263" gradientUnits="userSpaceOnUse">
<stop stop-color="#7F96FF"/>
<stop offset="0.361662" stop-color="#F58E8E"/>
<stop offset="1" stop-color="#F2D398" stop-opacity="0"/>
</linearGradient>
<linearGradient id="paint78_linear_263_533" x1="32.5" y1="0.748047" x2="32.5" y2="69.748" gradientUnits="userSpaceOnUse">
<stop stop-color="white"/>
<stop offset="1" stop-color="white" stop-opacity="0.29"/>
</linearGradient>
<linearGradient id="paint79_linear_263_533" x1="32.5" y1="1.19035" x2="22.23" y2="68.6263" gradientUnits="userSpaceOnUse">
<stop stop-color="#7F96FF"/>
<stop offset="0.361662" stop-color="#F58E8E"/>
<stop offset="1" stop-color="#F2D398" stop-opacity="0"/>
</linearGradient>
<linearGradient id="paint80_linear_263_533" x1="32.5" y1="0.748047" x2="32.5" y2="69.748" gradientUnits="userSpaceOnUse">
<stop stop-color="white"/>
<stop offset="1" stop-color="white" stop-opacity="0.29"/>
</linearGradient>
<linearGradient id="paint81_linear_263_533" x1="32.5" y1="1.19035" x2="22.23" y2="68.6263" gradientUnits="userSpaceOnUse">
<stop stop-color="#7F96FF"/>
<stop offset="0.361662" stop-color="#F58E8E"/>
<stop offset="1" stop-color="#F2D398" stop-opacity="0"/>
</linearGradient>
<linearGradient id="paint82_linear_263_533" x1="32.5" y1="0.748047" x2="32.5" y2="69.748" gradientUnits="userSpaceOnUse">
<stop stop-color="white"/>
<stop offset="1" stop-color="white" stop-opacity="0.29"/>
</linearGradient>
<linearGradient id="paint83_linear_263_533" x1="32.5" y1="1.19035" x2="22.23" y2="68.6263" gradientUnits="userSpaceOnUse">
<stop stop-color="#7F96FF"/>
<stop offset="0.361662" stop-color="#F58E8E"/>
<stop offset="1" stop-color="#F2D398" stop-opacity="0"/>
</linearGradient>
<linearGradient id="paint84_linear_263_533" x1="32.5" y1="0.748047" x2="32.5" y2="69.748" gradientUnits="userSpaceOnUse">
<stop stop-color="white"/>
<stop offset="1" stop-color="white" stop-opacity="0.29"/>
</linearGradient>
<linearGradient id="paint85_linear_263_533" x1="32.5" y1="1.19035" x2="22.23" y2="68.6263" gradientUnits="userSpaceOnUse">
<stop stop-color="#7F96FF"/>
<stop offset="0.361662" stop-color="#F58E8E"/>
<stop offset="1" stop-color="#F2D398" stop-opacity="0"/>
</linearGradient>
<linearGradient id="paint86_linear_263_533" x1="32.5" y1="0.748047" x2="32.5" y2="69.748" gradientUnits="userSpaceOnUse">
<stop stop-color="white"/>
<stop offset="1" stop-color="white" stop-opacity="0.29"/>
</linearGradient>
<linearGradient id="paint87_linear_263_533" x1="32.5" y1="1.19035" x2="22.23" y2="68.6263" gradientUnits="userSpaceOnUse">
<stop stop-color="#7F96FF"/>
<stop offset="0.361662" stop-color="#F58E8E"/>
<stop offset="1" stop-color="#F2D398" stop-opacity="0"/>
</linearGradient>
<linearGradient id="paint88_linear_263_533" x1="32.5" y1="0.748047" x2="32.5" y2="69.748" gradientUnits="userSpaceOnUse">
<stop stop-color="white"/>
<stop offset="1" stop-color="white" stop-opacity="0.29"/>
</linearGradient>
<linearGradient id="paint89_linear_263_533" x1="32.5" y1="1.19035" x2="22.23" y2="68.6263" gradientUnits="userSpaceOnUse">
<stop stop-color="#7F96FF"/>
<stop offset="0.361662" stop-color="#F58E8E"/>
<stop offset="1" stop-color="#F2D398" stop-opacity="0"/>
</linearGradient>
<linearGradient id="paint90_linear_263_533" x1="32.5" y1="0.748047" x2="32.5" y2="69.748" gradientUnits="userSpaceOnUse">
<stop stop-color="white"/>
<stop offset="1" stop-color="white" stop-opacity="0.29"/>
</linearGradient>
<linearGradient id="paint91_linear_263_533" x1="32.5" y1="1.19035" x2="22.23" y2="68.6263" gradientUnits="userSpaceOnUse">
<stop stop-color="#7F96FF"/>
<stop offset="0.361662" stop-color="#F58E8E"/>
<stop offset="1" stop-color="#F2D398" stop-opacity="0"/>
</linearGradient>
<linearGradient id="paint92_linear_263_533" x1="32.5" y1="0.748047" x2="32.5" y2="69.748" gradientUnits="userSpaceOnUse">
<stop stop-color="white"/>
<stop offset="1" stop-color="white" stop-opacity="0.29"/>
</linearGradient>
<linearGradient id="paint93_linear_263_533" x1="32.5" y1="1.19035" x2="22.23" y2="68.6263" gradientUnits="userSpaceOnUse">
<stop stop-color="#7F96FF"/>
<stop offset="0.361662" stop-color="#F58E8E"/>
<stop offset="1" stop-color="#F2D398" stop-opacity="0"/>
</linearGradient>
<linearGradient id="paint94_linear_263_533" x1="32.5" y1="0.748047" x2="32.5" y2="69.748" gradientUnits="userSpaceOnUse">
<stop stop-color="white"/>
<stop offset="1" stop-color="white" stop-opacity="0.29"/>
</linearGradient>
<linearGradient id="paint95_linear_263_533" x1="32.5" y1="1.19035" x2="22.23" y2="68.6263" gradientUnits="userSpaceOnUse">
<stop stop-color="#7F96FF"/>
<stop offset="0.361662" stop-color="#F58E8E"/>
<stop offset="1" stop-color="#F2D398" stop-opacity="0"/>
</linearGradient>
<linearGradient id="paint96_linear_263_533" x1="32.5" y1="0.748047" x2="32.5" y2="69.748" gradientUnits="userSpaceOnUse">
<stop stop-color="white"/>
<stop offset="1" stop-color="white" stop-opacity="0.29"/>
</linearGradient>
<linearGradient id="paint97_linear_263_533" x1="32.5" y1="1.19035" x2="22.23" y2="68.6263" gradientUnits="userSpaceOnUse">
<stop stop-color="#7F96FF"/>
<stop offset="0.361662" stop-color="#F58E8E"/>
<stop offset="1" stop-color="#F2D398" stop-opacity="0"/>
</linearGradient>
<linearGradient id="paint98_linear_263_533" x1="32.5" y1="0.748047" x2="32.5" y2="69.748" gradientUnits="userSpaceOnUse">
<stop stop-color="white"/>
<stop offset="1" stop-color="white" stop-opacity="0.29"/>
</linearGradient>
<linearGradient id="paint99_linear_263_533" x1="32.5" y1="1.19035" x2="22.23" y2="68.6263" gradientUnits="userSpaceOnUse">
<stop stop-color="#7F96FF"/>
<stop offset="0.361662" stop-color="#F58E8E"/>
<stop offset="1" stop-color="#F2D398" stop-opacity="0"/>
</linearGradient>
<linearGradient id="paint100_linear_263_533" x1="32.5" y1="0.748047" x2="32.5" y2="69.748" gradientUnits="userSpaceOnUse">
<stop stop-color="white"/>
<stop offset="1" stop-color="white" stop-opacity="0.29"/>
</linearGradient>
<linearGradient id="paint101_linear_263_533" x1="32.5" y1="1.19035" x2="22.23" y2="68.6263" gradientUnits="userSpaceOnUse">
<stop stop-color="#7F96FF"/>
<stop offset="0.361662" stop-color="#F58E8E"/>
<stop offset="1" stop-color="#F2D398" stop-opacity="0"/>
</linearGradient>
<linearGradient id="paint102_linear_263_533" x1="32.5" y1="0.748047" x2="32.5" y2="69.748" gradientUnits="userSpaceOnUse">
<stop stop-color="white"/>
<stop offset="1" stop-color="white" stop-opacity="0.29"/>
</linearGradient>
<linearGradient id="paint103_linear_263_533" x1="32.5" y1="1.19035" x2="22.23" y2="68.6263" gradientUnits="userSpaceOnUse">
<stop stop-color="#7F96FF"/>
<stop offset="0.361662" stop-color="#F58E8E"/>
<stop offset="1" stop-color="#F2D398" stop-opacity="0"/>
</linearGradient>
<linearGradient id="paint104_linear_263_533" x1="32.5" y1="0.748047" x2="32.5" y2="69.748" gradientUnits="userSpaceOnUse">
<stop stop-color="white"/>
<stop offset="1" stop-color="white" stop-opacity="0.29"/>
</linearGradient>
<linearGradient id="paint105_linear_263_533" x1="32.5" y1="1.19035" x2="22.23" y2="68.6263" gradientUnits="userSpaceOnUse">
<stop stop-color="#7F96FF"/>
<stop offset="0.361662" stop-color="#F58E8E"/>
<stop offset="1" stop-color="#F2D398" stop-opacity="0"/>
</linearGradient>
<linearGradient id="paint106_linear_263_533" x1="32.5" y1="0.748047" x2="32.5" y2="69.748" gradientUnits="userSpaceOnUse">
<stop stop-color="white"/>
<stop offset="1" stop-color="white" stop-opacity="0.29"/>
</linearGradient>
<linearGradient id="paint107_linear_263_533" x1="32.5" y1="1.19035" x2="22.23" y2="68.6263" gradientUnits="userSpaceOnUse">
<stop stop-color="#7F96FF"/>
<stop offset="0.361662" stop-color="#F58E8E"/>
<stop offset="1" stop-color="#F2D398" stop-opacity="0"/>
</linearGradient>
<linearGradient id="paint108_linear_263_533" x1="32.5" y1="0.748047" x2="32.5" y2="69.748" gradientUnits="userSpaceOnUse">
<stop stop-color="white"/>
<stop offset="1" stop-color="white" stop-opacity="0.29"/>
</linearGradient>
<linearGradient id="paint109_linear_263_533" x1="32.5" y1="1.19035" x2="22.23" y2="68.6263" gradientUnits="userSpaceOnUse">
<stop stop-color="#7F96FF"/>
<stop offset="0.361662" stop-color="#F58E8E"/>
<stop offset="1" stop-color="#F2D398" stop-opacity="0"/>
</linearGradient>
<linearGradient id="paint110_linear_263_533" x1="32.5" y1="0.748047" x2="32.5" y2="69.748" gradientUnits="userSpaceOnUse">
<stop stop-color="white"/>
<stop offset="1" stop-color="white" stop-opacity="0.29"/>
</linearGradient>
<linearGradient id="paint111_linear_263_533" x1="32.5" y1="1.19035" x2="22.23" y2="68.6263" gradientUnits="userSpaceOnUse">
<stop stop-color="#7F96FF"/>
<stop offset="0.361662" stop-color="#F58E8E"/>
<stop offset="1" stop-color="#F2D398" stop-opacity="0"/>
</linearGradient>
</defs>
</svg>
