<svg width="48" height="56" viewBox="0 0 48 56" fill="none" xmlns="http://www.w3.org/2000/svg">
<path d="M14.5091 15.4601L29.0892 10.3945L28.1079 14.7101C29.3719 15.0216 30.7468 15.437 32.2657 16.0024C35.6364 17.2544 38.691 18.7083 41.4351 20.3584L47.5 7.05981C44.6117 5.15589 41.2078 3.62699 37.2829 2.47888C33.3579 1.32499 29.4273 0.748047 25.4802 0.748047C21.1505 0.748047 17.3475 1.45192 14.0711 2.85389C10.7948 4.25586 8.27235 6.27516 6.49281 8.90026C4.71326 11.5369 3.82071 14.6062 3.82071 18.1083C3.82071 21.7142 4.68554 24.5931 6.42074 26.7509C8.15039 28.9029 10.2071 30.4952 12.5909 31.5222C14.9748 32.5492 17.9462 33.5357 21.5053 34.4877C22.4644 34.7358 23.3126 34.9723 24.1053 35.2146L25.0478 31.0664L36.3737 40.3494L21.7991 45.415L22.5808 41.9649C20.707 41.5726 18.6392 40.9264 16.3108 39.9398C12.4634 38.3071 9.25914 36.3397 6.70901 34.0377L0.5 47.1862C3.82071 49.8401 7.75678 51.9287 12.3082 53.4576C16.8541 54.9865 21.3667 55.748 25.8405 55.748C29.7877 55.748 33.3745 55.1192 36.601 53.8672C39.8274 52.6152 42.3887 50.6998 44.2902 48.1209C46.1917 45.5419 47.1452 42.3514 47.1452 38.5436C47.1452 34.8339 46.2527 31.8453 44.4731 29.5664C42.6936 27.2874 40.6091 25.6201 38.2253 24.57C35.8415 23.52 32.8478 22.4642 29.2389 21.4142C28.3241 21.1603 27.5203 20.918 26.7608 20.6814L25.835 24.7431L14.5091 15.4601Z" fill="url(#paint0_linear_263_538)" fill-opacity="0.7"/>
<defs>
<linearGradient id="paint0_linear_263_538" x1="24" y1="0.748047" x2="24" y2="55.748" gradientUnits="userSpaceOnUse">
<stop stop-color="#FCFCFC"/>
<stop offset="1" stop-color="#FCFCFC" stop-opacity="0.15"/>
</linearGradient>
</defs>
</svg>
