<?xml version="1.0" encoding="UTF-8"?>
<svg width="99px" height="94px" viewBox="0 0 99 94" version="1.1" xmlns="http://www.w3.org/2000/svg" xmlns:xlink="http://www.w3.org/1999/xlink">
    <!-- Generator: Sketch 46.2 (44496) - http://www.bohemiancoding.com/sketch -->
    <title>Group 55</title>
    <desc>Created with Sketch.</desc>
    <defs></defs>
    <g id="Page-1" stroke="none" stroke-width="1" fill="none" fill-rule="evenodd">
        <g transform="translate(-192.000000, -3296.000000)" id="Group-55">
            <g transform="translate(192.000000, 3296.000000)">
                <path d="M79.3125786,43 C78.7527965,43 78.1932331,42.7862816 77.7660137,42.3590635 L64.6409932,29.234084 C63.7863356,28.3796478 63.7863356,26.9954 64.6409932,26.1409638 L82.1410205,8.64099119 C82.9954594,7.78633627 84.3797115,7.78633627 85.2341504,8.64099119 L98.3591709,21.7659707 C99.2136097,22.6204068 99.2136097,24.0046547 98.3591709,24.8590908 L93.984164,29.234084 C93.1297252,30.0885202 91.745473,30.0885202 90.8910342,29.234084 L85.8750889,24.2183731 L80.2184238,29.8750205 L85.2341504,34.8909502 C86.0885892,35.7453863 86.0885892,37.1296342 85.2341504,37.9840703 L80.8591435,42.3590635 C80.4319241,42.7862816 79.8723607,43 79.3125786,43 Z" id="Fill-53" fill="#D8BC48"></path>
                <path d="M92.0382706,0.972070588 C90.7561835,-0.324023529 88.6791106,-0.324023529 87.3970235,0.972070588 L34.8430518,54.0909176 C31.2123318,51.38416 26.7397976,49.7647059 21.8823529,49.7647059 C9.79716706,49.7647059 0,59.6672188 0,71.8823529 C0,84.0974871 9.79716706,94 21.8823529,94 C33.9675388,94 43.7647059,84.0974871 43.7647059,71.8823529 C43.7647059,66.9724565 42.16248,62.4520518 39.4845176,58.7822918 L92.0382706,5.66322353 C93.3205765,4.36845647 93.3205765,2.26683765 92.0382706,0.972070588 Z M21.8823529,87.3647059 C13.4359835,87.3647059 6.56470588,80.4195435 6.56470588,71.8823529 C6.56470588,63.3451624 13.4359835,56.4 21.8823529,56.4 C26.06976,56.4 29.8672235,58.1103576 32.6349035,60.8721882 C32.6587553,60.8980659 32.6661953,60.9323482 32.6911412,60.9573412 C32.7158682,60.9825553 32.7497859,60.9898541 32.7753882,61.0139624 C35.5078376,63.8116235 37.2,67.64992 37.2,71.8823529 C37.2,80.4195435 30.3287224,87.3647059 21.8823529,87.3647059 Z" id="Fill-54" fill="#EFD358"></path>
            </g>
        </g>
    </g>
</svg>