<?xml version="1.0" encoding="UTF-8"?>
<svg width="99px" height="73px" viewBox="0 0 99 73" version="1.1" xmlns="http://www.w3.org/2000/svg" xmlns:xlink="http://www.w3.org/1999/xlink">
    <!-- Generator: Sketch 46.2 (44496) - http://www.bohemiancoding.com/sketch -->
    <title>Group 70</title>
    <desc>Created with Sketch.</desc>
    <defs></defs>
    <g id="Page-1" stroke="none" stroke-width="1" fill="none" fill-rule="evenodd">
        <g transform="translate(-591.000000, -3307.000000)" id="Group-70">
            <g transform="translate(591.000000, 3307.000000)">
                <path d="M87.8749947,56 C86.7019917,56 85.7499893,55.0377397 85.7499893,53.8520975 C85.7499893,36.6796167 74.1963354,22.0373652 57.6552939,18.2420214 C56.5099161,17.9799773 55.7937893,16.8287015 56.0530399,15.67313 C56.3122906,14.5154105 57.4576685,13.7915673 58.5945463,14.0536114 C77.0863426,18.293571 90,34.6605883 90,53.8520975 C90,55.0377397 89.0479976,56 87.8749947,56 Z" id="Fill-56" fill="#B3B3B3"></path>
                <path d="M11.1250972,56 C9.95204354,56 9,55.0377397 9,53.8520975 C9,34.6605883 21.9142155,18.293571 40.4046861,14.0536114 C41.5458633,13.7915673 42.6891655,14.5154105 42.9463023,15.67313 C43.2076893,16.8308494 42.4894064,17.9799773 41.343979,18.2420214 C24.8043477,22.0373652 13.2501944,36.6796167 13.2501944,53.8520975 C13.2501944,55.0377397 12.2981508,56 11.1250972,56 Z" id="Fill-57" fill="#B3B3B3"></path>
                <path d="M40.8571429,13 L15.1428571,13 C13.96,13 13,12.104 13,11 C13,9.896 13.96,9 15.1428571,9 L40.8571429,9 C42.04,9 43,9.896 43,11 C43,12.104 42.04,13 40.8571429,13 Z" id="Fill-58" fill="#B3B3B3"></path>
                <path d="M83.8571429,13 L58.1428571,13 C56.96,13 56,12.104 56,11 C56,9.896 56.96,9 58.1428571,9 L83.8571429,9 C85.04,9 86,9.896 86,11 C86,12.104 85.04,13 83.8571429,13 Z" id="Fill-59" fill="#B3B3B3"></path>
                <path d="M10.5,2 C15.1913625,2 19,5.8086375 19,10.5 C19,15.1913625 15.1913625,19 10.5,19 C5.8086375,19 2,15.1913625 2,10.5 C2,5.8086375 5.8086375,2 10.5,2 Z" id="Fill-60" fill="#FFFFFF"></path>
                <path d="M11,21 C4.9346,21 0,16.2897 0,10.5 C0,4.7103 4.9346,0 11,0 C17.0654,0 22,4.7103 22,10.5 C22,16.2897 17.0654,21 11,21 Z M11,4.2 C7.3612,4.2 4.4,7.0266 4.4,10.5 C4.4,13.9734 7.3612,16.8 11,16.8 C14.6388,16.8 17.6,13.9734 17.6,10.5 C17.6,7.0266 14.6388,4.2 11,4.2 Z" id="Fill-61" fill="#43A6DD"></path>
                <path d="M88.5,2 C93.1913625,2 97,5.8086375 97,10.5 C97,15.1913625 93.1913625,19 88.5,19 C83.8086375,19 80,15.1913625 80,10.5 C80,5.8086375 83.8086375,2 88.5,2 Z" id="Fill-62" fill="#FFFFFF"></path>
                <path d="M88,21 C81.9346,21 77,16.2897 77,10.5 C77,4.7103 81.9346,0 88,0 C94.0654,0 99,4.7103 99,10.5 C99,16.2897 94.0654,21 88,21 Z M88,4.2 C84.3612,4.2 81.4,7.0266 81.4,10.5 C81.4,13.9734 84.3612,16.8 88,16.8 C91.6388,16.8 94.6,13.9734 94.6,10.5 C94.6,7.0266 91.6388,4.2 88,4.2 Z" id="Fill-63" fill="#43A6DD"></path>
                <polygon id="Fill-64" fill="#E6E6E6" points="41 19 58 19 58 2 41 2"></polygon>
                <path d="M58.8,21 L41.2,21 C39.9856,21 39,20.0592 39,18.9 L39,2.1 C39,0.9408 39.9856,0 41.2,0 L58.8,0 C60.0144,0 61,0.9408 61,2.1 L61,18.9 C61,20.0592 60.0144,21 58.8,21 Z M43.4,16.8 L56.6,16.8 L56.6,4.2 L43.4,4.2 L43.4,16.8 Z" id="Fill-65" fill="#335262"></path>
                <polygon id="Fill-66" fill="#E6E6E6" points="2 71 19 71 19 54 2 54"></polygon>
                <path d="M19.8,73 L2.2,73 C0.9856,73 0,72.0592 0,70.9 L0,54.1 C0,52.9408 0.9856,52 2.2,52 L19.8,52 C21.0144,52 22,52.9408 22,54.1 L22,70.9 C22,72.0592 21.0144,73 19.8,73 Z M4.4,68.8 L17.6,68.8 L17.6,56.2 L4.4,56.2 L4.4,68.8 Z" id="Fill-67" fill="#335262"></path>
                <polygon id="Fill-68" fill="#E6E6E6" points="80 71 97 71 97 54 80 54"></polygon>
                <path d="M96.8,73 L79.2,73 C77.9856,73 77,72.0592 77,70.9 L77,54.1 C77,52.9408 77.9856,52 79.2,52 L96.8,52 C98.0144,52 99,52.9408 99,54.1 L99,70.9 C99,72.0592 98.0144,73 96.8,73 Z M81.4,68.8 L94.6,68.8 L94.6,56.2 L81.4,56.2 L81.4,68.8 Z" id="Fill-69" fill="#335262"></path>
            </g>
        </g>
    </g>
</svg>