<?xml version="1.0" encoding="UTF-8"?>
<svg width="103px" height="94px" viewBox="0 0 103 94" version="1.1" xmlns="http://www.w3.org/2000/svg" xmlns:xlink="http://www.w3.org/1999/xlink">
    <!-- Generator: Sketch 46.2 (44496) - http://www.bohemiancoding.com/sketch -->
    <title>Group 81</title>
    <desc>Created with Sketch.</desc>
    <defs></defs>
    <g id="Page-1" stroke="none" stroke-width="1" fill="none" fill-rule="evenodd">
        <g transform="translate(-990.000000, -3307.000000)" id="Group-81">
            <g transform="translate(990.000000, 3307.000000)">
                <path d="M103,4.4 C103,1.969 100.995978,0 98.5217391,0 L4.47826087,0 C2.00402174,0 0,1.969 0,4.4 L0,22 L103,22 L103,4.4 Z" id="Fill-71" fill="#E6E6E6"></path>
                <path d="M42.5,7 C44.98355,7 47,9.01645 47,11.5 C47,13.98355 44.98355,16 42.5,16 C40.01645,16 38,13.98355 38,11.5 C38,9.01645 40.01645,7 42.5,7 Z" id="Fill-72" fill="#72C472"></path>
                <path d="M26.5,7 C28.98355,7 31,9.01645 31,11.5 C31,13.98355 28.98355,16 26.5,16 C24.01645,16 22,13.98355 22,11.5 C22,9.01645 24.01645,7 26.5,7 Z" id="Fill-73" fill="#EFD358"></path>
                <path d="M11.5,7 C13.98355,7 16,9.01645 16,11.5 C16,13.98355 13.98355,16 11.5,16 C9.01645,16 7,13.98355 7,11.5 C7,9.01645 9.01645,7 11.5,7 Z" id="Fill-74" fill="#E86C60"></path>
                <path d="M31,22 L31,94 L98.5,94 C100.98625,94 103,91.98625 103,89.5 L103,22 L31,22 Z" id="Fill-75" fill="#E6E6E6"></path>
                <path d="M0,22 L0,89.5 C0,91.98625 1.98178571,94 4.42857143,94 L31,94 L31,22 L0,22 Z" id="Fill-76" fill="#444444"></path>
                <polygon id="Fill-77" fill="#43A6DD" points="0 31 103 31 103 22 0 22"></polygon>
                <path d="M91.75,62 L42.25,62 C41.008,62 40,61.0144 40,59.8 L40,42.2 C40,40.9856 41.008,40 42.25,40 L91.75,40 C92.992,40 94,40.9856 94,42.2 L94,59.8 C94,61.0144 92.992,62 91.75,62 Z" id="Fill-78" fill="#B3B3B3"></path>
                <path d="M91.75,73 L42.25,73 C41.008,73 40,72.104 40,71 C40,69.896 41.008,69 42.25,69 L91.75,69 C92.992,69 94,69.896 94,71 C94,72.104 92.992,73 91.75,73 Z" id="Fill-79" fill="#B3B3B3"></path>
                <path d="M91.75,85 L42.25,85 C41.008,85 40,84.104 40,83 C40,81.896 41.008,81 42.25,81 L91.75,81 C92.992,81 94,81.896 94,83 C94,84.104 92.992,85 91.75,85 Z" id="Fill-80" fill="#B3B3B3"></path>
            </g>
        </g>
    </g>
</svg>