<?xml version="1.0" encoding="UTF-8"?>
<svg width="43px" height="42px" viewBox="0 0 43 42" version="1.1" xmlns="http://www.w3.org/2000/svg" xmlns:xlink="http://www.w3.org/1999/xlink">
    <!-- Generator: Sketch 46.2 (44496) - http://www.bohemiancoding.com/sketch -->
    <title>sv-6</title>
    <desc>Created with Sketch.</desc>
    <defs></defs>
    <g id="Page-1" stroke="none" stroke-width="1" fill="none" fill-rule="evenodd">
        <g id="sv-6">
            <path d="M41.883,26.084 C39.078,37.334 27.683,44.181 16.4317,41.375 C5.1848,38.57 -1.6619,27.175 1.1443,15.926 C3.9478,4.674 15.3423,-2.173 26.591,0.632 C37.841,3.437 44.687,14.833 41.883,26.084 Z" id="Shape" fill="#F7931A" fill-rule="nonzero"></path>
            <path d="M31.0379,18.691 C31.4559,15.897 29.3289,14.395 26.4189,13.392 L27.3629,9.607 L25.0589,9.033 L24.1402,12.718 C23.5345,12.568 22.9123,12.425 22.2941,12.284 L23.2194,8.574 L20.9167,8 L19.9723,11.784 C19.4709,11.67 18.9787,11.557 18.501,11.438 L18.5036,11.426 L15.326,10.633 L14.7131,13.094 C14.7131,13.094 16.4226,13.486 16.3865,13.51 C17.3197,13.743 17.4884,14.36 17.4602,14.85 L16.3852,19.162 C16.4495,19.179 16.5329,19.202 16.6248,19.239 C16.548,19.22 16.4659,19.199 16.3813,19.179 L14.8745,25.219 C14.7603,25.503 14.4709,25.928 13.8186,25.767 C13.8416,25.8 12.1439,25.349 12.1439,25.349 L11,27.986 L13.9984,28.734 C14.5562,28.873 15.1029,29.02 15.641,29.158 L14.6875,32.986 L16.989,33.56 L17.9333,29.773 C18.562,29.943 19.1723,30.101 19.7695,30.249 L18.8285,34.019 L21.1326,34.593 L22.0861,30.772 C26.0151,31.516 28.9699,31.216 30.2129,27.662 C31.2149,24.801 30.1629,23.15 28.0959,22.074 C29.6019,21.727 30.7359,20.737 31.0379,18.691 Z M25.7736,26.073 C25.0616,28.934 20.244,27.388 18.6821,27 L19.9474,21.928 C21.5093,22.317 26.5179,23.089 25.7736,26.073 Z M26.4859,18.65 C25.8366,21.252 21.8269,19.93 20.5262,19.606 L21.6733,15.005 C22.974,15.33 27.1629,15.935 26.4859,18.65 Z" id="Fill-36" fill="#FFFFFF"></path>
        </g>
    </g>
</svg>