<?xml version="1.0" encoding="UTF-8"?>
<svg width="24px" height="22px" viewBox="0 0 24 22" version="1.1" xmlns="http://www.w3.org/2000/svg" xmlns:xlink="http://www.w3.org/1999/xlink">
    <!-- Generator: Sketch 46.2 (44496) - http://www.bohemiancoding.com/sketch -->
    <title>Fill 6</title>
    <desc>Created with Sketch.</desc>
    <defs></defs>
    <g id="Page-1" stroke="none" stroke-width="1" fill="none" fill-rule="evenodd">
        <g transform="translate(-23.000000, -24.000000)" id="Fill-6" fill="#FFFFFF">
            <path d="M45.5001,39.5 L24.5001,39.5 C23.6716,39.5 23,38.83 23,38 C23,37.17 23.6716,36.5 24.5001,36.5 L45.5001,36.5 C46.3285,36.5 47.0001,37.17 47.0001,38 C47.0001,38.83 46.3285,39.5 45.5001,39.5 Z M45.5001,33.5 L24.5001,33.5 C23.6716,33.5 23,32.83 23,32 C23,31.17 23.6716,30.5 24.5001,30.5 L45.5001,30.5 C46.3285,30.5 47.0001,31.17 47.0001,32 C47.0001,32.83 46.3285,33.5 45.5001,33.5 Z M45.5001,27.5 L24.5001,27.5 C23.6716,27.5 23,26.83 23,26 C23,25.17 23.6716,24.5 24.5001,24.5 L45.5001,24.5 C46.3285,24.5 47.0001,25.17 47.0001,26 C47.0001,26.83 46.3285,27.5 45.5001,27.5 Z M24.5001,42.5 L45.5001,42.5 C46.3285,42.5 47.0001,43.17 47.0001,44 C47.0001,44.83 46.3285,45.5 45.5001,45.5 L24.5001,45.5 C23.6716,45.5 23,44.83 23,44 C23,43.17 23.6716,42.5 24.5001,42.5 Z"></path>
        </g>
    </g>
</svg>