<svg width="16" height="16" viewBox="0 0 16 16" fill="none" xmlns="http://www.w3.org/2000/svg">
<path d="M3.65242 15.7499H0.387109V5.23466H3.65242V15.7499ZM2.01801 3.80028C0.973867 3.80028 0.126953 2.93544 0.126953 1.8913C0.126953 1.38976 0.326189 0.908763 0.68083 0.554121C1.03547 0.19948 1.51647 0.000244141 2.01801 0.000244141C2.51955 0.000244141 3.00054 0.19948 3.35519 0.554121C3.70983 0.908763 3.90906 1.38976 3.90906 1.8913C3.90906 2.93544 3.0618 3.80028 2.01801 3.80028ZM15.8734 15.7499H12.6152V10.6311C12.6152 9.41122 12.5905 7.84677 10.9175 7.84677C9.21977 7.84677 8.95961 9.17216 8.95961 10.5433V15.7499H5.69781V5.23466H8.82953V6.66903H8.87523C9.31117 5.84286 10.3761 4.97099 11.9648 4.97099C15.2695 4.97099 15.877 7.14716 15.877 9.97372V15.7499H15.8734Z" fill="#EAEAEA" fill-opacity="0.9"/>
</svg>
